<mxfile host="65bd71144e">
    <diagram id="nL15cJXigJLUEyM93Pa8" name="Page-1">
        <mxGraphModel dx="1755" dy="1455" grid="1" gridSize="10" guides="1" tooltips="1" connect="1" arrows="1" fold="1" page="1" pageScale="1" pageWidth="850" pageHeight="1100" background="#FFFFFF" math="0" shadow="0">
            <root>
                <mxCell id="0"/>
                <mxCell id="1" parent="0"/>
                <mxCell id="3" value="&lt;font style=&quot;font-size: 40px;&quot;&gt;FULLSTACK BANKING APP&lt;/font&gt;" style="text;html=1;strokeColor=none;fillColor=none;align=center;verticalAlign=middle;whiteSpace=wrap;rounded=0;fontSize=40;fontFamily=Georgia;fontStyle=2" parent="1" vertex="1">
                    <mxGeometry x="85" y="40" width="680" height="80" as="geometry"/>
                </mxCell>
                <mxCell id="48" style="edgeStyle=none;html=1;entryX=0.25;entryY=0;entryDx=0;entryDy=0;fontSize=16;" parent="1" source="6" target="31" edge="1">
                    <mxGeometry relative="1" as="geometry"/>
                </mxCell>
                <mxCell id="6" value="" style="strokeColor=#dddddd;shadow=1;strokeWidth=1;rounded=1;absoluteArcSize=1;arcSize=2;" parent="1" vertex="1">
                    <mxGeometry x="190" y="155" width="230" height="100" as="geometry"/>
                </mxCell>
                <mxCell id="9" value="&lt;font face=&quot;Georgia&quot; style=&quot;font-size: 26px;&quot;&gt;FrontEnd&lt;/font&gt;" style="text;html=1;strokeColor=none;fillColor=none;align=center;verticalAlign=middle;whiteSpace=wrap;rounded=0;" parent="1" vertex="1">
                    <mxGeometry x="270" y="190" width="140" height="40" as="geometry"/>
                </mxCell>
                <mxCell id="10" value="" style="shape=image;verticalLabelPosition=bottom;labelBackgroundColor=default;verticalAlign=top;aspect=fixed;imageAspect=0;image=data:image/png,iVBORw0KGgoAAAANSUhEUgAAAggAAAFvCAYAAAAv5TMcAAAAAXNSR0IArs4c6QAAIABJREFUeF7snQmcHEXZ/39PdffM7uZOuCHkIHuEWxJQDhHEA+UQkQRy7REkoC+gCKJcYpBDUTzAP2CEZHaXABIU5FYERQQ8gggEdmc3HCEY7pBks8dMd9fz/1T3bBKQZLrn2jmqP7yYl1RXPfWtmu6nn3oOgr40AU1AE9AENAFNQBP4EAHSRDQBTUAT0AQ0AU1AE/gwAa0g6D2hCWgCmoAmoAloAv9DQCsIelNoApqAJqAJaAKagFYQ9B7QBDQBTUAT0AQ0gfQEtAUhPSPdQhPQBDQBTUATqDgCWkGouCXXE9YENAFNQBPQBNIT0ApCeka6hSagCWgCmoAmUHEEtIJQcUuuJ6wJaAKagCagCaQnoBWE9Ix0C01AE9AENAFNoOIIaAWh4pZcT1gT0AQ0AU1AE0hPQCsI6RnpFpqAJqAJaAKaQMUR0ApCxS25nrAmoAloApqAJpCegFYQ0jPSLTQBTUAT0AQ0gYojoBWEiltyPWFNQBPQBDQBTSA9Aa0gpGekW2gCmoAmoAloAhVHQCsIFbfkesKagCagCWgCmkB6AlpBSM9It9AENAFNQBPQBCqOgFYQKm7J9YQ1AU1AE9AENIH0BLSCkJ6RbqEJaAKagCagCVQcAa0gVNyS6wlrApqAJqAJaALpCWgFIT0j3UIT0AQ0AU1AE6g4AlpBqLgl1xPWBDQBTUAT0ATSE9AKQnpGuoUmoAloApqAJlBxBLSCUHFLriesCWgCmoAmoAmkJ6AVhPSMdAtNQBPQBDQBTaDiCGgFoeKWXE9YE9AENAFNQBNIT0ArCOkZ6RaagCagCWgCmkDFEdAKQsUtuZ6wJqAJaAKagCaQnoBWENIz0i00AU1AE9AENIGKI6AVhIpbcj1hTUAT0AQ0AU0gPQGtIKRnpFtoApqAJqAJaAIVR0ArCBW35HrCmoAmoAloAppAegJaQUjPSLfQBDQBTUAT0AQqjoBWECpuyfWENQFNQBPQBDSB9AS0gpCekW6hCWgCmoAmoAlUHAGtIFTckusJawKagCagCWgC6QloBSE9I91CE9AENAFNQBOoOAJaQai4JdcT1gQ0AU1AE9AE0hPQCkJ6RrqFJqAJaAKagCZQcQS0glBxS64nrAloApqAJqAJpCegFYT0jHQLTUAT0AQ0AU2g4ghoBaHillxPWBPQBDQBTUATSE9AKwjpGekWmoAmoAloAppAxRHQCkLFLbmesCagCWgCmoAmkJ6AVhDSM9ItNAFNQBPQBDSBiiOgFYSKW3I9YU1AE9AENAFNID0BrSCkZ6RbaAKaQJkROILZnBx/t7pn2HaWJcG2wMCYt+Asmk52mU1VT0cTyJiAVhAyRqdvLHkCzKKxE2Mg7d0NS+zKkHtIRh0BYwk0HgTJzG8wc5yE8SyTscYgvP7KarzxlyPggohLnkG5T+BSFs3NGEkOJrucbCDQZ0jyoUw0mkCELZ+AkgFCDwQ9JyXfz4TnBzZs7Fw2bcwGvdblvlH0/D6KgFYQ9L6oGAILlnNN7yhMFG5yLwOYBtCJRDSJiQUYRAT23vjsvTq8i8HqX+pS/9H/k+QBED0Flo9JoIOtyKumxKpXXsf7fzmSnIoBWlQTZTqCYUxaiTEO25MFxGRi3hvgE1gpfQThL/CgTqcWePNCq3UWTMwEUKqN+jNLSAg8Sa68k8n4N0XNF2ITsV4rDEW1+FqYPBHQCkKewOpui4QAMx33NKrHjEgeR8AJBNqXQbUENge1AFIvig98Sm5bdlZvGe/9otQGkmD5Fkt6EQKvEsQjsAf+Ett7+JtFQqDMxWBq7OgZy6g5xDDkF8HYA6B9AN7BU/n8RULYNfaVw5RqqJabSK36u2D5DxjmQ9i44dbY/qO1olDmu6vSp6cVhErfAWU+/3nPJ6cbUcTAmMJARL0zQmkDAfmwsiuoVxGzrf4Mpj/A5Msn7mE9s1C9aPRxRECSAZsxU8tL2E3a9jkQ1Ejg4QwopU+IMNpewOE2KQws1WLaAvS2IzG3far1WIgudFNNoKQIaAWhpJZLCxuUQHM80cBM3yBCMwgWGIb3QVmAK/XlqfwXBAHPMtAmTTxe/b714qLp1FcAEcpyiCP+zOb4nQfGCzI+CaaTQHysMhEoz4F8KX4fBdI7piBIAElm3MKm9eO2PairLKHrSVU0gcI8MSsasZ58IQnMYDaGdbsng+X5IOyjjpbV13s+rAbp5pVSFNTrRP2zShCtkExtst94qH0/6k13v/77zQQaOxP7EtFpBDoIwP4gmN7Zgf+vgj/HvDX1PRYkS/ksDOOKibXGXQvVkZO+NIEyIVDwH1aZcNPTKEICKnRtYrf8P2b3CgA16rOyWDa4VG8T3z9OvVtecSGaB+rMp5YRuUWIsjhEYqZ5L2O86SR/wCTmKluBcitUGl9xCOhLoUxFBGwEcO6EOutmrSQU0+poWbIhUFQ/tGwmou+tbAIzVnN1zcbkN8kQF4O5OhXBVnT723dwVKqC989TINwEy3ooNom0U2NqC3tr2e8cCMlfIcJcEI1W72AvDKEIr5Q1AUy0DpIvim60btL5FIpwobRIoQkU5Q8u9Cz0DRVNoPkVruJE8gdEdBaIIkNhcg69AOpr2PeSHwDwDAO3yoG1sfb9dqroo4d5K3lvw7XPY/DnANqpkL4FodfwQzeklnQjWP6g97noT5fN1NahbJnq+4eWgFYQhpa/Hj1LApcyi9dWytPZdX8CQnURnSoEnpn0dQUmQqeQVlOP88Jzy/beOxm4g1JvyEyNnRhLlPwaiC7z81EQ5SsaIZ+4mFkyYz0bYkHbFOO3Onoln7R13/kmoBWEfBPW/eeVQHOHfQQEljJ451L62vwwlNSZg1IVVKrfO5jopr5a84ly91Fo7OBxZNozIXEGEfZKOZUOieNhLjaqp+l5aTL4RTeJGe37RDty0a/uQxMYCgJaQRgK6nrMnBBoWcnj2Uk+zkS7F5NDYuaT89UEz6GR8DpL+pMB6+LFDbQm8z6L804VbVLdlfgckfFdgA8Eo0qlqPhg7uPilD2dVJ5BSC2jxN9711qfWXYI9ae7R/+9JlCMBLSCUIyromVKS8DzO0jarUT4CkAq30DZ7OVUMmDpf4zyapBxZl+18eiy8aX/olFHQm+8gbHJDcnzIehbzFBr5ycyGJrLD1ccDJjMkQwpx0XlW3ll33Pm97U/Qo7A6m4KSmCofpQFnaQerMwIMFNzPHkSiG4E0ZhMlYNNqXS9pPxeAKIEoZeBBPlJcASAKoBHAGSqbLtKD/ES8ygrcp5/PZvM1Wo05nYh6Vc9z5v/LNWXzYI1XJPocVWCo/PBvGeBFAPP5J/KhaGcGxwQvy+BHhCtZ+Ye4UJAYBgxRoJoBAHjADY4pbRkur+UhkeSX4PEKbE9I38vs1+hnk4FEMjzI64CCOopFpzAjCdXV9eM2/F+Ao7I9MvTi1338uuzil//F4C7JGE5Se4nFy6ZcIEIDCNpyiRFpCl2BsujSNDH2cVUEjxKJVYGsxeWn+lLJAi8lKIgBegNFvhZ7zPmL5fNpJJyYmxZ2TeepXUjGIcAPCrTdQvKy6+z5etzzPw2sXgOzPe70vmnGTF6bIokifqTbFR75Z1pY7/FEBELFGFLjGPwXICOI/COqfVVymLoi5ldBm6O1llnLiJdSjo0QH3DkBLQCsKQ4teDhybATE0rk7MhqT2TuPhNaXIZ7wP4nS2sy5bW0uu+mXkb5Zu9XDieLZxn3MFG1b4DnxIk5oExHSR2JmAkg818OkqmEvKoBM5/lbY8a2BFpKPYrQkznuTqqrHJYw3GtSRoB6WV5UeZYlUMQ53OuES0EcyribBcCuvm1in0hGcg8nTCgCW6lZXqVYxi27mAmFtAGKccKMOehHjmC0a/iMgDFk+uiofe7/oGTWAICWgFYQjh66HDE5j1Mu8YtW1lrp0Q9it08EucGH8D5A9jDVUPhZdgyzuYml9BFAnnCCZ8DMBniVQZaR6uKvrk42R989k2rwTzovcpuuieBurJbh75uXv+y1zvJOxzBeEUJgzPufLkZVb0XvjKWuAw6Fmw/INB+LdpRh5dtAetz8XMGlfaRwqJS5n5MAEYYRI5bvYnkQ/31kaOKfeolFzw1n0UDwGtIBTPWmhJAhBojtvfAvjHKa+2wPvXUw78aov/MAw57+Yp0Ze8I4JcXcw0qwvjaoQ9HpZxnjvgngBBUcDzY8jtEUQqIw/7SZb+JuCesaS++uVcTSXrfpjFvJXuMULKHxGoXh3Fh1Xm0skwqCiBYEtp/l2ye6HpJl7u3WvYOzl/CStrQhfqCc4tkvgAEdKjMSWrQ4I+u6RWV39Mt7b674uHQOAHbPGIrCWpVALzVvbsYLjRu0D0CUq9eAOx8HP4q3LMq0DWZ1tr6aVA92XRqDHet6ugyHcg5dEgqDBMi+F77OfqGkzbzCxfRpL/j4ZH/xqbREppGLLLy2tg2HOIcXU+ymv7ViDlHyLfBYnlRLgmNsX0Sy4HPT7IkM6cjsQ+lhB/AGHHMPvP00IJLly+PbLRatFpmDNcAH1bwQnk8nlVcOH1gJVFoKlr4Bhi0UZEY8PMXHmTg+WbUspZ7VOr/ZdJga5ZcW4w4RxjsJwNQfsPGhNydQ7v+VT4KZv7wPTLSJX5i0UT6Y0CTW/zMMo3pNM+AIIuAvgE9RehD+y3IfQmiwGwAcBSYvrdkgbr0ULPs7Fj4FghxC0ARoaxiqTkj0PyzNjU6POFlluPpwlkQkArCJlQ0/cUnICKn3+127mGmM8mLwtvsGvwi5MZV72w0fzB09ML70k+4447jJF7zhjlmIm5ROLilMPboItCjn6DLFmqL2v8K2FbJ962N97O9xf1liswt8M+whS4jcHbq/XJmQKkLAbSSxxlg+g+x0meZVbXvD9UlpIvdHdHd5QTfkpEZwweHwXbid4Zl5rDglidGQt6j26nCQwlgRw9nIZyCnrsSiAwYwVHhln2cwDqwny5qYx2UsqVUkROaK+jIU97O28F726Y9oUgPh4QOzBY5OpLe4u8CeuZcDKZZt6PHE5dsX6sjNTMZ+arvbBRpfbkLmmVZMkDRPRvF/TTtluN32MhyaHe73M77EMMgd8A2FWEy4ahAlGW9dZZc3LuJzHUUPT4ZUlAKwhluazlN6l5Hf2fMgzzUQIHruEzWN+AJV/Z2hC9pGioMNP8uHOESzwbwCkEDMtZLgXfgVEy6F2GvL6qLnJlvuLvZ6zgscPM5PUAHcuCalJmnayeKZuSV/lnJ88T4QaS629d3LB90URqeMqq6d7AJFu8zRgwCaR/zIB33+sxJ947nfqKZj9qQTSBrRDI6sesqWoCBSHATC1x+3YWOMl3Dgu2bb1ExYxE38aNOy2bPjYnIW+5nK960YyIOtMcid8K4h1UymjVfy6+wNWnKgBbEP6ZpJ5jltaOU2f3ObuaunkvuPZfiTCKQob+bU2ILSMTmMWv5YDx3bZ90Rc4d0HOZpe+o3nPJ6YaEVK+BMoAFHRD+sqb4MbW2ujS9KPoFprA0BIItrGHVkY9eoUT+PrbPLzvfXsNVCx90M81dbagMuOAr47VR79bzAiVolAdcS4nlrMItEvYEM6tvnB9B0YJxt/ZxNmtUyJPZ8tBFVmq6UyeAIEfEYlJKpNk0PdjGjk9hQZET7mue1V7Q/SPhfShCM1Flajucu4ThKNDRjRIZvmH1rrIMUU9v9BA9A3lSEArCOW4qmU2p5Zu+/NS8gOpYPpge9YztdM6SHl4KXiNL2C2+rqcTxiEs4lxPMBWLo4dtvD+7ySIy5bUGctAmZ3jeymut9vpQjAvIGD7XFRY8o08np3+DZJ8mSuc+9rqa/5b9FvYqwfifB7E9xGREVTewcyKyaS12637ksrmqS9NoGgJBHvYFq34WrDyJ8DU2OksJOILRYgHccrE/oid6Jt5676jS+ZBrBSFRJe9AMAPQTRMlYYKYzX5qP2g3sBeyULCAJgu7q0zfxHWSS5VPfMXBJyKXEUpqNwUnnD0PAlz9pJaerGU9vMp/+7dJTrM+pMgavBPhgJd/skXieNb68z7A92hG2kCQ0Qg6KYeIvH0sJVO4AvdHN2RHXVe++UwplwJdiH5qlVvRBb+5UhySo3j/Lh9mAQuAPGRYFR5fgkBj7q3asr360f3EuiatbzumnsCOv7NfrF/gmkYCwUwLxfHH1tYNf7LRL+h/75+SezISUOa4CmT/bFgOdckR9jXM6gxTDQDg13J/IO2+ujCTMbV92gChSKgFYRCkdbjZERAvZwihvEbEB0U1Hkv9QLaACFOi9WayzIauAhumv0cj7GizhlgfBvEo3NRy2Aw7S8z3cPDzG+0jadtmvPnvcTTDcf+KYBDfRUlOy1lUy0J0ArBOMfa+Ozji6ZP9yoqltyljhm67TOZoUI8oyH2pyul/F3VxsgcnVWx5Fa9ogTWCkJFLXfpTXZ+Z3K6C75DCDEpqPSp8MbVcPnYUvA/SDev5q7k/qpUMYh2VJEOQV9E27IkeAmLGX+V5Mzd2pn/3DjvZ8G+U4L2SCU3yPh5sdlqQC7Ad8fqIzPTzbsU/r65y/4smJeCaLug65Lan39zHPvkW/YcVvisl6UAVstYFAQy/sEXhfRaiLInMK974DhDituIaFjQyaYSBj3dZ1uHLtubkkHvK+Z2857lHcwq92qGPAlAjf8xn7nEWyRV+huYz43VWcsHveqPYDYnxBNfBImfEzAh22OFwbEAWsPEPxCW1TpUmRAzJ/bRd7as5PHs2n8G0eSgCoLqSTJ3GcDMxfWRZ3Mtk+5PE8gVgSweMbkSQfejCWyFgMrv32Wf5iXLSeUICMLKP+MVi9vqjdNzWrExyOB5bDN7FY+xBtzjQHwdMYZ75YmyUBMGK1wKcKdry3Pb9ow+NAMQ0VfRaDrOVSx5hzCJgD489cGkR8xSCfpPV+LMgXrrmbAOknlEmnXXKgX4a13OYww+JFQKcOb3GHRya731SNZC6A40gTwR0ApCnsDqbnNDoClu/0QQnzOYRChIrwy4THR6a615c5D2pdZmVndir4ikOwlUm22q5pTpX0U5eMWsiMT2gsQtDI5kleDA1w5UlIJD4DsNJ3LWzXvT2lJjHUTe5s7kzyHoTC9hVMDLq8vAck6sIVqyPjIBp6qblTABrSCU8OJVguhNnfadJHBiYPOtVw0AEoQDl9Raz5STBWHL9VaZDAUnL2JJJ4FgZhPlsOkIgLCOmIYz2MxOOVDltUkyYy0BP+u1zWuX7U0by3W/NnYn5wuJX3tRNsF9OKVk9/zWuuhPdcKkct0ZpT8vrSCU/hqW7wy8Iwbnn0SYFlRBSDmAyd6kVVMu/gdbW+DmV3g0kskzQHQJM6pzEOXg5yzK4hqsfwHGqxDim7EphnKuHPICS1lMKe2t8zqT0w3CP0IdMfipKX4Zq4+cnXYA3UATGCICWT0MhkhmPWwFEWjust8DMCa4gsDqyLu7tSFSXxGYVJ2Kl+QCdt0rQDTIaUh+134CIEhIdMPE3Fykdi6FNTyLObqhy+4Po6B5ipSUv4s1RJXTqb40gaIkMCQPkqIkoYUqOgIzVnN1TZ+zgQhGYAXBz1N3b2t95IRKMt02r7SPhsuXAZiWKiBU0PVMZUxOgvBbydb5bfXbzq9QUOEKMFhT3F5DhJ0C71M/adWTrfWRwwognh5CE8iIgFYQMsKmb8o3AfUtekpnorZKiM5UDYZAQ6ac7irSdDunO7GnBXEdmI/wAxyyOy4IBFy96Hxzufr3jejvvSj2sTHrAt5bHs28hEnOo2D+VNDKjoqWJH6tbYo1qZIU2fJY8MqZhVYQKmetS2umzDS3w/mMafCDBDKCvuq8AwZhXBirNX5UWhPOjbSNHRvGCaq6E4SDQYhkm/kwnVS+5YDWM3BDa711Ybr2Zfn3ylem220n8OygSllKqRqI1UdqypKJnlRZENAKQlksY3lO4uRunlMt7baQzl9SEp3WNsWIlbtz3NZWfdpytvYdnrxShXr6BZ8gcr5DmCFVmSXCapa4rLUhUpYhpUG5NXUmf0ECZwVVyDY507771ohlh4zvDzqObqcJFJKAVhAKSVuPFYpAUzx5DgHXBDXbqs69B6/rfinWEL2vkk23XvVF2zmXmC/zDhtyqCT4BZrVsQL6XYNOrF5vPlrpNQVauuyLGVgYXBnzTmWYDGfCkj2qX6/kvRrqoaAbF5SAVhAKilsPFoZAU5d9OTFfGE5BYHZtHNy+V+QfYcYq17ZNcff/CPJ7ALYjyt6SkMqZIAnoBlmzYrV4ttJfbiqb4itd9hmCcF2ojJ8MKcAH3FxnPUdEntalL02gmAhoBaGYVkPLspmAOteNO1cLgW+F+fpVZm8p5L7tU6IrNE71na/Ox+1mAl1FwI7ZMklFK7ziCprfXms9lm1/ZXE/s2iKJ2cRUXsoZVbZuoAj2urMJ7SCUBY7oewmoRWEslvSMpmQ8gyPJ24gYZwWSkEQcMHmfq219EKZkMhuGorjSudy6fL5hiAzu85SRzjMSQmc13ardT0WlncSpEC8FOMu90uA/F0oBQHsuiyPb6+LPljpVphAnHWjghPQCkLBkesBgxJo6ky2k8CcoI5fql9W5+Ikp7XXRTuCjlOu7b7QzdHt2V4ggJ/nMuyRwRJMtnTkyf17Ru4rp+JLGe0FZaXpTHyWDOOhoFEM3l4FXIBmxurM32U0rr5JE8gzAa0g5Bmw7j5zAs1x5zaQPDmUggCsF9L9+OKGqnjmI5f+nTNWcKQm4pxNkn/kVwgIXiQgyOxVISZIHmDg7L56K1bRSoJnQXAOA+GxcAoCS45as1on0B1BmOs2mkChCWgFodDE9XiBCTR32XcCIQo1+V9l70vX/UTb1KquwAOVW0PPfyM5gwQthl+jIfdhjlAlM1VmZVrLcOe11Vc9WG4YA8+HmeZ1OYcaxH8Np4ixTEaseUsn0q2Bx9INNYECEtAKQgFh66HCEWiO278F8GX1+Rv0TgbWOdL9xC0VakG49FIWL81xjjIlfgPi0WHOxIMy3rKdl9ga/CoJmh2rjfw9kz5K/p5NFgR+LKyCICDm3VxnagWh5DdBeU4g8IO3PKevZ1XMBJq7kreB6eRQCgLzBsHyoIo8YlBfsp2JY4UQNxGwfb6VA7V3VDIEAJKZV0khW9prqysvssHjPnC4YRh/DqMgKF8OJjGrtdbURwzF/CCqYNm0glDBi1/UU/eiGOxWCMwN9dBl9ADyoFh9tLOo55cH4ZpXJPcni5cx0eRcOiWmEzWVG0E1+49pWDNvnkIr091TVn/vR4p8CpIfDaOUKSdFF3Jme11UOymW1YYon8loBaF81rK8ZuIVwLFvIOA0IPgZOgMJInnAktroi+UFZNuzmdfZP8kgcQuDDg5TdjhXjFKpgwEhHnTR39I+ZcTbueq76Pvxck0kvkgQ94ZSZnWYY9EvbaULqBWESt8BxTp/39HuaiFEuERJqlqTy/u271k5iZK+2t23m83WHcT8cVXEMYwn/eDy+y947/9IJVdKpWcOtTtSBYhUIuY/95nWV5btQetDdVCijZWvZlNXciaBbhMhwDGzC1hHTqjDEwtJ55Mo0eUva7G1glDWy1vak8so1bLymSPrgFgd/ae0Zx9M+q+/zcP71zpLmPhE9XLP5M3uv9ilerG/QkzbM2FEmBfdlpKmlAR1tn7zSDLOvq6WEsFmUrqtVKrlV1e6LYJ5UZikXgq6QziwfYr1jM6kWLrrX86SawWhnFe3xOfWtNI+n1z+YZiXnnKph4VPxSZbj5f49NOKf8Sf2Zy4i1zI7H6bBJmZWg6I4TLhCSTNU9hI7EuG+CUYe2RljWDuY6LLWmvNH5d9lkDPByHxDZLiGgQNKfUSSTALWFOW1OGVsmeUdjfrBsVIQCsIxbgqWiaPQEuX0wKWNwV+6HqZFL0jhq+0TY3cXdYPXb9WxUVEfCGIqjJRDrxyguo9BVoppXucyh3hKx3JYxl0ExGNCV6d8IObNmVJ2CAlvtM2NfKrct/Sjd2J7xssLglqQUjxwbq+3rF3f2zMunLno+dXmgS0glCa61YRUjd3OMfBkHcRyAg64VSGv/+bUG8tKtdzXc+k3Z1UGSZ/BcbwMBaWDxwHMEsGv5Fg56DbG4at2fLvGjuduQLyRhJUHfSl9+E1UrGPAHoY4pTWOuOhsjWjexE37i8h+GshFDVF34k1RCJB97ZupwkUmoBWEApNXI8XjAAzNb6CA4VtPxUmE6BSEBjye6110SuCDVR6rVo67ENY8GIG6jL0FVBvbnUE3iml+9W2qTVPfRSFppXOAnLlD6ByKijnxQyyNaeUhOelwXPKtsKm56Ro30rAyUGVNZ8/NsTqrdGltwO1xJVCQCsIlbLSpTZPZjplRf9uVRFzlVdJQL2gAlys7OYS18bqrXPK8Yhh9nM8JhK1lxPRxMy+7BUeqH+tcyFnJ+qjD2+tjoKq51BtOucI8EImRDJXRpTjKD3z3vp3Dr93+i59AZax5Jo0d9l/JOCooGuSyh3xUmudVVeO+7TkFlAL/JEEAj10NTtNYCgILFjOVmKE0ycI6ogh0F71Uv8SftNaa80utwfvqat5rNPv3Afmj6fCFQIx+dDaqY/6HiY+tbUuqlJZp71a4s6vmGULCGbQL+QtO1UnDUopMUD3J4U5Z2ktbUg7aIk1aIonu4loj+CKrLIg8N9i9ZHDS2yqWtwKIpDJA6aC8OipDjWB5i57LYDRQR+8ftpf/D1Wbx061LLncvwZK94ePiwy+nKAzgAQCcFjkxi+uZ/eI+ZLYg2RG8PI19SZvJ6ITgXYykRJUAoCAar64zV91eaVy8ZTf5jxi71tczw5AKLA6+JbEOTdrfVRFZ6qL02gKAloBaEol0UL5RHwiuDYz4Noz6AvRO/BK/m91obI9uVEsaUjuQCCfioJNSKgNWXL+SvlgEAOgB/32ubCZXtTMgyfxo4N44SoXgT3pZrxAAAgAElEQVTwCdmEPzJzL4Mb2+rKJ8qksYPHkXDeIQRPMOX5IEheHGuIfDXMOui2mkAhCWgFoZC09VihCTR12w8Q4+jACoLvfofIRiuyaDrZoQcsthtUIaCVzuGG5D8zETJRDlJKk0tE98fqzC9nevTS3METmeRdJOS+XlKmDBQVr/gjYNuSpy9tiKzIVJbiWSZV6tk+yGA8SSoleMAnqnKmdaW8sr0hqkIj9aUJFCWBgNu5KGXXQlUAgaZ4spWI5gV9GaXc89lgObUcKjo2rUxOg8TtxJgc5gU0uDVSNRIkS7pr7Uaz6d7plJWT4NzOgXoT4lYI2j8TJcErDu0fNzznujy3HFJiN7+YOAUGLQ25PlIyn91aZ11f+kpSBTyIKnSKWkGo0IUvlWk3x+2riHB+UO9w/+3DrmSe0VYfvatU5vlRcjY/8/5oDBvexuAvqpdPUCVpS+XAyzwNPMVCNrbWVr2UCx7z4/ZhEvIWEI3PpGpkyoNfEnCnYOu0xQ3Ukwu5hqqPpk5bJay6LFQ4LrNNzLOXNETvHCq59biaQDoCWkFIR0j//dARYBaNXfYZgui6MBn9lPcXk3FBa60o2TS/KoIjOdK5gpnPU8b8sEcLm7/U6Q1mzGxtsJ7I5UI2dyWbwXQDg6OZhD/6TovKL8K4YGOtuGZroZa5lDk/fXllyRcTaK6K8gg6BjOvJ0EnL6m1/hD0Ht1OEyg0Aa0gFJq4Hi8UgcbOxElCiKUEBM44pxQEEGKxusipoQYrksZepsQuW2XluzaLAkzKL/F9gE5urbceyfXUlM9jc5fzLYCvJCCjyAYvZwXDlsCCtjqrrVRN7c3xpErmdVBgK5cKtZHyNenSzPa9Iv/I9dro/jSBXBHQCkKuSOp+8kKgqcP+HIhvF4LGBB3Ary/A/4zVRQ4Oek8xtWvp7P80Q7RDiJ3CWE4G55ByBEwS4WtLaq1Yvl68niITT/6IiFRSqtBHIJ68ytrDvFqymNU21frIjI7FtDYflmXGCh5eY9n/BNAQxpIiwSskrJntddRRzPPTslU2Aa0gVPb6F/3sW7qTBzDjDgLtEVRYP4RMdqG/7xOxEiuEsyDO2yVh/4aBIylEBslNykHKdC+Bmxzq+fbS2nF5TUo0p7tvN4utG8H8hUzCHweLFjHzQxSNzI5NopIqXNTUndgLLh4gIcYH9RFJzflvjmuffMuew94Iuq91O02g0AS0glBo4nq8UARO7h7Yo8oVd5CgjwV9AKeKOr4OwvGxush/Qg04hI1nMBs1XbaqotiYUYSAX8xS3foXg5NzF3+oAFO+ptb8Cjew7T4smHdRyRZCrJNvRPDqEnjelP8vVmt9E0QyX7Lmut+5XfZnTealINou6Lz9gmK4v3etefKyQ8orYVSu+er+hpaAVhCGlr8ePQ2B2at4TGTA/g2IPhPiAayS0KwFicZYvflAqUBu6rTPFwJXMhDaXJ8KZ1Sv2VUjhTX1ulpKFHLes17euGPUjrwKIJpJpkU/+ERFn8hzWxuqlO9FSVyNcadJQF5LRCODCizBDiRirQ2R04Leo9tpAkNBQCsIQ0FdjxmYwBF/ZnPirnY7JGaSIBH0Rpbc6xLOaa+P/DroPUPWTjn8dQ58CsJoA7CbFzoY8pfp1aAA3iGIllid8WAgvwMVRJDuIlImifQXM7V02acy0dVgHh1+Bl6ObKUkrHZJzGmvt/6WftAhbqHWbaVzPktcLsJFMLgMuqS13rpqiGegh9cEtkkg/QNCA9QEhphAY9y+SoC/TUSqaFOgiwGXCZdNnGJevrDITdZenQVz9L0gfCqTF+ugiV6y/K6JnhtldDu7t/cdMxLdXvSaEDUCZL7ZI4zdRwh3AyIOBqKCyTIMMklASBskDTIBy2Nrsi2lTEqXLbaqIjY7sB0gkQQSI6vgRiS4X4JtB3JUAtIZgIyOgvte//qaSNWw7wF8dob5EXynRaJHosPNExbtkl1Sp0AbJYtGza9wFRL2zyDo9KDWLTWcF4bLPKu1IXpHFsPrWzWBvBPQCkLeEesBsiXQEk82MbA4VCIa9RwG3yr7rdPb96PebGXI1/2XXspi1Rz7ejBOS0UChB4qlXjIO8xXfo0qwYDKguwd63tH++r1pY75vT+pA39lo1CN/HvU/3rNfWOB31r9V/9PiqR/o8okLFXFgVQ7VX0g1YlqwN7fqGJZXkxDmJfmlpP2X6D41cTbrDMXLixefwRVetuK2suEKvMc3OTjGXu4ytq3dQK9EHqx9Q2aQAEJaAWhgLD1UJkRaOq0DyWSf/Uj6QJmu1clhhlPJWng+NvqR76b2chZ3uW9kf038wLAxBuwBtajWhgYL8mdQFKOAlEtmC/KJGJhULrUGYCXw9h7oQ++5jf/KQ+/c0/N+MDxg59EOWU78HWQjK7NCg9fAaJuhuhxIV8XhrWqugYbsTPsnb8P11MeBhlnNFJ2N53S2btLlbD+QozaoAqCTwj9I8gcW2g/kexmq++uRAIZ/oQrEZWe81AROL6TR4wle13IMDqWwJsOmQctraXX8yo7M10KkDrK8DIgjsOwZH9ie0uIwyDkgWBjIsARYmkyRITA24FoB4BqADa9z/6gik9eJ1I8nQ8qCaoCJYP7CfwuQO9AygEWwiEmBwa9JqV8goT8mx2JrrV70KuqVKr8DAvVizio/0Qm02am+a+gTtr2s0QUDdqFn8SL/hWrNQ/Oq3xBBdLtNIFtENAKgt4eJUGgKZ5cQcDUkMcM0pX88fZ66+mcPIyZaQYgqp57q8qQUQvW6KrEsOToqGPUspRfUqZmCUzw3k2+oUOF60lfZlbZkvXvLRe7TZnoidQ5vjrTIGYWvvXEO+Z4k4TxoHSdu2Q02m0S1kck+lEN+/2dkVim1iRHisO8LudEA3KZV6Qp4OWFODJ+Hqu3zg14i26mCQwZAf3AGjL0euDgBFRaX/t6AhYgzMOYmV3Qt9vrrWuCjzXYkukL3YgMr8Kw6j57igD2A2iEhBxJoKkEHOQXK1JlErxzfaUIqD945yCBj0LCC6bv+GgCg8cdUr2BN720/fwKrzPz3xnoIJg9BHcDXDwfGW2tjPai57opSGaiNDTFk78k4OthHEv9LJ9yRqwu+ju9kJpAsRPQCkKxr5CWzyPQGHdOFsS3hkk9nHKve6C11jwu7QtAhay9iig5GCHd5JEgzAOJ7UhyhIGxRLQLgy1lGBCkPlpVj6m0QHqNipeAclVNWQxSSaSUrDbAa4iwFqAkM9ZB0J1OX/IPybHV7y3bDQNB9ktTl/28IJoatAbDYOntXsMat2wPWl+80LRkmoD+ytF7oIQIzOl+b2REjnxPReEFdFNUs5OSeeOqOmvcX4gcf7pMMxjCeg0j0Tsw0hRiFIA6QeJiEPZhdSIAUqWIPU/+lG+AVqRLaK+EEFXFZ3j/EJNkSINJqDOLlyXwQwg8za67joZXbZi0K9YvBNxBp9PZz2N0pMpRzq+BM0em/Co6V62x9v3LkYP7MYS0uqkmUGAC+sFXYOB6uMwITFvO1j4j7BXK6z+oQ9+m7IIuDrLtvpet6mEHsov9BMnRTOJAMA4GeBiRigwcjBL05NO/i8yWqaTvSkUYeAGbcnMSqSSAfzHzUzDEOhdmF9l4AmbiABPi96mjjED7xYsjJbqrt9acWbrlrUt6ibXwIQkE2tgh+9TNNYGcE5hxBxs1+zu3C+DEoCZdz17gebKJVyDdBBGNBdFYZjaVkqEUA60M5Hypyq1DPztE6t9QxxEqooKoWmW9DON/4MVkMl0WqzMXpj3CKDeKej4lSUArCCW5bBUoNLNo7EpeQqBLw5TVHawW6FkddBBBBW6c4pkyM5KAbIrVR28vHqm0JJrA1gloBUHvjpIh0NiZOMkQohVATckIrQXVBDwLhFeNajVLmtXaYD2hoWgCpUBAKwilsEpaRo9AY4d9sBB8GxFN0Eg0gVIioIIpGHjaTjgn37pv9culJLuWtXIJaAWhcte++GfOTMpb3LLsyQJyZzaM85hxmCAELtpU/JPMgYSDnhT+/6YqKgz2uzn/8qAj5rZH3LZbhpeKKOW4oQIIt/Tn9B8mH/xvOZhdWXSRimBgIvonXPdKl8QbA4718p7LsK6Y602UBXw9iYwJaAUhY3T6xrwQSOUjsKVzqOny8ZA8kYg+BWDkYFWhoFEMeZGvgJ0OetX7VZe8QDyVM1CpAIaK7VfhmGC4RFAhnK4EuwRyAe71YvsJ6wFaD+YeAvogxICQMiHBSZCwvXwADFuVrfCmRXD9d7yvgHmchYxAwpIMi0BRGKgCo5qAYQwaDsIIYh4ugVEEGkHEBtirumkQwWCoP7PhlWjwC0e5qRgRPwOi7xpSEc+hQX8YBVuAekB4jIBXpIv7xw43H/9ZkPwLBdx/eihNoCJ+mHqZS4DApSxmz8cosDzHcHiB4cooiEZ6FQIzLvtTAvPeuohS+tWP3ieIDbYhVwkgLiQ6hHRXJCReYtcdMKuHMXo3wqwZzpZSF5SmUAPpOuuk7UiZHDVWjlj7Ltmjt5PrJNjphbsqAa4eAE+eBrnMLx601WsGQC8/DdFf9QJN2GsvMt+AUbUWAjsAibXv0ghDkLVRCMMaLfosiBFK6xAbCRgOh/z/5WSfYZrWjgyeKkg0SMl1AE0mYHcm3l6pCGESYJX0qm4h/KDCwEQbwJxgplabzKtvq8NaFHmJ8nJZAz2PbRPQCoLeIUNGYMYKjlRFknuY0qhjcAuIj/O+loXw0heXmqXA80PzQyv9usuZ51PwSwITP9iXjJyoChD5X/YsLgWQ90JE+dgRfl4BVcuCBnMANL/CVZxI3kVEnwtZiOsDEm5KdrTZEFFSz7VN+RekdCV51pdHGHy9zXgpGo10xSbRQD6WRPepCaQjUFI/pHST0X9fAgSYad5bqDHW27NB+BQzphFRnXeyvdlUUNT7crPpP1Ve2at87JVmUpn2BlScPAM7EVFVhkqCBPjFhOkee+vk6lUlsKoZizivs3+SQcaDqQRYgYseDQ6YOtvfSAJrIWkMgCqvQqanYW6Oay2R+hiD/iO+JQj8qoD4B0E+ZZPVunQKenT+hIy3mr4xAwJF/SDOYD76liImMGMFDx8Wcb4G5gsBqgYhUgqWAj9CTR12+FWZVKI9lYeZiTaC5XsEcT9FzMV2z1srq7ffkQd63M8LyDu9LHshf2HKzYCIki7jM+311t+KeDlzJlpj3P6MAB5QL/aMjpOYpSQ6MjrcXN7/zltkVO9Yy3BPJ5afV8mxpJTDUpmzVSEtv6aWVweyuK1UmzM7clKy8hfhnztG5MdLa2lDzuDrjjSBbRAI+fjSLDWBEAR8h8NRMukeLNTDWtBprL7wUkWOMvy6DiFAuKapr1GvGJO6U0qWENSjcvMz+A2QGGDi98HiHlMajy1uoJ5NI/hz4lM6e3epgvUECBPCJmdKje8KIX69MWGcv2xv2hhuBqXZen4nj5CGew0xNzPgZbkMPBNfe5OqUmMykTzqtn2Gv5XaX5t8K+Z088gInIMh+URJNJaAKIh3AWMKSRrGxEYqq6Z3jFNsCbX8omOeRqrUVJsJ7WBxb3Jj35O3TRvxnrYqBN4tumFIAsF/iCE71s0rm4CyFtRYzukCOIqBwwGuSVl8i2LPbTom8K0Dklkqj3uXiRKC8BiI72eX32XiHmmg+/XV0VfTFdj5QjdHd5DJS4npPAgK96JTColyXmB+i6Ly4Nik6lcraQe1xHkyw34SwA5hrQipqp0qGuPKqh7zykXTSUVobPXy0nZ/LDHRILPOddwRAI1j8HFE4nDBHGVSJbtV8SYYWziSDPm+TYWXeiUdQGqO/BhAj/duMK9dNl1Xh6yk30uh5jrkm75QE9XjFIaAcjysiTiXgPki71SeIIrlk2zQQuB9cUlllfa8HhIu84uAuKCtznxksFqfRytlSQhKrvkl3geOrfrYLtRXsJ/qXzklShJ0bGyK9VDQMcupXdOLA8eQKX4PVkaccHmxldMGAWuY5Odba6MvhOIyWJiJiC9lFi914wuCnSsEcy0IURWPyUTKP6KoImq8OfvHKwLMN1T1WN9eNA39YfdtKFa6cUUR0ApCRS13fiZ7BLM56SXnIHb4ICK6EISxrEK9/RDF/AyaQa++goB3AH7IlfS8K8zYbfWkSvZ6h9LZPFgXLGcrOTx5LwR9NlXhL7CEqXA3Zcn45ZKGyDcC31iGDZviyesI+Hpq44TaPMoCw0Lc3/+MccKymSofRIbXFnthxr97th9WUzWfCR8H+CihQm+L6PJcYlRlcrAKcu1j8FXM4u+jDPPJ62opUUSialFKkECoH2AJzk+LnE8CzPTV/2JXu9e+hogPBtNuW2S9Kbq95b2IJcdB1pdj9dSZSzQt8eSZknCt8nwLZT3wtQNV6O85x+EZt+xdtTKXcpVaX80vDtTCEHeAsC9xOCfPzT4kxteW1Bm/yuXc58T5KBPJWwSJnXLZbw778iIgvJxawNtE9A+QecGSKejIRvHNoXy6qxIkUHQP8RJkWHkiM9Mp8b6dq2BeC1Lll5VPv2crKIX9tJ6JTovVmstytXCnvsh7uyL5MAmxQ5hS1J7hwtMPOOkaOKt9SuTXuZKplPtp7EqeLhi/AFEk7J5iz5UDb0HIz4Y+atgaNGbRFLfPJMLPyD9qKOordfQweDDyxwFXnvHmm1Wvp/OhKepJaeGGhEApPNCHBIwe9H8JqPPZVV32NLA8AiQuJMJITzMorGKQihVPZSMKmVCJmZUl+ier3ohclIsH5ozVXD2s3/4pM04TfpKbwFcqwY+yajzc60SO35QQKXAP5dnQ82Mxk7/PJIFS6ivaBePXfcOsby0bT/3ZUlLyDLPsVhCdHGavD2ZKVMmxt0jKULBnbipxl9rx/RD0U5fxx4E686nBRFXZctH3lz+Bgm3W8kdZ3jP0HtpR+4eQfAKBJmaZKTAUrE0PWhXoBalS/Q9IyLuJaDhJPkbl/A+qo6T6+mdkhPXpRbtQXyhBPtxYhXF29H8chvkgEY1K1TAK3KX62gXL/wqOfGJxA60JfGMFNJz7Ku9sJu3HCTQpI6sMsE4SjmmbYv49WxO7F4ZJyThI7BRUQfCjLz2D/48heCy7NJuErFaulEql9nNtFszi5jkogPG6ytL4trDOeFD7J1TAryj7KWoFIXuGZd3DgjVc07/BPUYIbiVGVD33CuV5OOi8ByIHrvs+k1gt4X6nvaH6UeVU2NyZ/DIEloFE8IetqkzE7ErHndy+V/XqbF4eM5gjw7qdv4I958xQvyU/Vg02AQuW1Eday3oTZTi5eS8mTjENinEGRw1eyCjw9EhhHZaVsx4zNXW4XySTf+8VoAo4F88fQrIrbGfykr2rX1f7rPll/qR0nB8L150AIcYwyPIiaQqkKPj6iqebqKRLZwm2bv9ALo+Ac9PNKodA0P1eOUT0TD0C3nHCy+4JcORMACchdfaa94eZf3KgChVJgNYSyd+B6FUb5g0fziCnvuxcsl9LeZYHPhtWToEs6XutDdYV2Sx3S5d9MTMvVF+4YfQDL4MPe46JD7tmpLF9Cr2djRzlem9Ld8/24KqbmPnYsGf/vn4AFQJ4RVudeanv6Z/Z1dxl3wPgmDAFpfw9hn+0NkQO+fCoC5avqbFHbXc6SzEFjBOZeDsiL+on1D7KZDab04R7Lgr3wZV3RPeM3LHIy6ugL03ggwS0gqB3xAcJMNOsLoyLkP0DSDqZiEfl2wExFX6o7K3Kv0p94jzNEN8nYbzWNwXdyyhVrOjDa6W+7rrcW4nkzDChhb5pH2/E6szxmVoQmruS+4PFXQS5+6DyFHQrKc2A1FecdL8Ua6iqyJwHQVnNj9uHueBHiVSGxdBWGsmE/xrSOnFxAy0POubmdkzzX8POst9+OazDpPJ1kRLfbGuwfrm1PeYd21GyVkTEblLiIgIf4mWATmVzzKcyPnhsxwxVx+KegSrr/NvH441Mfw/h2eo7SoGAVhBKYZUKJOO8Z3kYD3P2MyXfB8YodZgg8mj+HDynlUCCmNfAMB7tTRjf8lIMB8lLoAo/vZA41rTE3QhR98BLSgS4Ejgyk3oHC5itZNy+GoSzwypPg1+2LPCr1trI1wu0tCU9TEuXfTmDL0g5+gV+Zm1KjAVc/7awzs3k3L05njwNwI1h1jn18h2AnZwc23v4m2nhp/b6F7q7ozvyhJ8z8Bli7AxCddg5px3rQw38BFNKnYEk0zpOOHhCHzuEpVi+7QP/2MoXgZ6ZItAS758syboYLE8RRNGwjmFBKaZMnJ6ZgMDrmPluNsx/O1jXvrR2bE9YU/CsOG8X5eRyEO0exg/Ai2YAftZaHzkvqOyD7ZrjyQPB9HsIBHZa22IMdTz+3HsjrEPvzdZJMqzgpdreDzN8igjTQx81+GGk7wL0lVi99XgYBGd1c3SD6ywVAl8O83vw/B+IHjakeVL4ly3T/E4Ml7DngHAAg04U4DHKsuBlcsyHwu5VevAyLqmy4vfYgr+/tDb6YhhWum15EtAKQnmua/BZMVNjPPkVA/QTJlaJjlQe+pzviy2+5iSBNzLTua4jH6sZiK5ZND3zaILj1nDNuB77RiKaE+YhnvrKezJhWV+5bTK9FRiYco7sdv4C4LAwZ9Kqf3Xqy4w+QMxvbTDvCDymbojmjoHjQMYSEI8NowimuEsp6Nm2Kea0MCb05niigYmWEWivMC9mdYQlge9PqjWvWEgkM10+FUJbM4Bd4CY/AaKfgzAmlYY6XDKugAIMOgUzeA2BrorVWcpykrH8AYfVzYqYQM5fBEU8Vy3ahwjMXsVjrAHn2wR5DkDRlBk1p5y2sBj0SuaXCXRfdKO5cNE0OGEe1tsSqrkzeQaAX5Agr3x0kMtzdpDyTTLE7FitpV74ga7mbmc+WC5SRxphXhrei0o5rjHfQ5FIS2wSrQs0oG7kEfAUwQ32IhBmhw2x3RQNI3BubIqlEjAFclhs7kzMIKLFIBoedBlSivB7INncWld1f9D70rVTTsMvdzsXCClPIiEmgXlEmGOPdP0P/n0qj4QyWDhE+JVhJC+/afLw4Ap00IF0u5IgoBWEklim3As594X+TxqGeR4JHJtr0+WgpzSpBPHMLjEvE4bxgD3CuLt9J+rN9WyaX+ID4djLmGj3MD4TqRTHF8XqIj8K8tJo7uifyELcA6a9hRdZGfzyjAcEyS59sm2q9VTwOwvUcrBg0eBwAV+iBZLOG6alm/dkaT8NIBrWiqA0M2KslCyPbZta1ZVO7lRSMPXVfmYYi5rn3sLosIX1+aW1pPIO5PRasJxrEqPcY8E4GiznEJGZj/Lpg4o9Mz/KED9tqzMeCvIbyelkdWdDTiDUQ27IpdUC5ICAlz/gJBB+BtDOuf4KGcwOqMrlulI+wmbkPPTilfb9cq8YDMJQZZZ3lPbjIJoWxuzvl1emx1ZsND/3dJoSwZdeyuLV2c45BFxFBCvMQmz6ggVdHaszLxzqB616+SnT94Lly61+a1rEMDDCsZxaAdpOwFUVj96RptmNXvSuXouEyjg5eE+YeeejbXNn8hsqK2AmSq2U7IDpyhW95uVp1/vPbK7aOdkNISaEsRT57n58e6whMjef63zccq7Zrio5kU3xQyL+gipRDT/hec6e6ZsiHUDvCdB5S+qMtnzOKR/7RfeZHYGcbabsxNB3F4LA/M53RrgYdZIAFkmCkcug60HFgJneJ7gvSiG+0VYbeaYQ81JjzOtMnG8Q/TCU+VklTQI4kXQm3L5PzeptyTqnu283U5p/JKKGMC8M1aeyVBAj/soaa99cpHcOz5TpuOWo3m4UGiSc7QAcClcuANGOgyn9Bvv0agOm/p9NdnjGaoB/TVL8Qxj8toxY8dgkJMI6lIaX+3/vmMFsDIvbj0Dgk2FCW1ProF7fq11HHpWuKFZLl3Msg38fRuHcdIZP8vhcHi+k4zarO7FXlMUvmbEPgcfkXOn3ql17mTvOTSat1lv3pffTyaT/vjwIaAWhPNYx7Szmvsg7m4Z9MYCvqca5+tLYZIpUqYcId0oSS/urjUdykQM/7aS2aDD7xf4JEcPoRqh4eU96KQWub621zt7qC0/lW1jp/JgYyoIQOCGT/1Ly/tlAwDlLaq1Yob/AZjzJ1cO2c85kyfsKIY6WUo4TKpteKt2vtxe27hnvF/wh8o0tnhc9vcngh0F4mixrUWwSDYRZp6zbKifRLvdLACt/hO3CK2sqkSbf0VofmbV1WZia487jIBwcZr19H1T6b1+NWVfo/T/jydXVNdvt/GliOQNEs5nZVMaEsHy2xsSfGyAktzskv9/eUP1K1mupOyh6AlpBKPolyl5A5Q1d3e/cQcxHE8jwnxtZXqmvby+5EeNlYmoebppPZ5XWNkuRWrrtB6Tko8NYRlJOZXZfjTV6aw/1r67kabZrPwkiK5yPgxdip56sf+2zrBOW7UHrs5xi4NtVGujqlc5l5FsKhgGw1Os9jPwfNZifycorKZxkQh8RXRtZb16xKM0RTWDBAzRUVoSabuduML4YNlWxlwNDpdom8aX2evOBjxpuTkdiH0vQM35ET/DfildJUuKnrQ3WtwNMIy9NVPKlaqN/mhDmEgZNAUGQr+RlPZ639qo0OegJOdL8Yj78ibIWUneQUwLZ75qciqM7yzWB2S8O1EZMsQjA4blKuuKX1PXqv3SC6A+r6szv/kXVSxjiq7nTmcEkbxMhijd5X/lqLoY4NTbFjH14CjNWvD18mDnqFgihnDkD5+L3+k3l44dFR7fuYT1SCDynruax7kDiUJbiWiLsnqs1/7DsH0zZi5UsxLnCMv5WqOiMlheTB7DAo0wYGUYh9BaFoKo9PhExzeMXfVhpU9aibuciSL5MlfgI8YD0Q1hN8+DYZKwotKXof/YWs2jsdn4omI9mxlQhvDLVoaxfH7VfB8OVifk5MjB7ic6XUIif9ZCNEWL/D5mMesm4/YEAACAASURBVOAMCSivbyntGwh8WKiCRh8x3qDDkheZALAArrVZ/uqWhqp4huLl/LbGeN+uAsZfQWJSqC8/pSAAdyBiqfDDD5jM58WdLwqWrYKwXdj0EF48vJRL2xqijTmf7Ed02NyR2AcClwF0vF9fONQLLlMRU8ZnUhmkf0cOf3/J3oVJstMcty8E+AcZnLmrNFkbicRpS+rN32w58cbXeRz12rcTcFQYfJ5hQuIJZuuEtqn0XqYwc31fY8dAnSD6KoBv+ZXZ4QVlhPl9fITy4ZlhiOhpV2BBIX2Ncs1H97dtAlpBKNMdMm05W3uPsP9MwMFhs8995NeiX/yGmcSqmqgx7d1/YMOymeQWEz4vsUyv/f+I0Bzu4e493Tuli5nte0ZXDM7Jy6Qn7TYAM8J9THrmA8mS34lErPr/+UrNNTRVP+NF58iIxQ8KwPTSThf48lL2esfU5LBhHtI6hVQ4Yl6vGSt4eNR0/mwQTwu7Pn7YKT1MlvmlLZXC5rj9SQC/IcLOoYT3MnPSDybcal62cGFxJRfycig891a1UTXu3wBPSSmP2SkJ3sPAsyTG3zasj2WSxjoUX914SAhoBWFIsOd30MY470qwlbnc+wrKZpE3mRSJ1pGUv3Y5cnVbA9YOuQl1KwibO5PzQbiW/HP3MFcCTKcvqTc3lV72UioDT3ix5iHOon1NCgkiXL6x1rxqGeVPkVIVLW3D+T9DelUlrSyXOwyvj2zrF8JiWwLn9dtWzKurka/rUhbNs+xmAq5jQdVhvoo37WspvxRriN7n7WflALnS+Q6kvNJ3Pwh2+UdJeM8wqXHxFPPBYHcVuBUzzX4NoyMDzvkMXgBgTC6cGFPOi09bbM28qYG042KBlzXfwwX+EeRbEN1/bgjMW8k7GNJWceKzPWtiyBfbllL4Ttle1rk/EeGnS2qtP+RGyvz14plUhfgDiELFr3uJdED3xOrML6s5H/FnNifuYj8PoD7sS9fviztg8gmxPaq68zdboLEr+XNiaiHCCOWMFvYYJB+y+S9frCeB62O11kX5GGOwT8/not95AMwHhrWUqXUSEK+JGuOAm8fTWtVnczz5HAh7hwHpx8JwV6+18ePL9hhbMEfUTLk2ddifI4FzQPy5rHMnpJyVBehut8Y8q208/TdTufR9xUdAKwjFtyZZSdTYkbhQCLo823PGVN0Al0jcH+kxZhTSSz0rACrjXkfid9IQxwvACNpXKhwRER7YYVHdiPfmr7TnS4lFYc+3NyWXMejbrVOsa4KOH7adMhu/2pW4gUh8NV+OiGFl+oBy6Uc7MBn0k933MC/IpiZBOjmaOhJfIUMoX4KwUQcq0ycM0EW715k/ejXuHEwCj4XqJ1XoiJmvbG2IqjDi0riYaX6XbHWlM4uEimzK3NDoHS9JFQbL17TWR84vVutiaSxMcUmpFYTiWo+spGmMJ74smO703JAy/MH7RgOSkjkuCDcuqYtcm5VQQ3BzY6d9pCB+JGyyB89iwljc6yQvHmZF7gLw8bAcvdyM4E6rx9ovX0qVl9tgnHMOwJcwUTTb0MV8LJHyRvACBgj9kHzRCMO6IZ8hsM1xW9U9ONoL6ws3IWVIWAHTOglu8jowfS7kmqslH3CEte8tU2hluKGHvnVLV7KFXZwHgxrAHNaVY9MEUuGjatHPaJ0aUVFT+ioDAiF/S2Uw4zKdQlOXfTgx38XAmKx+5eoMGehwgDl71FnP5/PLL19LcQSzObHL/hcR7RsytEvpCD0SuEgQ/YiAmjAyDmbSI0mfXDLVejLMvWHaNnY5xwrmGAhjszlCCjNmpm29r0vgHQZmtNaaKh12oEJJYcdreiGxF1niETDvEO4Fr7Jp0gARboTkrxORSqMd+Lnoh3BsPpoKK/dQt/csUS8mp5JFbWB8LJscaqmjpV5izIg1WA8N9dz0+NkTCPxDyH4o3UO+CMxb2bOD4UZvlYRPG1kcQrNkG8C/Yg2RQ/Mla6H6be5KngXGz8OcS6de8P5vIoNsUv798s7IiEjzol0yL2G9LUaqWE9yhPM2EapDKj+FQv8/4/gvUfFW73tvTF52yPj+fAji1eNw7R9C0FkU4mhJyZIqsKRs7F5O4TBKl1eMjOQXYrXRP+VL+ckHr4/qs7nL/hMkHw5BZhgGW/bl56HCk5awTrkpD8WqCsVCj+MT0ApCGeyE5s7kN0FQdQgimfywU9bgfmYsNti6cHED9ZQ6lqZu3kNI569M2DkME+8rCAwRUtFSR7AEvA/IU2P10bvzwW/2c+vGRKqqW8F0bLY+JvmQb2t9ptI0q/SLt8uR1mn5ysDXGE8eJMB3MsRuImS20MHET2H3Cpj/Ldg6fnEDrSkk03yMpcJGayLOpST5axBUE4bFoDxbFCa7JFZvXZkPOXWfhSOgFYTCsc7LSKd08i5VsJXn9dhwplVfnMHUuSD+Xp8Rua6Q6YDzAiTV6Zzu90Za7ogbQDgljBUhE5n8LPUkJeHhquHmifmyHsyLO6cZJH/OoOpi9DvYFjtP6yK5kWGc3lpn3pYJ53T3LFjOVmK4/RMiOivlcpfX5xszVB6QX7y6xvzO0BThSkck/N97Bd1o9AKAf5xpGKRXuANYTyYfHtsjqiKB9FWiBPL6AypRJiUjtsq7Ptx07mGBz5L30RtO9EHLAUDfj9WaPyl1E+mHZ98cT57mHTMICuVLEI6ir2QRy4SU7qfbptY8Ffb+IO1nPb9xx0gkcicRHZrJl12QMfLdRnFiyIfhRmbnK9tgYwePE2SvyvQLOCiDVPDCehZ0cmut9ceg95VEO2Y6tcv+mmT8OGx+iU3zU4mjGP8ZYViH5NM5tSR4lrCQIV8pJTzTMhS9Oe6cAJZLETJJzKDlgMD9gujH5jDz6nx99Q4l9nkr+nY3IubjAI3P50tVpWFk4KbW+sjp+ZpvczxxCkjcEioEL1/CZNivXwYBCUh5ypKG6O8z7CbtbS0dyTNZeMmy8vZ8S5XwfnZjz8Yjl00v/twHaaF9qIGXlbTP+SYxX6yUhPAWK8+zY4ANcXrrFFNlI9VXCRLI2w+oBFmUlMgLlq8dZY8YvoiBk0Kb0P3PH0kQi6tt45zr85ntboipntpl/9xhPtuP/My9MP4RDf7L0jyqbSp15X4Ev8emuPMSEYeqMZEvWbLp18u0KPnpWEPkoGz62da9qrS5Zdr3S8b+GUf0bGuA1O/HlfL89qlVect1kS8+Qfud9ywPE9X2lQQ6M5MQSF+JogcG0N9yW/3Id4OOq9sVD4E8PDKLZ3LlLIlyyCLw3SCxUyjtPvVwY6I/tdZZny9nRmpuLXGezLBfAFE0H1YEz4sd+EVvnXXBMqJkPng2diZOEoTfZFtwKx+yhe0zlXUQMKxPx2rpL2HvD9SemRrjyfMNosuZSFXgzOlzznfEw0asMXeIHfnB4l6B5CuxRs1d9m/B/CUiCpx4TE0xtdbrQPSlWL31eIlNW4uroxhKdA8wU0uX830GXxL2uziVIfF5CfeE9obqisid3tJlK3O2Ktec0yJGvq6FN+DyV2J7Rv6el92k6g3Mdu4F4fNhw/fyIk8OOvVTUePOWH1kZg66+8guUoqhCj2cmGsFIZVK++pYffS7+ZK/mPptWcnj2XV+y+DpYS0y/vEb/aK1zjy33HycimmN8iVLTjXrfAmp+/1fAs3xxOsgsUuYh19Ko+9zDXxt8hRraSkmQcpkLzR320ewyw8L4RVdys01aIlhtK56w1qQLy/2pm7eC679ABHGh1UGczPR3PeSqg/9ihu1PtM+MU8FflThpS7newB/L/QR3DamnCry9K4QOHpJbeTfuadThD0yU1Nn8kQiWgJBw0M9c/xqTj2tDZFRRTgzLVIaAlpBKLUton6sXc6nCfzHsA8+r2I96JFYvfW5Upt2NvKe0tm7SxVFbgfhsDAPt22N6ec94J5+IQ/4TW3VS9nIt617W7oSs5jpRhCNyJXs+ZI1cL9eXl6sZciW1oaqewLfF7LhpZeyWDXHeQPA9rli51eJ5nsT0UjzrRPo/ZAilXTz5s7EHRD0FZUmJIxDj2dFYJ7VWh9Zpq0IpbUFtIJQWuvlSdscT/4/AGeEURBSIY3vMsmDW/P4QitGnDOYjZou5yKAVQrlSC5kTDlg/WhJnXlRvh56M+5gY9h+yYtB4pJyOV4YZM/MNpguitXnN7y2Oe7MY8jWUG+0bVkQGAMk3W8vmVr1y1zso1Lqo3E170q99pNhrVnKMZWJ72ytjZxcSvPVsubYeUcDLQyB5s7kKhK0W5gzdfVCA7M6N72gMFIW1yjzOpPTDYIqAz0m269J73SBeZVk+fm2qVV5i1xQme2GRd2biFmd1ZebMq8+xm9CxDo7Nil/jn5zX+WdjaRzN/nloLNimMp98K4Ttfa7ZSIpy0RlXerYpjP5HRJ0BYgC+/P4eUKwBhFzSj7XurIWozCzzeoHUxgR9ShbEpi7cmCK5YqnmGhcmBedy/wuM77Q3hBZXqlEm+OJ+wnCq/iXDQMp4QiB6ze+++Z381VbQMmnkv6QsH8vgENDZn7OZnqFu1fyo1XV1kk35NFUr4oRvdblfEeCFwrAypSjV2GKWUqia9pqze/ky2pUOPiZjdTcldwfzPcRiV1D9MBS8vumgc/cXBt5JsR9uukQE9AKwhAvQNjhm+L9RxGM34JoVNDF8xyrpHxYmsl57VNGvB12zHJpP68rMdVgekHlRMj0e9xnye8R0Yn5Dt1qjPOuAvZfiWhSGVoQVAjIc7ASn49NGv5mPveYqssBmXxckNgxjNVtS5lSNQY2SDh7tdXX/Def8hZz36eu5rFOn9NKhGOCf6B49ssesJgTm2reW8zz07J9kEDQd4zmViQEmlc6p8CRN4dJH8zELjMWtdZaZ4JIlXOuzEuZSFc6v4P0Yroz2vupsK0/TKwzj813FIiXCdI0/0OCRpebgpAqDbxG2uYh7XvTa/ndkEzNcedygC/wXmoZLL3vjC+ub603z8yvrMXeO1NT3L5GgM4CIXhUEPNGKfDN1trIzcU+Qy3fZgIZPSQ1wKEjMK+j/zRBxs+EoGFBpWBGkgmXtdZZVwS9pxzbKQf05njiOIK4LZWrP9Q0B2tX2EkcsXTvyL9C3ZxB43mdPMkgu4NA0UwtHhkMW6hb1JH+Ojfp7N++d02eFQRg9nM8JhK1O0C0Q/Av380omHmdBD7fVh/5Z6EAFes4jfHkmQRcE8bhl5kHGLiwtT7ys2Kdl5brfwloBaHEdkVz18BZgPFDAgIXIGLmBBG+saQu8qsSm27OxZ3fybtI4dwK4PCwLwo/Oo9vb62PzM65YB/uUGUD7EStIZwXQn2p5V2wHA1AUJ/kGw3H2efmPatX5ajXrXfjKYfJiyHEwtDr7iUFxB+JzHlLaumdvMta5AO0xJ2TVWQIEf1/9s4ESo6q6uP/+6qqe5YkkEjYt5DM9AQCqCCLyyeoiBu4QFgSkumwiuICoqCyCiiIigiKBki6JwuBUVn0EwSU8ImAsigQyCxZAVkMBMhktq6qd7/zqnuSiAmp6r1nbnMOOSd59d59v1vLfe/dJR5WVAYyPuOSeQnnB2GvkXaVJyAGQuV1EEmCWR2ZM1nhR4TwFQq15owmnDMvETPhkSP6l1zKe4LcX5OiA6KCMF80JvpNusmeWnInNfNBWzo4CZZ6loicqLJWfXtjIGjuyfj+fgvLZCC0dnn3EfijUU+XciXRl3vK+eyCJnqu6tmWWEATOgroG6MYCAAPatBF6WbnhyUWT7ovIgExEIoIsxxdtXZkZgG4LtoRA7sAXZ1KON8th4zVPEZrt3cc+Xo+FNl5rSSZ2VPO++Y3Ucmz6J2ygvfwXfdZIjQOvyhHmOw5r2vXO6AsRwyr+PDYoGtSLxsPhMjvvcD3hHB2usm5ruTGYTU/QKZwWJf7XdJ8ManwhisDfdrn89omx0Zc/ogqV+c7ihf5QanlyQ4H2ZOdg58DqA0UPuUpM8wiaEFvg3NG+27UPxw45DuH1s7MXwh4f5QkU0NjZUsvkNbMi59vdo5cTOTlK0eY67Llqp2/E7D9cHNSNEGDmvUqRuxDbQkqaVTAUY9zw7htvHuJcSgxq3ydFAGsTiViJqJkxP4+2c3x7X33BlI0M0ryLs28nkidkWq2zfGe/GqEgBgINaKoITGnL+n7gB2zf0egbcOuhEyeUwU8wdqZmppMq2psysUR12zZr/Q+CJcXmyQv+d74xg2BNd4kpY9PNdfdVxzhNt9LciXvyBn3fgXsk89HrZSyFdx3kHWIHu1VA0e3N40u6bl+sts7ClrPAzAm7+iVYMKsfeCUec2xVMHzr9EOZizn3S3PvQ3AQWFZDoWIMvxj0on6P9Xo1Eek2Pm+J0ckrGqY9Imd67aLo25JVG9sZu4H1LRUwr6jGuZRbhlOf5ydzKjMXSAydSgKyrybrWmBm0udBTC5krdFxruNCB8bjjsIzLjLVfbMBU20rlT3g8lG2eC4NxAwLZ9do03lClIGa3427jgfmj2R3iqVzNXcb7LT+xRILwIi7GAG5bH5NZ/9g0dKBdlq1mEU2cRAiEKrStomOzJ/hcIhhPDpTs0xgyZ9X1tz/BNVMo2yitHa4X6AiH+fSzBV0H2frUZIr8H3P5Dau667VBP5SjfHe3z3p6TojOFmIJiPLYAf79Fkf+fSEh7VtHYP7gNW5lgp9I7blvSZq+S4nsGtbYn47aXSezX3m+x0bwf46CjGVqBr5o7eZme/diK/mucnsv0ngYJelAKzAgSCMraZ8wC6goDQ56nZGH5oT9MX5rfYJaugVwEiWx3SpNtd1ZG5CorONi+2sEcz79RxNnEOfp5OxL6yVQEKaNDaOXA2QV1JRSoyVYAoRb2UGb0MPiediM0uasf/seQPkvrMIwp2Dwp+12W3ys1zxDf3us5Z7VMoUzLZq7DjZNfAEWC6B6RCO3oOpahmoh+km+wLR7qDZxWq9R1FKvihqbUJ1768TK3d2Iu0+1wu/C2UDoMQvayRsJy0c8RI8kWYtYx3Y9/9NUDvyz/J8n/eOQFLzR5b/J50U/zZUt1XM7rdI22NeUzYrhiGTankjNJv7kP7qgccNz/h/CXKtVHazuzMHKQID4ODL1qo52Rr/Qc+KIzlZDufSk2kku0ebU2Ocv/7rGf6duOYdQ+IWogjLkwMMdt5d2oiPVNuuWW8wggU5aEpTAS5Oh8CyS73XjB/LMrKKJvnBx6DrqeY/Z2RUlmttWvg08Tq1yCKF+sjmzO3jP/nvemW+Cfz0WGYa4IMgHXuI2BqLtZHLsy4pWyT3X3hjrU9rx/4uwN37ivFWIc9wPaEnb0/Mviw4CiuaG+64CnyiXDO3ObYz0ohe7X1OXUJx+rtzOUEOhsKVuhty6C+VbDT9rd0InZotc1L5Nk6gaI9NlsfSloUjcDFrFqnuScR46YoschmfPNFI0Y/FH0u1eyU1Au/aPMtsKNkp/u/AH8yijEVZsjcy28NQNPSCadk3tnJTu9nDP0lBVi1Hs2QS1fNYOuyVEJdClCwC13s38wu7zOKOQXCuGIZhZvIaMKGO5x1zrtnH0husWWvtv5aO92PEtj4XIyK+gxpZg/QX083x38hxwvVptmtyyMGwtYZVWULU/bZ8tVvAOwbxSU/d8xglkHPk0XT505yHq7KCRZJqBnPDU6xLPWkSVdcgg9FNuixxBENs7oH92af/plPcqciYSxaN9ktel5vO7F9b96LSpJi+fSXuGGwx70BwIwoz0bYSebC9lhDfaYtYd8d9rpabDejK3OwxbwApIKKolGeoexGES8jD5+bOyU+4jNQ1qL+xUCoRa0BMFuoe+zsXgnmr5FSVqQHN7vzZzYAO5hxQltL/OkaxbBVsZNd3lywnplb+RT9fs/uIlAPlP/edFPd8q0KlE8DZmrtchcAOKEUH7x8RCrgGu0z/7ItEftyAX2846Wt3bwPfPdRomDFW5JhggLGTA+lEs6HSzJAFXQaRIBo3EpEk41tEPUdAzY5xejG+HrnqyNhp6UKVFZ0EUrz9BRdTOlwcwSSSwf3haXuB/P4qFt/G1ZBjMUeOactTNCK4UZ52nO8h21lHlJMu2Qdr0vzM8c2ABbt2eycVKoS0GYnRFn0CGW3eUszkRL3mnPsXKugPzCnpa6zFMNdzGyv7vJ+zeCjS2lM5fx51hA5R89tpr+VYi6V7DO5tH9PBs2GUsbPybhwRLrpgqNM4C2f8Il5zbFhx6eSuinn2JGUXk7BZKxwBFo73G8R8Q/yyTE/dB7MjAcIfFYqEe8IN2pttJrRmTlNMUwegfqoL7goMxzajmGbPp6eWBpfhBlPcaOKu9eRwkyAzI5RTf2C+EAND4Rf9jU43ypVyu/WDu9oIm3Oy43NXFJMrNll4stXvxT7/uLDS5t2u5zKbu0emEi+9XOQ/njOvzMSx9x7RRPTT+cm7G+Wys+knExG6liRFD9SIVXzvE1u9B20+yciMl7CKqqsuZ0Ekxj/Gc2YPm/v+JKofVRj+5M7eLSv3F8R4/goSV3ymcuQXwdrfsSC88k5LdSTTz9bu+bkbvdQzbiDgfEq4opua32X+t+DFbfmV+Hg46mJ8ZKEu01d8ta4Rqfhf0F8UNQt8XzmnzteWqyUffxwKQOd7BxsYY2FpOjdxuMgH8M6ZzAveb3HOeR3B1JJolTy0ZdcE52AGAjRmVXdFTO63Q9bmn8LorF5PdA5nwQiPM2avpxucf5adZOMKNBpy7nZ9f37wXrXyCvJIFFitEcjF9HwFoi/lG6KLSqVx/asDvcCKL6UOZhVNCEjMixW8yADoWYfZH09nbBKU3J8KLIHuA6g0VHYbJIjJFIO7lxmxUFFOGzuMNhGD/JGANczcGA+xwrmfsktOHpg0fGpSc49xbqHpJ/KEKiJF0xl0NTOqMZrO7M+cwmYzskVIoqs1w1Z4li/rBVdNqHJubFU5+nlIDurM3MWiK6NsquSe7lpBlYCmBj1DDtIKav1fQqxqaXaRTDOqXvu4i1i5i/k+xIvB/+hMXIfUWPJzEk1O6eVynCa3s1jHO3dDsJhQYbRkL8N8hHdx8wfIQqOb0I/P0F9BuYb0s3OV0o1t5BTKahZsjtzMjQuALBHPseVG42DwEb4pWLn/FI9AwVNVC6ORCD0gxCpV2lcdgJTX+D6hj73WQL2yNdjf+hlCeIBYvww1hy7YjbVZpz3rK5MF0AToxgIuTQRHpOaRsyzAR4bafchm63SZVInppttE4Jakt+0zv69HFiLCDig1McnhUxgw/EV4SGPnGkLmujFQvp7p2tndg1OI01pMuGsEXZ/sjLqFwE1HcTzwdgtis5zzoqZWLMzuhaflQMef9yZMmrfb5Gi74BRX8CxglGPMa7X6QFn13n7U2+pdC39lo+AGAjlY13ykWY81bO9VRd/hIEJUVe/m674zHGxCYQEUTt7fFl6n9KlEi4FlOQK9wh4uAfMoTFskjP++3319jWNfV4bA59UFH41GqyimLUGVkM772ubTK+XYn6mz5OeGzjCUuomEHYLPclSCbOFfrMRoFgGplNSJUypPKu7Z7zmuicVeGdEKGCWXfWacEUsiDU7p7idmeNZqTSZ6uhhjYysUaiZcHa6xjIrJju5BeSeZ/JFIJc+OcruyaZqz+n6xYynP7qwhAXMynwLj/jhxEAYZrdAcunAUbDUzwHaJcpW69sxDIVBEtDpgy+d0Bxrr5Ujh2SX+xswfy5qMSti9BJnEnNaGl8KytpC/y7qdusQN4B+mEo43y7d7cU08znvo0rpNhDtGGXVWzqZsj1v2DkAVlig5JyE81Apx5zZmfmxIvp6Pol8AsNQOfumm+jZ5Equg+suAWivKB9KY2Qw45F4j/Px2TXglJcrXvZ5WHQJAXsX6tBpSjUS06uw9NmpSfFFpdS19F1eAmIglJd36Udjppld+suK/J8yQxWyutwk66Kvif7c1uxUfanomcu5WXnuH81ZapSPZuBkSPTbdLNzbPYrZ5ITZe5SpD4V8Zgiu6JkXmHBOXZOgp4qpdJndvYdZMH5jQbvUg0+CZsaB0Q4NtUc+2cp5z+rO/NeaLQzsGfU4xaz28Oark1Pds4ZkrG1y72KmM+N0tdQ8SkAx5Vyp6RYHGd0e7+2fP9oKLIKNg6y+Q5Ya7qwrcU24dYlSZ1drLlLP9EIiIEQjVeNtGaa2eFdQIrPBWN0IUaCmXAuEZDxm19KRJfMnWT9plpfBMmuTJKZriNCY6RVIPOAZj6tLRFbMDS3U5bxJN/3HkbESopDuwgMuqqv2b6wncgv5Y2T7HYPY58vA+EDwYI4yiF8EQUzBQqy9cDoAYv4O6X27DcOm7vv4n1fAd+IvHuQrcb5gms5+y5oonUbDITl7kfJx60A3hX25ZhLAOWC6OI9mu0fVuVOmzF4l/lHkdaXMbCvmVsUA3pzt0mQDIkwoIhumDPJPrda3wlFvMVHXFdhn4ERB6bWJ2y2EVd3eecz8G0CNxb6MjAvQbNSYHAPaf6jj9gVbS1UVSmaz36B69/sdX/OCq1BBb+Qv1xil+fY5eM39bfYkM6a6GwVwTN+aJudNa/Rig+b1xxfGlKUvJud2s27uto1K2GTwtgpeZagt0maMyIHGHRtzLF/etNe9Grekwl54aldg5NdpgeJKHIpbNbaBeOSPVpiV276QT9xBe8Qc73biPDBKEd02dh//iNifSemJox9M+QUytLspCUDk+yYfRm0/jgUbRvJx2ILEhpjkJgHiejHK/9lXzKcEkWVRSk1MogYCDWiqHzEnMps1S91f6wsnJVbWBas71yxHRBonVZ81vMvxhZVy8vhhA7eOU6ZB4nUxCi7B2aTRGv929WJ2ImL6T8z4iW7M4cw41YCdqPQnmsbDuI1gR6c22x/tByrq6m3sdX4Hn8aaz07MBIAq9SbCcGuQZDjAK4mPmngn7E7248r7Y5J8CwwU7LLvd+UJYlaH4OuygAAIABJREFUzjl7Zo4uVnxMuum/HXCTnZkfE/BVENmhnzsKHBF6tfb3m9dSb8JkK/4Ldlh28j+niH/FBJMjxRj5oQ3nLU0gl/NDE6n0M+usLz4xAipaVlyZFRKg4A9GheSWYUMSMEZCY5d3IYCzilX6dpPYds3gJ+Dz9ywV/79Kxz3P6vI+w6zvjHJ+bDDmVr/JdCLW9nas2Z0Y95cgnBL1vHZjXgV1cjph/1ffIVUYudnUJTyuIeZeAcaRCM7mTRfFNRUCZua0mbAcRH/wyL5w0636yEJHvCDZNTgNoLaofjZDaYDZ5yvSLbFLNme4GaMQGiZZWKSNmCAPBunvppriV0acTlGbT13y71GN9pgPMlnfBvj9JhLHhCRFNJo3K1MuvqmHiOfE1jnfkiJMRVVd1XUmBkLVqaT4ApkCNs93+Scz+HKAtyv48DEn4sZaDrSOgEcBviiViD1W/BmE6JGZZnVn7mCmz0QxEHLpcvvcwd7dFu637RubG2l6d9+ulu88bSlsE9lhkWHKQT/ms3diOVeWU5csiY2KN0/ROsiKdxmA7XJzIwoWkhEffWMPEJlt5eDgGcDL8OkCpfQ/VjQ7z7595yWExvJuMmM572557i1EdEhUfRh/OgaWa3/g0LbJYzYbhnrA4+zsO8Z7lJhNuuHQK+6cA8bKVCJm8m9U5Ddj2eAUy8dVgDoYxNuasM/oyt686DlfizeZ6Io+176ufQplKjJJGbRsBCK+JcomlwxUAgLJFd5R0FjAvjYOfEXzZRvKwmh2WTXwW2V55658of7lch49TO3m8Y3afTnqUUo2hp1/lZ7kfPmdjgGSHZkvMvg6IoqYiCeo9GgyLJ6bSsSvLcdRw9tvHVOvY3vtfRDEc4gxhgHHJMUJPh3ZpNJm93mTy7KvhU2iWIxx0EdgD4y1JlCmz7Mfq8wHginZ6Z7J4J+Zo4VIvjXZ8BIPSn8u3RT/wzvporXDm0WKb4qyJZ9bXZvjlo+mm53/K8EjvNkug6PELuxI8K9UrE9g2lC7NLRx806ybkigBvQSqa+kmqx0Je7jcvGUcTYSEANhhN0NyS5+N7N7PcCHRH7BboVVdtM5KGTQA42fsoU/x9fZj5RjGzLZkfkaCD+Jkrcgu0tO/Zr0AVtzJJy6nLdp9Ny7QBTJeS2HzOzIr0bM+UhqAq2q2C3HrE7s6hnnqIYPKK0/zkCMgLhZaTLTKBDqA4uB0UfM6zWRcbbLEDDIrO/t8wYfat9nzBuV/DiY3RyH7T8zMCl8NqMsca2DChZ39bpvnNQ+Zfv176SHbBE0bxUIO4RegQe7LMYGUTelE/YZpdUz02EMa7cu7xCL9eEMOpsI20S5/8PIl8s0aTJePQmib5TT8Akjn7QpLQExEErLtwp7Z5qxHLspz7+aoI81b8xiVgbMrTqD2n0E/QpYPeOy/taCyaWp4GcABy9z370HRP9DETIf5nY+/rLqJfujW9vtuPhiVitPzExTpIxxNSbSyjVrNZndlQfamp0jquSmoMOYrfEvwqlfjwaMQp1aP+AMAIgpdvsb6vsbPfStWgVva2zKOZ/WTu+3RHx0bmUf+v0VWK6a1xKpU1PN1p1bM3LMqryh272RmJNmQR5hjsbh9dlBeJ9Y1NL4UoTrIjWd0TU42WJcTcD+TGqnwBtkw25QpK622HiDv4bmP8GKfSk9CSu2xq04I0sv1UIgyo1fLTKLHMUgYOKiu92vgHEpEcZECQsMM3zu5RIEQxGzrxXdrUh/O4PYi8V2Zpu5gvdTrns7iCaEXu3l0iIz6IJ0s30ViIyvwDv+Tn/ppYZMz/h7QPx+gkkyE/4XxIwHu/ZqeqrZulVetOHZDbVMdnqfA+nfmG2fKAbahlUwqfv7muxPhc1LkVw6OA2K5hJRLKy0uQiJ18B6ZqqlrqjVDE1BKjWQ2YViuFwxHcUKFplk1nmWZX6nOZkkUgB6Nejn/c32BWGZheUk7WqDgBgItaGnkkhpwuLqpgweaVnqIgYOKlUmvsB5y2xcM2cY/ACDfuti4I5bEmNeK8bEWju9mcT6F6SoMXR/Wae7f2vG9LaEY8LlQv1mLXPfzz7/CUA8ykfKdB7k/dd41Lac428qYeGiUBOpsUbJlbwjBt1FUPShKH4BAfdskoIepXD43KbYk2GnPn3p4L62RbcSU0uk8tGAD9aXr3opdnkxdl9O7Fy3XR3qPsdMRzPxEQQYgyWSkRR2zkG+E2b2Gc8p8Pf2SMRuv/Rtob9h+5J2tU9ADITa12FhMwhSM2NnC97pDFxgFvxkFiWR3dy3LsaGDIOEQQArCOoxUtZFcyfixXxX1F/p5niP7/4Uik6P8uEw9gGzfswb9I9ZsH9D+CqDJv6+O3MVmL4RJVoioJP1eRgA4aJUs3P11olJiyECrZ0DXwasq4lQF/XeDFbDRJekmh0TzRH6N3UJxxqdzO2A+kSUo6tsbgh9n2etn7qg6V0bsjSGHjh7r9AJS/p3jcdi3wPp94Fh6kPEi+1jMCTThtBlIpPP4ecZ7f9kUUvd6nyfy0hzlcZVS0AMhKpVTXkFM2fsq07MHAvQpaSo2bygoq6QQ0ucXb3n0g/ABehhsu2vob93TWqfxlejvJSCmH/bXUyEKVHkZcAn0M1zm6M7k5lse/GMex+IpkRZWWb5mOqB1ANlN81tojWhmY3ghtNW81hnwHsW4B2jht4EGf80/4Ms5xP58J7V7Z3KWv8qyoc5Fw7Yb2ln75v3ptWhVcdMJ67E9jEf2yn2fszMHzYuIUGcSYTKpKHHyzUMjGVjujKvZND3+552UmVJdhVVUGlfdgJiIJQdeTUPyDRrGXaF9s5l5uMBjI9SETHyzHKx9UFpaZAL8D8BvluT9YRyrPtTE8j4zL3Dz6zm3YPBeCiKT8DQToar6ZMLJjv3RpXbHM3Uv0efQdr/IRE15LOiJcaDBOezlU4uFXXu5W5vVvENsUw7mfwWJgtg2DLMuTBN1txHCufu0eTMzqdGwhdf4F36+9wVKptVMXTYYOCUqvmctpbYtVtjFoSh8uDHwNYBYDa7Fe8lgmNcLXKG+ta6yOvfN0l4tg6ERT742nlNsY4oBnpeA8tFNUNADISaUVX5BDUv5bhypyiybrWUv1cwcoSEMXlKGiQMCIwFxpvM/C+QuksPvv6Defvt0LfZl5bZ7u90rwHRV6JsAeeSJ77Z6zo75RvLf3QHjx5Hmb8Aal8C5/Ph8klZ56aara1+QPLkOSwua+3sn0mwbgJg8k+Ef1/ldqmI9TOv87oP3dUyvidfIDM73TsU4ahoR1hBQqbH04nYwVsa9+SONaM1bftdgD/FjF0AbGuyk+SskPBzzWNi2UJL5mFTr5HvHY+6uke3bpDnMZBcUtMESnoT1jQZER4ml/uEnQZPY9C3oNTugZ0QYRWVD8KhMMnspid8InhgXsxW7HLLG3ytZ+2a59vfv1u/6fv0x9kZHJ1ZoZTaGRxtdUcaP5jb4lyQj4xD18zocD9iE9/JRNEqR+YcwTRjCREfn0rEOwqRY7heG2RM9N1bwTg4qqd+bpeoz7LpszdPdIxTad6/mR3eZ5XSv4m6S2XuYG05e86bSM+bwae+wPWNfZk9mJWpFHkhKf6wZtjGJjBbaLnnq6Tv5FyRJfN0vcRK3dw/aH8/XyM5b6ByYc0QKOnNWDMURNAtEjALjRnPuvvZcevTrPXXiIKUvUHdl8CVsZS//ziCMN7VeFGD/0xKrdRk/558r4EUTMa60HnmcwZIxvf0gfP2ji8pTHyzg5H5PhF9K3Ku+6HYO9A16YRzbmFyDMOrgzBc7zvEuIiIY1F8ZoeOkED041STfV6hW+bTnn5zrBNvfIYIO4c9ThrKIQDCuRp4kDQfBaI9ifExRq4fsyViol8jbIzko+lcjkzzh4nn6GfN18FWd02YZP8tn2OXfGSQa2qTQInf8LUJRaT+bwKmaFHHksEJdbZ1NSn+rAm/NkZCVKexQthmo9WCmElfEb2VS443Pkp4Zu7c9Yn4aOfDs3emvkLkMdfOWNK3u3KsOwB6d1QWptIVCAOw7KPSE6mgVW6h86i265Odgy3M6jGi6KXKc/fJ0xnf/+zCvevDOwluAUI2VXWmjUBToxxzmOgJZqwHUUaBTR0PK3D9jWLtFKiYXIgnTBp0MD/kazrrhVdjHcUIvyxQNLm8BgiIgVADSqoqES9mlZzu7gfQNdDYj0xBmOzZcFnvpdwqMdg7iPLCDT4ehJ/t0eScW5T4brPSXeZ+ERo/BlFdtKyUwdpOM2gNMoPvTk0Z9UpV6bpCwpyy5K1xvlO/GIR9zNFRJNeDIN0EDzLjvHTCua7Q3YMAAbNq7XLPJNA1xnkwLJYNx2XZh6Osz0dObnNv9YLwnO/7Fw+0xO+XhEdhtSftDIHy37TCfVgQmLqER9XbmY+SoiOhcZpSxSspW0pAzNzrA2fOa3bmF+XjAcB80DynfhGAjxl7JcrRy1CBHyK+PjbK+W4xdjVKya/UfRu/ksyozPkguhCmMFaEd1Su/rTJAPiXQbaPvSVBRUnEZeY8s6P/cEX2fBB2iiJTqXm9vf+hHYPs39OdZNGtvQPWve1TaG25ZZHxap+AGAi1r8OKzuB0Zqd/aSZh2XQjMw4OIraLXN+hmBNk5uVaYWpbU+wfRtJiGQkz/8m7UL37QpTjjqF5DWX6Ix9HpvaOPVrM+dZaXzM7BvcjRb8DY7dIWwdDYY3M8C3dPH9S3bKizD13j5g0x7Z2/0hE5h6vyvemydRJ5vwN3M1Qp76mVj12d1OTSUomPyGQF4GqvNHzmolcVFECJjeAs3fvvo7lXESEg0C0c85NIcoOccnnoMEmQdJbBP4jNP9WW2odaX4j1uM8O/vAwnwSZna45yniS3NpmCPNJVuJmP8at52jZk8M/CtG3C+3e3ALiD4fJTFRAMoABDIArkgnnO8VAm/GU9xIVv8+luWM9aHfpWw1lRkfBgdFukzlpqp4b+ZKp2a9coC1YH5Cs/rJc732n5840OQVkZ8QKIxAVdzohU1Brq4mAkF6Who4mG3rQAJ/BaR2D0IQs2/Vit9v2ZxMZp1lPimBV3eGGGuY+EnAeg3kvwlS942B/eB1TTQY7DKYX/aad/wll/COcNwFDByez+rXSKNIzZ7TbJ+5tbGG478nuwa+xqx+RERW1Hsll5bzYU95JyxoCpE6exO9BobJNt4HWLNJxrQtMW/HhPcyaLzxOchtM5U0aVEUfQ4VQgtsIkYPa/4p2eoRPdr+67wdqTdKX9JWCLwTgYq/sEU9w5dA8gGu83fzP6c0LzQ5WbJxD+X14g5DdxOHR2Mw6ODjFNSrUWtB+lHt+VfO26fhb0N9mVLAW3L2SnZ5X2Ct06TQmEf8mvnO9WqlZrQ12XeGkX24tJm+PPM+x6d7wDw2SqRAdvMgSJrRx0qdkW6yF2yOSaAz80HNGXozu91DlcZ5IBzCzGOBbH6ibMItc6tGc34tlx6yTrZkkjApZlzAA69fO2//HcUoKJcCRtg4YiCMMIWXfbom2+EqxOH5R0HrYxg4gIj2CjwVgrdwdd2CGz3PzYZBIJv5aJsNAQ/AetZ6BZO6D6SfAaNfkVqvfX/1mpb46ruJBk046OouNwXC9Kge+NmtYtIa/IjFznFzWuilsuurAgMm//HGtlzfcBMp+nzUsuPZyFejI/p9X8L+gjHcpjLHRnVhV7C3J9s0hjTqNfv7Euh/ALSAMQYEe+hDS9ldpexGURXscv2HCgLZssnIAXqVoR8hpntdy1m4YBJ6wuxsVUClMuQwIVBdb+dhAlWmsXkCU5csidXHm/dRGgcycA6AhMk2P/RerrqX839PI6hrY9aWuW1eF0y9DH6ewS8rpl4o9IL5FSZ1MmVrWUR6xnJ5Gnww/yTdEj9vJNxLrR2ZM0H0QyKz6xKdF5jXAfRLZt6eLNUA7Y9m0PZEtBuAMabgkek3m3ai/CG5+egwKLucPQIzGyovMeMnAB5DzH4stScGxTDIh6pcE5VApJdX1M6lvRDYIgFmNWPp+r2VVXclmA+DIgfMTm6Pt9buy6y/GFP2ra5Zk4JxZouWFiEHK9gyBzQxfWJuwrl/2N5FzDT1Rezc2OcuYyAe1W/DcMk5hphdHnM0lKuJEdicZU1IVCwdBc6q2hyFsEtAJxN9bfW/7IcXHw4/sHHkJwTKSKDWXsRlRCNDlYOA2ZL/10qM93xvutZ8iCIcAsauQR27IFHj0A5DOaSpjjE2pAoGVvuaZoG85x3UvTYnEWTl2/JHYsjxLtiNLvPHJKQzp3EI1OMwblBnxqtBtQPZ+B7Ah0SOWqgOVRUoxZC7Ye5wCVjHTA+SMoaB/av4W3h+tkQjFMhYLi+EgBgIhdCTa4tHgJlOfxn1mfVuM3zeG6ROAOHTZo1oloKRax0UT7KK9JQ7ajDpcV8motcBGEe0ATBnYKkBaB5gpTLMvkeg9cT0hq/4TeXzGoZ+iXz1b7b9N3mg/s15+5fAs92s/hejsX4StuGezFhSejwsZxcF3p4ZY8nnsVBoZMBWQIyJ68FUB0KMNRqJMIqZtwHReBBZeW21VEQzxRk0l9HTpGJWYDxGhJu0piXrBtYvvf3d275lqjQUZyTpRQjkT0AMhPzZyZUlJjDtaR4bi7vHMnA2QW0P6EYwYqSGKuKWWIAKd79pqt7/EGUoVDNb8TLw9jR1HYz7feDjnk3lqHKJoHLL08B3wjhamuqYHoh8c4wBkB+4VARBn9pkIQQrpYxLf5CUmtkyyY6htQ1FFjQ7TLCDs/xgJz/wyjAyGM/64IogVGWDL8GGYkRbfNdE9TuosFryHj63M2TYrwfr9YCap/vdX7TtX591RhWjIG+2cmFpCIiBUBqu0muxCJidBcDuX41dVcabRowzEaGqXrHEqIV+tmhQlFH43AtF3iubYc7AAGv+tXaca7EeS+fthz4xCsp4c8pQkQnIgxwZmVxQKQKt3QMTSatfE/DuaguPrBQTGbd2CDDD1aSTbc3xhbUjtUg6kgmIgTCStV9jc2/tcv8HjAVE2GWkbEvXmIpE3HcgYEItiOhHezTZ519KFBznyE8IVDMBMRCqWTsi238QmNkxeBKBblaKYmHRZI/pc7lmglSO0coHhx1H2g1/AhuiSwhBbiXj6ZGLqww1+Wy9DX3v6pdiRy0+PPAHkZ8QqGoCYiBUtXpEuA0EbmMrub93OcDnRUnFa1ZtzPiZRVjGjFlMeE820RF7Jud/NrtutOQ8opWRQSDn06Fhclsav82sB+jvNenbFFs2Q9+kENxDoX5Bfxqvxtbbu0v4Yihk0qjCBMRAqLACZPhwBEy1yFH7e78B8VFDefNDXGkWelop+4g58/AgLiV9dAePHme5+2gfJxDwIRDXE9Q2DB5HQDwbAZB1zRc/hxCEh0eTYJcp+7/g1w/CWgL1MNFbROouaO8OxGKrUilkcAn45E6MYuWuAcgJIkZC/gJzVTt7pSbTqpCXSDMhUDECYiBUDL0MHIXAAY+zs98Y9zkGTQy74s8V8Rns7XF2bD/w7SWUmQ57ANbOe2F03MVk1u4BAI03hXuI8H4w9gEF2R3NhkUQPji0zxB2/Cjzk7alJ7BJlEfWAMzmWzS67Qf4SWY8wcRvMuglB/h7j71+1d57je25NJuG47/yEiQ7Mw8R0aGRDARAa+avtSVi15d+xjKCECiMgBgIhfGTq8tEILmSt0XGfQ0gK0J9Jw3Ck3Mn2QeFCSczuxTYGxbi67eJDzrbcDy+nQO/ibWeCcLhxn/B5BrQJqNysNucTfcY5cijTLhkmA0bAtmyGdnSyGyZXSEiDILRDqjfsqVf0J6/dqCx7q2xu6JnJ8AP60DY2ul+n8DnR9G/SQnNoDvTzfYxYe5JUaQQqCQBMRAqSV/GDk2gtcM7jhTfkq1vEO4XZCPU+sfplvg3w12x5VaHPcD2hF0xtj/j7lrn6A+CrSNB2C6bOIgbwPQuRTRWg63c0jTYtM4Vdopg0xQq6Yi6fshXMFvu0KzyGT4DrxH0WjANMMElmOJZdJel9cMD9fF/L9wdbwaUCklMxEwndXgfdizcB8COQN0klFqzR5O9c1hDJELf0lQIFJWAGAhFxSmdlYQAM83s8q+1iL8ceTtX0xfaWuw7iy5Xroy11YuGTCyzgwLvBVK7g2m0hh6tmHYH0ExELUFK4aCO4FDuffKJAkNnyHCQ53AzChpa+udiBszHX5mDATJFsbJpHNcQ+BlAdTD810Gqh8E9xLTMhbcy1jewttf5V1/7lCmZousfQHIp7wnlPU6EcUO1wbc2zlAkBGW8Pefu2/DC1trLvwuBShKQF1Ml6cvYoQm0Lh18khTtTxQ2zXLggdDPGb1vet+65aEHKrChOXI4zuxyvIhY7F9rHd5pnNWQQaM36G5HdTTOZ7xPaZhz64OYsKPxkA/y7mf3qeV5zDoLBr582R0Y5WniFQQ8zIwHLcvp9nTmjYFM7I3GRgz0NsJb/xbcUf+A1z7VVEEsXw2DGct6tld+/H8VcGAEh1ZzyGBKMHw+3WLfVeDtJpcLgZISkBdSSfFK58UgkFzJdZxx15tVd4TQAvOR6fJ85/D5e9PLxZCjKH0wK1wCmIiKqUs4Vm9nWgj4HYh2y6fcsZEptyo1aLT5pgZL7ZyxkQvX3yA6v+0DOvQCCFsZKGifc/Ab6tv0GXzPsyW1DPfA3MnX4MmGA+pXYdHneyc5j7UT+abq55acBYuilzw6ObmDR/vKm0PAMVHmavwQoKxvppqsn+QxrFwiBMpGQAyEsqGWgfIlkFzO+8Jz/xl1la19fS/VxY5PTaDsmXOV/mZ2uIcT8a0E3o5IRX4mN5aHVnMB/SQ0LFbahrYsJm2BYSmCBVKWWZKz1nEiqtdAnQXETe4oE3uHwAdzwy+jlPG416ao0yBpDGqifmLtESmPzd8TfLDK/knKBfs+iPYk5nOi6mpo1GBxDerzoU+an4jfUaUqC8Saymw1dHmXEeG8SL4xzOaI6aa5zbEvVvP8RDYhEPllJMiEQLkJtHZ5xxDr28IfL2zYpv75v9Xqc+9uahost8xRxrv4YlarTxz8Boiu5GypykjP5ZCBwITHXds5buEEPL+58c0i/5JLQMEOBoDn2nPjTN2CtO3Zv997ajZFQPC7JOgjGyP4tl9yFbbhwcytROpjgctFxHloU5kyu3tw9apE7ILFVP3ZBmctzZzBFn5CoIawOg8qcEL/jp3AeB0Ie520EwLlJhDpRVRu4WQ8IWAItHa63ybiyyhC1jrN8Aj6wlRz7Kpynkvnq7ETV6zfIeY6NxPRJ4Po/Igf15z7o2bG3L6nnC+2HxeUcy7fzzhtdnoXMPEFBDhRQv8CIbM5sU19gr8S/OTcRP2K8gmf/0izurzPMHOKCO8K34s5Y8CjDjnH3dREL4a/TloKgfISEAOhvLxltDwItHZmbiRgVi41cqgemLlHQZ01J2G3hbqgCholOwdbwLiHiXbPxx8hm1UaLph/mG6JX1jOKSU7vRMY+gYA2+Qle2Ac8AAYh6USscfKKXshY83qzrxXa7ozagExZu6A5uNSk+PPFDK+XCsESklADIRS0pW+CyZgHBTJ9W5l4Kiwq+rclvtrGjStLeHcX7AQZexgRtfgZIvVP0HsRHDI3CBh9gzfpARSJ7dNtNrKsXsys9s9lDT/H2B8HaKnfNBsttyN3OqoVLN1dzlkLpZKZy5d9y6l6v7KQHOkuTNe9TSOnzfZebBYskg/QqDYBMRAKDZR6a+oBJIreUdk3NsI+GB2533rv1yCpBc8K/bJBU303NavqJ4Wpz/+uDM4Zv+zifVFDNVgwjaiSscwgXRYobRz6tzJVNIPUPK5gSZYagGDDsydi0STNzhaoAEG3zBGOd++romq2l9kc7pIdmYeYeDgKAYCMwYAOjGVsKvaETPqvSfthxeBaA/z8Jq7zKYGCJzcwQkNt50U7RtWXLNXDeaOPtc5qH0KrQ97XbW0O2XJW+O8WMOvwDiGiLMBgxF+G6Ma6JmYbX949sS316GI0NlWms7qdH+rmY8iRSaDZCRBNzpX0t8tbR8zp4VeKp5k5eqJKdnh3gSF1ig+MsbfgpjPnNvs3FhLOybloirjVAeBSA90dYgsUowkAsnOzPsAmAiGPcPOO5d3//FUInZw2Guqrd3U5Wu3afBGL1XgHRA6OdTGWWw0ErB0tHIOKPbK/OIH2F614+A1pNSX8g1pzDklDmQs/90LJ9Z1V5sOwsqT7HS/A8CEO4ZPA26SgBNd0dbsXBR2HGknBMpNQAyEchOX8SIRaF068HGyrEUEjA17ITP7YF6YaonPDHtNNbab8WzmYMviRSDaI3JUwMYESiYd4Y1wnPOLlQ/C+IXowcEzCOpHRLDylY2ZXwOpM9PN9m+qkX9YmZLPDk6FTYuiheEGziLpdHNsVthxpJ0QKDcBMRDKTVzGi0RgVsfgsUxqIRGcsBcGFfMUXZqeZF9Wy9u3QYGoXdxTmPFDAKPz/hBr7oWiy9JN9tXF4NHa5X2awDcz8/ZRzt2H9JcNtqBBrXBl/6D9g/YpVJJaCWHvl8LaMU1fmpliK3rKOJWG85LJZb/UuC/V4hxZ2PhytRAoHQExEErHVnoulEAQW++eAaJfhD6IN05vBJ99NSM92b6lUBEqfb3J1lfX5f7KAmaZr2peH2RAs/kP3on9T9ffXkiOhBlL+nZXtv1PImwTZcW8wTjI1llgUljcW+d8pn036q8040LHN4bcnju7maCUdEg/jGw6ae5KJZzJxTDaCp2DXC8ENkdADAS5L6qXADO1dnkXEuHiiKlstQc6bH7CfsjU/qveCYaT7PTHuWFwVMYcNXwm3xoHuVDCdSA+ubcpdqepbxBu9I2tTu7M7K+BW0FoyjeZk9k8IOBxspxj5k6iYVPNcFZXZg2D3hXJQAD3pJqcbcVAiHonSvtyERADoVykZZy8CLR2Zn5sh3/UAAAfyElEQVRFRKeFfvHmigZ5vrNzVRVpymv2Gy+a1dm/l2ZrPgiH5LOLYHoKjl6A1UT4QqrJeSrKh+nU7r5dXW3PJeAjeTslmvEJyxU5J8xtoicLRFJVlye7Mo+AcXDYQ4YhJ9KY7YybvRfWRdFFVU1chBnWBMRAGNbqrf3JzezM3KaIjg1rIOS+gzqViDnDYfdgUw0mu9wjwEgBvFPYD9Gm128so4xuijkfTk2gV8LcITNe4UbrLddkSZyer3GQS+DUo4Gz5jU784fVB9EchXX7CwF9fJTkVsZgc5Sz342T8Nyw4hHmppI2NUFADISaUNPIFTLZmbkfRB8JayAMJUlKt8T3GG7UTFGnlScOTFOwfgVCfb5GQpC0EPg7uXzy3Cnxd0wkdcoLPM7vdb8PwqkAzOZF5HdG4JRoykBrXBxP2FfNJnKHm26Sne6PQXx2JAMB7FuaPnNzwv6jGAjD7Y4YHvOJ/LAPj2nLLGqCgPFB6HafJtA+oQ2ErIf8w6mE88GamGNEIY3TYmOXewaA6/JdzWd3EmB8EO7Rln3KvEn0782JkXyA67Bz5hKAzkY+BZg2hloax9Hr+jLON2s7YmHLykp2uucT4QpjRIVXqcmFoE5PN9k3h79GWgqB8hEQA6F8rGWkqATM1m2X9woI48MaCAC0z7ijrdk+driuyr60hEf12e6PGDglnwyGRg3Z6o9gJp5PtvO1t+dImHobWw37uacT4ScMxPPxe8gdaZjElndrK7ZFQyTqbVFt7U1QRmuXe4oi+lVEZ1qztXJJOuF8r9rmJPIIAUNADAS5D6qaQGtnpo+I6sIaCNkPH81NNVmnDlcDwShs1jLejf3MbBB9HBxs/UfWo8lHbQwqAto85Zw/tJNwMbNa3el+lQmXE9AQIXrvP2TI5jvAEs18UltL/OnIAtbKBcw0s9v/tGJ9V8QjGK2Zr0k3O98czvdqrahR5PxvAtHfKkJRCJSJwNQlHGt03P4oW+nBR0nzVanJ8W+XScyKDTNtNY+NDbiLAUzJJydBsJOQ/Yh7rDBbj3bOm7cD+pKdrsnu91MmjFJmEZGH8RE4JTLe1PAPmNdSv7JikMo0cDYlOP0tdL6O7PJM+5oXtCViNZ3xs0yIZZgKEBADoQLQZcgQBJhpxnKMt7QXeNqH3UEwK2LNuCCdcH4QYpSabzLrucx7YWEhE5qIofL5mGcLKsLTrK9Qmp+Esm4E8fh8ch3kjA4N0OuscFJ6kn3fSFgdz3hucIqy6OkoWzlmB4cZ96cTsY/X/I0oExiWBMRAGJZqHQaTYqaTnh2caDuqK8q2rQkdA+MbqYRz7Uj4MJnjgFXd/ifBup1AcQLnZyRkNxNcgnoL0NsFBlkeOwe5+P6MBs5Zo5yb767B8s35PD2tzw7uQ7b6R6SU4Fnmj6cTsYPyGVOuEQKlJiAGQqkJS/95ETCOX7O6sT/gPkGg0J7hpkKgZj5jQrMz51IindfgtXZRkJLaO5KJ/5BvpsViTHmTMtOX9T5lX1ZISudiyFPOPk5ewQnteo8RYXTYcbP+Mrws1RxrDnuNtBMC5SQgBkI5actYoQkEK+Pl3qGk+UECWWEvNGffBDVtbrN1K1Htp1kOO2/TLtntnkPMF2nQmMB3oIy/XMTCAAFzUonYWWUcuiqGSj430ARL/ZWIxocVyBztMHhNOhHbIew10k4IlJNAWV8i5ZyYjFXbBILQsU7vMEV8H1E0A4F9dUzbZOuOkXDEsKmWp3e/PsbxR32HiL7ByK8Mcz53TdbPESaN863acr6+pbwK+fRdK9e0dg9MJG39hQg7hZU58P0Ar0slYtuGvUbaCYFyEhADoZy0ZazwBJhpeod3hGPhDwSE30EAsyL1+bmTrLtGmoFg4AYhil2ZdpD6bJD5sMQ7CUPGAUDL/G3s987bkXrDK3n4tMwZCA8SYZewsxradUknYg1hr5F2QqCcBMRAKCdtGSs8ARNb/pz/CeXw7yIZCGZVxvS5dML63Ug0EAzg05mdwW43TUxfIHA8H2fDkIoKSjcz8HBfz/rPtB847q2Q1w27ZkExLdgPKsKuYSeXMxDcdCIWD3uNtBMC5SQgBkI5actY4QmYI4YO7wiKvIMAJqLPpiZZvx+pBoKBPOuZvt20Y80mk0gpGwZS7Gc9m+kA/IyrecaCyfFnwit3+LU0BgKTtZhAu4WdXWAggAfSzbKDEJaZtCsvgWK/NMorvYw2fAmYPAid3uEW8b1RfRAsSx0zZ+LI80F4+80wdTlv0+D7TxPrXYtpJGyMVkCGlXNguomeHb43YriZtXbzRPiZh5RSO4a7Ipfumnl9KhEbE/YaaScEyklADIRy0paxQhMwZ+krurz3W+DFUQwE4ywHTa1zE9ZCjJQwx3egOnPpuncR1d1Jig6NUifgnRSVjRRBp8+YMa8l9nhopQ7jhjOXDjRbynoEhHFhp2kMLWJ+fW4iFjryIWzf0k4IFIOAGAjFoCh9FJ1AEMWwDO9W7D0WxQfBJErSGl+a0OLcOGLyIGyF/kmdmf0twnwA++SVRelt/TPjVRB9KdVs3Q6MrFDSLaFOdg62ENRjIIwK+zBkoxyxMpWITQx7jbQTAuUkIAZCOWnLWOEJmEyKywcnWr7JpGjc7MLeqqyZ8I09Jjk/EwMhF9WwzJ8OrU156DHF8EUI6iyA7ozbdnL2RBqxjomb3syzunlv1u4/icgJe5PnEiX9I9UcOyDsNdJOCJSTQNi3bjllkrGEQFCIeMbT68db9XWRazG4rL83PxG/dKRjnPEKN6q3vC8S+GIQNZqSFsUwEDbJmPhXUvz1uU2xJ0c665ndmfeQxhORajFkY0TvT0kthpF++1Tt/MVAqFrViGCHPcD2Hju7/cYHIeyHLSiAA/XLdJP15ZEcxTB1+dptGtxR3wPhjNyqtijGwdBdmQ3R06Zgw9M+49R5CeeJEcvbhOR2eR9VCBxqQ79TTVpwQLelmuOmeqb8hEDVEQh9M1ed5CLQiCAwq9PtYUJjaAPBxOUTbk03OdNG6gfr9OW8zaDnXw7WXwTBirKqjXJT5eL4jZHwqlb8qedfdJ5ZfDh5UfoYFm2Z1czuzAkKal40R1DWzHR1qtn+9ki9V4eF/ofxJMRAGMbKrfmpBSszd6Ui2j2sgZAr9/xgOuF8pObnn8cEkst5X/a8HxDhE2XJpBhE65nkVFjH4PPio535s3emvjxEr91LjENtl3cOgX9IFL6wmLlXfY3z21qcq2t38iL5cCYgBsJw1u4wmFuy030IhPeHNRCy5+P6xVQivvswmH74KZiKjiswhT03rYD9TbaosMzCD7L5lkM7CQB6QPyzdHP8wkL7rLXrk13uNWD+WvgjhiDLlJ/RfOLClnh7rc1X5B0ZBMRAGBl6rtlZtna47aRwTNiP3ZAD3aqXnPhI2e6euoRjsbj7XkfjDgDji5kUKcqNE5ypG7875kW+HTt73iSsGRFhkGYHodv7jQKC+hdhmRknDmU7B9+8F54YaZVHwzKSdpUlIAZCZfnL6Fsh0NqRuYEUzggiHUP8hvL/ei5PWTAltnS4f6BO7uDRHnmnEeECYt6mUsbBkGpyuwkaRH/2ic+fP0IiHJIdmU4oaopoyGrEnO1SE+jNELe2NBECZScQ6qVbdqlkQCFgCFzMqvVE71yl8IOwK7PsgTh8uO609D4Ntw13kDM7Bm9WoBNAqA+/vf3fVAJuxr8zm32y4CqQmtln8Muk+JR0U929w1kPBzzOzr6j3X4QheYWGFKEN9NNTujMi8OZocytOgmIgVCdehGpDAFmmrUsM51ZpSJlUwQ0a/39dMvwPAs3aahXrsAk8r2biPkDhe4abPAhYLwAxU8Rq8NMRsCwq+HN3awbIhwY/Uy4wGLnpjkt1DMcb+xkZ+Z9AB6N4qCY4/NEutk5SCIYhuNdMTzmJAbC8NDjsJ3FjKXukZbFtxJom7CTDAL0me9LtcSNJ/+w+83q9o5lrb/LRPsSWIU9ftnshzzI1WN8B/BPEH1drXnzn974bb+hmL/J2V0Jk8My3/dEUAyaGb1M+I1lORfOnUQvDDeFtHZnziTG9YTwEQy5So6L0s2xacONh8xn+BDI98EfPgRkJlVNYFZ35r2scRsRhc5Xb6wD0tyJ/r5DU+8ZO6zOd5Pd7g/g81fMkUKhOwfZUgDQIP6XDxw5rynWYVazpzM7A93uycS4gUxBoWihe/91P230S8BKi2nWnGb7r8Np1dy6NJMmhZOicMo6dOKyVLN96XBiUdUvExEuMgExECIjkwvKSWBGR/8Ei6xbQXRg2JVs8EHS+hWy6Aupptij5ZS3VGMlV3ILZ/zvEuvjoYLMkqG95bd0BADNHgOPZmKZqbfsNerVt7eb1eWdqNn/sSK1A8Aq/42EXGnjbL6Ef4P42zHLuX041HE4+wWuf6PP+xsIU8Len8GWjYZHRCenmq35YiCU6qmRfgslIAZCoQTl+pISOOolbnjXOm8RFD4d+qNolmfM60H4cjoRayupgCXu3PgbrOpyTwLh68TYL4oj3BYMg6wzIsODQjsp7/y5kxo2u+1/+uPsDIzxjyToXxBjl8B5MVwwyeapbCziMEjAHdD8/dTk+DMlRljS7s0Ol/b5LlJq5ygGAjOv0RYd3zbJeaCkAkrnQqAAAmIgFABPLi0PgWRn5mfMOFMpssOOaD6CmvmHz78cu6BW8yF8pZvjPfAuAfNXmVFvPkAFfaADZwMwBZ4Bak5fg/XV9t2o/x2ZMtMJndgpDncxESbmzhvyfm+YkU2khPFMINDLOoMT0vvYD9fqKrq1MzMTRNcRMDqsgRAcgQFLmfi4dFP82bD3tLQTAuUmkPeDXm5BZbyRSyDZmZkBIBXpjDfwjqP/sxrtL9y8G62tJXqf7O6O7+jteYBW/D0iOmwoxDPsB2hLc81WV6LXoPVPUi3xq6Iwae3mifAzPwHRp80uRkHnDdlQ1KEUzS4Iv/Qy/vXz94kvryVDwSSoaoy5V4Hx1Sj3prHTmHFvzLZPGA7HLFHuI2lbWwTEQKgtfY1IaVu7ByZCq+5IHvWBAx695ZM+dMj5rhbgTX2B6xv6M98hxskg2jHYNCjk8D/3MQ5W7qD1BDqNY9adqQk0EJXH9Kf6drXj9jeJcFZQOrrQ7YwhQyHrC/EUKXVNqtleGFWuSrWf9TKP1+u8PxDhgCg60uZ4B/zLdLPz1VoyiCrFWcatHAExECrHXkaOQCDZ5S0DeM+o+RCgcUWqxbkowlCVacpMJ3cONvtK/Z4YexXrA7zxSIFeGsy47180pf7FQj9KMzszZynQjxgci2S0vQPZYHfDRFMqbh/UA2fdkhjzWmUUEXJUk165w30vFB5VFOHoK3DUZGZbnZSeaN8ScjRpJgQqQkAMhIpgl0GjEpjZ6V6siC+KFGuejcL/V58dm9I+kd6KOma52p/wMu8ZW++1KhO+qGhsYBwUuGtgZA+mDzLFq/6Xrdi3001UlPPuIAyyw52mFC5iYELRjITsyYPJ5NjJUJdnuO++ajYUkp2ZW4jouLBZPgOdZGNLBz3f3Wv+3o0vl+sek3GEQD4ExEDIh5pcU3YCp6zgPXTGXQaCHbIsQ/ac23wlGWelW2I3lF3orQyYXMl1GHSTTDgdhH0UgpVoQeGLQ0NqE6lgHBJBl7t+5pfF/hiZ6IrV3e5+zLiagI8UnJMhJ/hG3wTOgPhBZnV1OuH8qdp0d1JnZn8LeISAuihHLcZaY9D96Sb7E4Xu5FQbE5Fn+BEQA2H46XRYzugwZnvPLu9BgA+N9kKGhtbPDFLsY7ckqCq2rU344BvbYNtG31vEhP9RYFWs8swbUhyD3tCaz2lrcdpK+SE65QUe5/V6swl8dDHyMwzdvBsjIuGDub2+PnbWa39rX9d+3HF+pW/wnHG0AIzjIjknZrNKapA6JpWwTeVN+QmBqiYgBkJVq0eE20CAWSW7MhcBdGGUl3L2Q4P1rPncPVucmy7NFiOq2O/kjsyBmnAiQKcB3Gg8B81pQlGOFLJzNZ+hvyutr1j5yiP3LD78cK/Ukz39JW4YXJ85hzROZaLdTXbmYEYF/nJGgsFjsg6uZs03wcZdlQ4NnLnMPVz5WADwjhGNVZPA64V/W7Hmu5tosEA8crkQKDmBwp/ikosoAwiBLIHWzv6PEqv5UGqHKB9Us90OxrNuvfM/C/egNyrBM7m0f09Y1oXQwXb8LuaohMwJQBE+pNllqclvAI8Jc7XrXTFvSsPz5ZynWVU/v8z7kPb5elLY22Q7KDQUcqP8JiKSjBo9Zl7lk/q1D/uaSuwIzXjqlUarbtxcEH0hisOsmYvJ30XA9bs32WdX2lAt570hY9UuATEQald3I07y0zt5uwx5vybgQ5HO6nM1BzTjxn7P+Wr7FMqUA545SnC3wbZgr1UD3yTm7cxmQdYqKNqjZxJCmd7WMfP1fY2xK7aa/KiEk5/VzeN97S1SxIcAVBc6+2UImcyOQjbJE5mP7UsW1JU21K1dzXhzMVHJd0qCKpqdblIRbozqc5HbyVoH7c9ITa77XYjpShMhUHECRXtLVXwmIsCIIJBcOnAOlLo68gs68Og3KezovL56++el/IhOvY2tUft5H2bSRzDRsQrYy6yojYKKaRnkii25pp6CbdH3b55o/7GU/gZhb7Cc8+UXmfgcItqFGCqsY2mYMTYePZBJStgNonbS3uJtG+seuWZrmSHDDLCZNlOZrYaOzHFQNBtAY9Sc09mIEjyMmHNsagK9kqcYcpkQKCsBMRDKilsGK5TAKUveGuc79SvAGEMqWmGA3OLzTRAu6J3k/KqdqKgOb+bDqAcyXyBFpxLzZAZtR9nCSkV/znTgDB90+0tteVfO26v+hWowDob0O3XJklhcNU+xlP4ZSL3fSBrlvD7sfRIcHyHQ42sEfg7Aot5mJ91OxdslCo5PuvypDP4Jg3eKHNY5VDVT0TdTk+xrqklPYTlLu5FJoOgvrpGJUWZdTgIzOjNftoGfgsjKLsrD/7IfFLhEdJWv7Ov3mojX8j0PNvkAMs/2vkvbzvaWUtM162kE2jn3AVClMAyyUZvkE/hfWqlz25rsX4effflbBvUk/MylIHUqiMcWIzPk22eRC400N0I2ToDRw8BtPOilLMKL63eof6N9PHqjfpiNYdC1pHd8LBY/CeBLATRE3TkwsgY6I6zpyzgT26fQ+vJrQUYUAvkRiPRyzW8IuUoIFJfA9G4eY2v3TwQckM+qdCiBEBP/jQi3ad/5c1sCz2z4gAQpBDb5ERmjIviZsePkHeD73ASgGcD/AEgQ0agg7YBxMgiyGhd3zhu21QGTljjtA9fPX+g8g0srG5URZpamZkF9zP84sf9lgD5GFOyqmF+RKQUfY2ODZOs8aPaJsIIJT4DoabB+wQctH51xnv3F0Id6M7o2Oib2DrYJ7wXjcwAOygkbOUdFzvfABag1lbAXheElbYRAtRAo+gNaLRMTOYYxAWaa2eWeQoxrSVFQ5TDP2WoGTLjZWtb6eVL0NPvUzYpWKFiveeTVEWgXS/u7MdEeAPYizbsy8ViCaoCiumJlPXwn+Y33u1kYA1gFpb/u98X/PG9/6s1zzhW77MRO3i4G7zQCvp0N8Sy8zsRWJ5M1GLQGPGI2uu5jQo/SeBNEr2jwm0wqQ9CKNTcSaEcC78jAOCI1CkCskJjNbOVxfXd8dOy42TtT31bllQZCoIoI5PtiraIpiCgjkcCMZT3b2358EQOH5aLu876Xs1vUbMIEwWb1uemqcuPuwVD/xXc23LICgwgFBXqdGItJ2+fevDetrnV9T1uWOcDx6VoC7weiRmIuqhPjVoytwNLacByx0Xk0SCFhgkyMSZFrk/c9Za7P7R685vt+ct7edX+odb2J/COPQEEPwMjDJTOuJgLJzv4PAdb/MjAqn7PhaprLZmQxtoHPzA9ZpK5rVNYfrhtGyXWSK3lbPeAeT4q/TlDN2azQxUkYVQ163ZDmG7ihr8H5ZimjZqphviLD8CQgBsLw1OvImBWzOrnTn+VD30hq2HxctPGyAyOjlfUNZauFqT3xVlQHu1q4AYK8Av/CWNXvncOazwYQz9WQrvn3UnC0oPlZC84H5rRQTy3oQ2QUAm8nUPMPoqh0ZBM4/fGXGgbHbHc9aToJiu1sHqLa+210QqQ1GvxHx3K+d/MkWlZ7M4kucWAoLPMOVhqXMbA/Bef/wTZ/beoyGymzUmv9ybbJdV3RicgVQqA6CNTkA1gd6ESKaiHQ2j0wkdi6GeAPlSKMrpTzzIXomeOEfma+nVjP7xsV/8tI3JI2NR0G1vlHWIpPhuZPQZEKXAxrx1AwloFxZXgNWp3Z+4x1Z/txxc21Ucp7UfoWArKDIPfAsCRw0ireyRr0/0LgCUF63yo3fTemDQ6+KJ2s1Cn9g/YT5UoDXbU3ATN9ZRli672BQ1hZPwcwOdhJqAH/hGyOCpO/yjppjyZrUb75NapWNyLYiCNQ5a/REacPmXABBGZ18l4abpoYB0ORXXUrT/P5yEZJmD97iPE3QM/Zozl2m3xM/lvxM57iRivuHs+EVgLtA8LYcoSVRr0Fs2ZBUC/rJTDOT7fEF0TtQ9oLgWokIAZCNWpFZMqPADMluzIJAFcy6GjTSTVENwz5FwShdUQ9DP4tkbpde30Pt00evRYmtZL8tkggSK8db/wAs/48MU1n1o5SKpvhoMLHD0MhstBYRhZ9deWL9p8WH176wlFyuwiBchAQA6EclGWM8hJgptZl+kLS/sXmI6KyuQwiZ8ErVOihFMAmpx8QpDS42dX+lQsn1z0/HKMSCuW11euZaeqLGNvY714C4BQw6obSGJTbUBgy+rI6pj9TbP3U1ISxb251DtJACNQQATEQakhZImp4Ahcz2yu6/aMV81kAf4AAJ5sHuYS3/MYjhKD+MkAvg/k5Aj3gue6CeftUV0Gl8DSrr+X0bt7V1u5nwfxpEDUTkfE9Cb7WuWOIEgmdDUKlbFqtJ5nQ1lvv3DQSnUpLBFi6rSICJXxbVtEsRZQRS+CEjt6dY+R8ioAvE7BfAKLIKX6HkuKYrtmk9AU9COAeZvzN9vqW3jxlm7UjVgElnripm2ABE5V2D2Tmj4HUp4i4IXtswyqwCYtwDLHhKMHoWOM5hr6JrPjv+/6BVRKpUGIlS/cVIyAGQsXQy8DlJGAKBo2yM0drRRcTY5IGlCIYR8bgIxLllzs6CIoBgWASG2kwLSfLusGFumvBJPwrZ4iIb0EUsEVoO/UFro/3Dh6hiE5SoCMA1DGzUkRKmyJRxgsk5C6SqfxJBE1MnjZ/av6HhvrhGsu65+5hlNWyCNili2FKINqbcZhCkGmNHALGUGioc/clpiNY6/0B2oGAnQHswKBRBLaIKHtYADKOA8HnhIEBML9Jil5mH2uhsIbBKy22/u55mX/s1V7/4qWXBDFuYhRUw+3ETDOeRoNqdFug1X6keH/2eXtiHsdB5U2MA2g0gHootoyCoWGqP65n5rcAWgviNwB6iZR60iLr/5ZPxKrFJA6I1aBekaE8BMRAKA9nGaUKCSQfWFmH8eO3pXjjOO17Y7WFUYr1KPIRZ0U2M2tlWYO+5w0A1jqtuM/O6LWqLr5uFLDuuiZkJAKhChW7OZFMhMsqxAczPaOUsusU14+GRiNZnkO+q5TtsOu6ANsDNnQP6uM9awdf633PLdv1XloDJbVrRAsiZo0REAOhxhQm4paYwKaVHIeGkl2BEkOX7oWAEKhGAmIgVKNWRCYhIASEgBAQAhUmIAZChRUgwwsBISAEhIAQqEYCYiBUo1ZEJiEgBISAEBACFSYgBkKFFSDDCwEhIASEgBCoRgJiIFSjVkQmISAEhIAQEAIVJiAGQoUVIMMLASEgBISAEKhGAmIgVKNWRCYhIASEgBAQAhUmIAZChRUgwwsBISAEhIAQqEYCYiBUo1ZEJiEgBISAEBACFSYgBkKFFSDDCwEhIASEgBCoRgJiIFSjVkQmISAEhIAQEAIVJiAGQoUVIMMLASEgBISAEKhGAmIgVKNWRCYhIASEgBAQAhUmIAZChRUgwwsBISAEhIAQqEYCYiBUo1ZEJiEgBISAEBACFSYgBkKFFSDDCwEhIASEgBCoRgJiIFSjVkQmISAEhIAQEAIVJiAGQoUVIMMLASEgBISAEKhGAmIgVKNWRCYhIASEgBAQAhUmIAZChRUgwwsBISAEhIAQqEYCYiBUo1ZEJiEgBISAEBACFSYgBkKFFSDDCwEhIASEgBCoRgJiIFSjVkQmISAEhIAQEAIVJiAGQoUVIMMLASEgBISAEKhGAmIgVKNWRCYhIASEgBAQAhUmIAZChRUgwwsBISAEhIAQqEYCYiBUo1ZEJiEgBISAEBACFSYgBkKFFSDDCwEhIASEgBCoRgJiIFSjVkQmISAEhIAQEAIVJiAGQoUVIMMLASEgBISAEKhGAmIgVKNWRCYhIASEgBAQAhUmIAZChRUgwwsBISAEhIAQqEYCYiBUo1ZEJiEgBISAEBACFSYgBkKFFSDDCwEhIASEgBCoRgJiIFSjVkQmISAEhIAQEAIVJiAGQoUVIMMLASEgBISAEKhGAmIgVKNWRCYhIASEgBAQAhUmIAZChRUgwwsBISAEhIAQqEYCYiBUo1ZEJiEgBISAEBACFSYgBkKFFSDDCwEhIASEgBCoRgJiIFSjVkQmISAEhIAQEAIVJiAGQoUVIMMLASEgBISAEKhGAmIgVKNWRCYhIASEgBAQAhUmIAZChRUgwwsBISAEhIAQqEYCYiBUo1ZEJiEgBISAEBACFSYgBkKFFSDDCwEhIASEgBCoRgJiIFSjVkQmISAEhIAQEAIVJiAGQoUV8P8btX40BEZDYDQERkNgNAQGYwgAAEvg/j/XXnv3AAAAAElFTkSuQmCC;" parent="1" vertex="1">
                    <mxGeometry x="180" y="160" width="127.52" height="90" as="geometry"/>
                </mxCell>
                <mxCell id="30" style="edgeStyle=none;html=1;" parent="1" source="18" edge="1">
                    <mxGeometry relative="1" as="geometry">
                        <mxPoint x="430" y="210" as="targetPoint"/>
                    </mxGeometry>
                </mxCell>
                <mxCell id="18" value="" style="verticalLabelPosition=bottom;html=1;verticalAlign=top;align=center;strokeColor=none;fillColor=#00BEF2;shape=mxgraph.azure.user;shadow=1;" parent="1" vertex="1">
                    <mxGeometry x="560" y="150" width="110" height="120" as="geometry"/>
                </mxCell>
                <mxCell id="20" value="" style="shadow=1;strokeWidth=1;rounded=1;absoluteArcSize=1;arcSize=12;" parent="1" vertex="1">
                    <mxGeometry x="190" y="895.34" width="470" height="100" as="geometry"/>
                </mxCell>
                <mxCell id="22" value="&lt;font face=&quot;Georgia&quot; style=&quot;font-size: 26px;&quot;&gt;PostgreSql Database&lt;br&gt;&lt;/font&gt;" style="text;html=1;strokeColor=none;fillColor=none;align=center;verticalAlign=middle;whiteSpace=wrap;rounded=0;" parent="1" vertex="1">
                    <mxGeometry x="360" y="925.34" width="290" height="40" as="geometry"/>
                </mxCell>
                <mxCell id="24" value="" style="sketch=0;aspect=fixed;html=1;points=[];align=center;image;fontSize=12;image=img/lib/mscae/Docker.svg;shadow=1;" parent="1" vertex="1">
                    <mxGeometry x="194.63" y="915.34" width="85.37" height="70" as="geometry"/>
                </mxCell>
                <mxCell id="25" value="" style="aspect=fixed;html=1;points=[];align=center;image;fontSize=12;image=img/lib/azure2/databases/Azure_Database_PostgreSQL_Server.svg;shadow=1;" parent="1" vertex="1">
                    <mxGeometry x="300" y="905.34" width="60" height="80" as="geometry"/>
                </mxCell>
                <mxCell id="31" value="" style="shadow=1;strokeWidth=1;rounded=1;absoluteArcSize=1;arcSize=7;" parent="1" vertex="1">
                    <mxGeometry x="190" y="325.34000000000003" width="460" height="510" as="geometry"/>
                </mxCell>
                <mxCell id="36" style="edgeStyle=none;html=1;exitX=0;exitY=0;exitDx=220;exitDy=100;exitPerimeter=0;entryX=0.525;entryY=0.005;entryDx=0;entryDy=0;entryPerimeter=0;" parent="1" source="32" target="33" edge="1">
                    <mxGeometry relative="1" as="geometry"/>
                </mxCell>
                <mxCell id="32" value="&lt;font size=&quot;1&quot; style=&quot;&quot;&gt;&lt;b style=&quot;font-size: 16px;&quot;&gt;Presentation Layer : Communucates with FrontEnd&lt;/b&gt;&lt;/font&gt;" style="shape=cube;whiteSpace=wrap;html=1;boundedLbl=1;backgroundOutline=1;darkOpacity=0.05;darkOpacity2=0.1;" parent="1" vertex="1">
                    <mxGeometry x="210" y="415.34000000000003" width="420" height="100" as="geometry"/>
                </mxCell>
                <mxCell id="37" style="edgeStyle=none;html=1;exitX=0;exitY=0;exitDx=200;exitDy=0;exitPerimeter=0;entryX=0.476;entryY=0.992;entryDx=0;entryDy=0;entryPerimeter=0;" parent="1" source="33" target="32" edge="1">
                    <mxGeometry relative="1" as="geometry"/>
                </mxCell>
                <mxCell id="39" style="edgeStyle=none;html=1;exitX=0;exitY=0;exitDx=220;exitDy=100;exitPerimeter=0;entryX=0.526;entryY=0.007;entryDx=0;entryDy=0;entryPerimeter=0;" parent="1" source="33" target="34" edge="1">
                    <mxGeometry relative="1" as="geometry"/>
                </mxCell>
                <mxCell id="33" value="&lt;b&gt;&lt;font style=&quot;font-size: 18px;&quot;&gt;Business Layer : Implements Logical Operations and hides critical information from Presentation Layer (Encapsulation Principle)&lt;/font&gt;&lt;/b&gt;" style="shape=cube;whiteSpace=wrap;html=1;boundedLbl=1;backgroundOutline=1;darkOpacity=0.05;darkOpacity2=0.1;" parent="1" vertex="1">
                    <mxGeometry x="210" y="555.34" width="420" height="100" as="geometry"/>
                </mxCell>
                <mxCell id="38" style="edgeStyle=none;html=1;exitX=0;exitY=0;exitDx=200;exitDy=0;exitPerimeter=0;entryX=0.476;entryY=0.999;entryDx=0;entryDy=0;entryPerimeter=0;" parent="1" source="34" target="33" edge="1">
                    <mxGeometry relative="1" as="geometry"/>
                </mxCell>
                <mxCell id="42" style="edgeStyle=none;html=1;exitX=0;exitY=0;exitDx=220;exitDy=100;exitPerimeter=0;entryX=0.513;entryY=-0.011;entryDx=0;entryDy=0;entryPerimeter=0;fontSize=16;" parent="1" source="34" target="20" edge="1">
                    <mxGeometry relative="1" as="geometry"/>
                </mxCell>
                <mxCell id="34" value="&lt;b&gt;&lt;font style=&quot;font-size: 16px;&quot;&gt;Persistence Layer : Communicates With Database&lt;/font&gt;&lt;/b&gt;" style="shape=cube;whiteSpace=wrap;html=1;boundedLbl=1;backgroundOutline=1;darkOpacity=0.05;darkOpacity2=0.1;" parent="1" vertex="1">
                    <mxGeometry x="210" y="715.34" width="420" height="100" as="geometry"/>
                </mxCell>
                <mxCell id="49" style="edgeStyle=none;html=1;entryX=0.584;entryY=1.006;entryDx=0;entryDy=0;entryPerimeter=0;fontSize=16;" parent="1" target="6" edge="1">
                    <mxGeometry relative="1" as="geometry">
                        <mxPoint x="324" y="320" as="sourcePoint"/>
                    </mxGeometry>
                </mxCell>
                <mxCell id="40" value="" style="shape=image;verticalLabelPosition=bottom;labelBackgroundColor=default;verticalAlign=top;aspect=fixed;imageAspect=0;image=data:image/png,iVBORw0KGgoAAAANSUhEUgAAAlgAAAIICAYAAACy6JArAAAABHNCSVQICAgIfAhkiAAAAAlwSFlzAAALEgAACxIB0t1+/AAAAB90RVh0U29mdHdhcmUATWFjcm9tZWRpYSBGaXJld29ya3MgOLVo0ngAAAVZcHJWV3ic7Vpbmuo2DI4Ljt1j0WCTrmR21Aeeu51spgvox166g0MtybcEwpeBMXMe/DMM5GZdLUsy//7857/u7+6vK+JyvU7Xy+WC3/z/6YLw/8/TdZou/u88XT4mxHmaPs6X8/nycZ7OZ/996hoaGhoaGhoa6kJqbcCYXslvIG7AndwY3gDvZUEapjwGDkY7Wv0+8jCjHbVwUHjNVOdDWRL49u2g64SFyuR1kPn25f1ADrIyfUOyZtejd9LAqCsbwBwWJO1MB8b7Zk0FKHdDko6DSkj0ivRFIk2iL2cAB4GKBjD3PZ+ZMOGm3jwc4wXINc9Hy4t4l6hmAAiKtlnv9IK5ymvRF6dC26MbrDb6h5JqeV8tB9CF58ODRa8WfVh6+gr0jzr0hzjf1g1MfNWKQEWQW4Em+qoOfRkm/APpmbNK8oug/XXbj11N+pK9f3VwEVOgSvrv2Ptvpnu6HMnWCsBA5l9Rvxxt/Kpr0Sf3v3/NZ0X5vlUVvQZNoUfcuwQF+d0Kiy9DHtAAd4TDnKw4qrf+jTHHKbnyqp+FpAcT9EVIWv7KM0IhT/a3kknbVQOELJ+wkwaPF5WPqSc+ZwAUgaSvPD1pPJjbAx6sDl8AFZfAkagvswBtH6wOXwLjBkFpqAOzULT01J3rKlfCVGl7HRjNr57+DHBwqhV6CggKduSJY/oLn28g7xkwq+XnG6h33H24KUFj/f8eDuCm9n9n/6NDI0CheniL4ZfA/pfxtc+39L8aGhp+Ffhw9K1BANYS8zcBV6DvVAA8KsvfAa3bIvC1EKo3aWUN2lWm0LOkr0LRh+rzKawOZl1BiZmqLG7YQJ0yHHe01FcFajr1eMbFekdSL8CcnBtkqECxPpNdP1A+lgKCBH8PVioyPLMBfqQ/4zZD74/8czTHOdejEsccRvcHJ0EKW2NH4sJpE9PRQEmn/YITZa6b8rSB+voQGj7yRAe5345zzbjUjpXdQI0ZQzeEDTH/iSOpolV8gqJN/ggK6Uk0rj36ByTTHYzcSXChCZCycMz9uC8WNKS1Js4HJMWJuZK+Uma+ttA3LvUZ0JF2vLslIm/UhdGc+NJw+wNpgbNiuqs/sZpMsTOgibut9As7Ud9/2HdxGHIzVna4C+numFi4C7hQRpIpMqLLbLI/cZpXNOp85ucGksKUvQDgyVCcQQVYVlb2eNTYpvqc95WGUOJS3yNfRDIDVsJ5aPZCtH8cHl3owFzkhRE22j96HPb5o/z5Yk+q1UUvdD+Qw5jCvPyMmjdMzUb7Y9CINR5u6R3tCFkKrPNhpuyOG3OmaI6roKRZVarv9K/WIAxPf88AWbGQIsp/SkOz/y/k9wFgoTk4Perer7HAne8c0DmKLOUP9v890/dMEudZc7hn+Kn+EJrB7uSs7R9mQyn/HtKUTLuA5P9iwEgWn9R23Ca/Tr0dDClh3y88yLtgC1/CG3Z37M8/FdCZcTf2G6TGcYgDinzdjl2RAoKXwY4HwyMnyfL8n9u/E+xCMrRNts1/Dq0DcI1vaP4f+Jwr1p9Cs3n+z+0f9+tHv46EXsXW+Iuz33H4UA79D9Lu40CKKHyC+pKKjLWQP61Tp7g2b5p/CmJnBee9POL0lnH/j7d6Z7kE3i5m01sk8yjLYx1UN4/Gj4E9PegVk+L4q/BU2mjWkFUZ6h9TdGMlJOv0/jncFIV5HN8MsuVz5Y0cXEr5aMV8pkygHOYp8h39SgmM6hWwSZ8ZRB5nq9hnkH8tw7njU30y8SzjyAAUPxZ4tkj2E2tD2FqB1GCP1lt+2TD/BNSLxbXYf2d13tDQ0NDQ0NDQ0NDQ0NDQ0NDQ8Avgf8MBr1fbK4IvAAAASG1rQkb63sr+AAAABAAAAAAAAAAAAAAAAAAAAAAAAAAAAAAAAAAAAAAAAAAAAAAAAAAAAAAAAAAAAAAAAAAAAAAAAAAAAAAAAAAAAAAppDOhAAAcrm1rVFN4nO1dW3PbRpbGZuPYUuRbMpV92BdVbW3tUzK4kuCjKIqSYl0YgkrkvLhAkIg5kaWMJCvjYfG/7zmnu0Gg0QABiiYpBaItgGgA3fjO6e9cuhs6ftO8G7e7u6OxMen+dDIa287A9Z1wODk/2g3H+uQt2/xy2ArHNV2fHBz2wrFj6pPunheO6+ak652N4ITmPtwjpJ9J5+jobtzswK/dnd7NWHum9bVAe6c1NV+70UZaMDk8OYbjW3D8Eo4fwPFrbaBta0dQeqkNJ93WaR9vunNC997xRmNr6E6arUNo4aR5fDwaD2EDh/1J09ujk7w2PkTTO6BvzSO2eUOb3RN+g702fe/26Nx2k761u7Q5YQe9DpwbTJo9Vthjd+95rJJjdj+2OdzBVp5gq/RJ69TA5rROTbxN69SiTRsOmrAx2cbCzaQANi9T2HS1K+0jHBtoQ21wX4SMh4+Q0B4PcAm12/tojxHac+uPcU90jM+rP1N07qk/MkZlNGjFGG1xjHYAn2tAogm/PwJa7zlWzzhWUwzz0MF2x+Cp2QwfKp+Jj2sn8NET+FhmEqHBPfuYyRAyGUI2Q8hmCNkTr/Mrk6rnwU7QhwOn7DE875QOlMHwa45hD7TrX6BvH6F8lp5ZpkrR8oE0GhxKsx+UgDJwGZR0/LOBaTaKgfmCg7kLCncBn5H2G8Dla39o77VPHNCNmFJ+gP0r7SoXTIP3WsMqTPuGbqu7rZ7TbR2dIUl8gEiGfuGea7qFsbRck2FpGYPS2OV36PqAQecGDLnhghwKPc9cmnOSXTHI5gXoJ+inIzwrAZDtMICMvqRbIYdIZxgFeR0V1WK2bhEhxnBCNkWcSKk+A1Bp3Yo66rwdtAulfeqgl7lqZjQWq2eLNaqfR8++4hj9ArbgVolOXVIxyenI88vw0gQ+5srx8TpNxv5eM0X6X0d4vSefPgCNAeQkbdolu4mU/6kQ3XO8DDNQIiYRfj0or1J2jUHmc8ysgV3Yds7fKaFC0/EZkGhqyiPZIfK/BTQvSiEZ2gUsZygsJ/oTBYGMuI0DST7J4nFE+DzhjSC5MbdE7CCyzC8RO93SED9NBhdl4CWbMTOcIHUuje+QeyZ4MQLcqC0a4C7gag6HDDPZaORjNo+DrCZF08l1kAOzfB+P3GPHZNAxDIthZwwLU2OkeGaYgG4jgg4tyCeypfPEZsnQjEKEOXMfRTqy6XIvhYKSgmhZpgqtGkOrxtCqsa7MCBB3+qHUldHGdA9K4Pg08lZ87fcZORKXodhgKJKLFkNRvy+KNkORqZgSRsdnOJo5ODo6TwM0eB6gwZHkilfjmlezs8BkR2JggtNZTil70NNBJbXfy/TiQlpZzHtWqyV1ZjTU/YXzHxkY6sMCyG7c0jDbM1s9W9SZ3xP/JdNVsZLCnV6ZRViDdJUxZ7oqG6VXSpRalNjrgwue363XFSdzSTj1oB+PIDx5qDhZC8dpI8LpCjyS2yUmhvN4rBHYcwZp3CToDBqdQaMzaHQGjV4QmhdKFeKjMeXVJ8n1+vJHX/LIyGEIOQwh516UfUDR692M6HVdRxg4SmCxCSaHweQwmHwGk89g8pW+fxvDTRpu6SHXKJTpGtyvbe2Y7w216yKuWBnXwXCGRQYbdGWQX7rLqR0H7s66DCqXOf9srCE7MZKP3QElmN7zRNN7Yqskdug1UtoSIyCSpp5wZFnclHJklZ2RdLFoRtz/rNgVh0r0yKMIomxFk/NvgapHYtY6k7amMfocyaTPpmdxv36aSUJPlTJJ7rAEnk8Tbv7lYsfcCw5kSaZxCd00AgtxjIP1FQfrFIcMOESbUXiOvhWm22Z5V/68kxMwmpkFkyWFliIUEqk2UuhUYGkUSGfgUfKwOFimy2IfinR2KGAj5avVWORj45bSiTMxfB3DEDNGONnDIz/V515Zvo3wlQm2ApBiJitnaCbwGagmBzUwpfzagOeImOGeEWGC6jJYXY6ry4ANXAZswIENXDlex52u2El0cFYU7YgEU6fLY9JuV6Q4vXS6TiUKkaRbCvzWoBD8UoouQj933DUjV2Jzv89m2IODRNjT1qItIc1QVCJNRhwBJkXvMsUvCu9mBO8t5VRwMspNEf9HDGqLyRaGPyyAbxH/x5EYI8msyLcIrpEDbs0uB64AzgijHAkBaM5mim/VOWQ+HaMY/9bn5N9CZoqn9kJfmiPA4bT7Cfq1VfQr4JR5wuFxnMMDOdgmJ12wLFSXAep1OTXz7wi0ESopWUQ4HYDyEvbS6mpo30PpCCCfOZaUHCefO/ucF/uV8AGSiurOmzhII/NfKmRADXfg6C18/x720FHHyHDmIMdiMVus37RAzISZ3wUjfwH/RdeNn6kKZyhsyXQx/fKJhRIOZnETUwgo6qfIf2nbgp4nlnhsWwxSYa73o4kHIzTYn2f6cFDcTS8120zyPjn9+QxInwHpphx17nrGZ5slAI0D+JwD+At5NEM+NEk6KA1oFMveSPP2ori6WAIHhxhLamPk85DLdK9hSSWS0Zj5dKCNchVip3saM9s6syaSkhbHuNigkemq9JQlgBaIsBgzssS4r1McYHVMaanGjKhnZ/X9cjCWCcpD7j2GSe8x9AuAWCTcvG8CSK2ipgpBFpXHo6BosE2eISn4sss97Cvtg8SXaIIutRAnZaG5VmFoODbDsJbE0C8BYU2ph0qnhg39zuPVCC1MEqbJ1ZC2Fm1Z763x7lscNKFwbJAkP1yxVJ1Wmiapti56ce+a+DaNVd+ePWgexSrSoDkSLOHFdiy2w/xrd8j9a9zpCAw9Efp1BUeypEcxTMW8wDaGMCpE+3YiuBbaVya6zrXXhKFqMoI6/uOYWipMA1cdsDR4dq3BJ3U0aixTRGGJGCNvTsMUMWYuZcezQZxG0/8EGH1yKPPV05nX9ylhUVjMF8u9lZiFBfGhUj3xeJsfb7PjEZRkrevcWNeZhgpISUEPWGhYrrO/JTzzrUvSQheaN1jGl+Sa2VcOhkqRtNK6ZCUmsmbIJGdgclWkiDljLcgZQHVJhvojOeDCLX/CQbS01hzT2+pF1tEUCWmspIuTBBBURZGKKJY2M11FLviA2egyOG1OcYI4cJ/cnD/zEVMamGJLjwRkxmydC5QGxhiqyNBYKmRbkQfzniZJY9phmJp6L8NWm3fMwSg+ChjFKlat/KRA4QjOivoOhOt8kHadZ0H3OrK5F7Tqo+wwg3qE8P6qR/PJY+MMvtKbFspXJBMrW2Kl8gmPphsNFqQdmKId+BSO31LCa9by00V0YKd4AlbCsDHbaIjpqZI7vaDuK3QQ5+aPKFf42XUwNZPSUiphw00OdoVKq6EeP5Qm+AZqClT5g3IaZzrMxb2YeB6bqSs8YN1hZrlWTlufR5HzFYUy7wF4vkQiX2cXNyEuz067yiVymAeJIW6WGYHJ0lrm33jpIHAWgi9iCP6LkjjblKkojSElBkssdo1wtGeH0nOPD2CsXMAIURIiqCsmpNMkHzogdsTwS4c7k/iIbEA25l3KI4ezpPAdl8LPNOIV0OzXGxp8QAbGHPH2lGDK0wlbSlVUsZVsklRsyZuiVFuaS0p5oBbPEVk8tQ5b4hIunrh963DhJJKZJK3YUJmbHClDf3/SPmrdjdvx9X4hnw5/Rcx9RWJhqffprMkwlmCSzzkrcA4XV5sB1mbc0WY4tfdIy9vdFp3S7bIy1CnYnEMZFO5HDX4NzQ2i0YEB143b2ADMTcSMAZ+BgYYo0H6HXi3GEtr7PwMMJ7vUgP1D2N/v4BtR2uyFJzr9TGJFhijib0PBsrdYpt//PsactxBF+KMQaReQCeBpMRr+DcSBKFxLIlWfc1bgnPlE6jOR+pVEy0j0GZeoR4iMYjO9mYROCKUPxKZnmSXzSUxnEtMTDdrgDeLvZokplqg4XnKWWTJfk0zWJLNSojJK9HXE9CMagEkSwkbU2Rl6aVWKl9yLz61KbmXktpmw0OiexkPVuNUVZWc5ZfNJzmaSsyvJlZHccy65Pf4mhT9oFk1cfs+5jFRnnM08Yz5ZNpgsG5Usy8hyi8sS33nR11r0xO8psyFSmGH0Toxk+dmM8vmkaHC7jNuWEWt4u2UmvlmJb3biW68v2XXBNZ1p5iZaHiv4JFl2llM235OF7MHCDA/Ipw4wXbMb8tEycfws4/h8jXFYY5yqs5TpLE+5tJo03nYTjcKF0aJ/PHqmPDqfnAImp6CSUxk5bUSRIhoWtoZWdgenJbI7OC2ZT2YDJrNBJbN5YsFfaErfMMLjWWRgxPGzjOPzSWvIpDWspDWPtDoU9Aaxl1MKgymOn2Ucn09adSateiWteaTVJkQGqb41PX6WcXw+ablMWm4lrZnSmuxTAnsenDY4Th69HPGOnO8pPjVVoxpWQ28kGqX/YLqi1Dbxkyy1HVHad/pW30iW1kRhjX6ShfXo0sEQP0osXB0/abE8vOYvQBvupQZYgg5MUg1sJY51u2b4yce1IgXvD9zASRa6UWktMIdGTfkgw3DQDwZpUa6mCasSx6sYe32Es7q0gOYtzQFiU6emwrGUbWvoel9S40gVWfuyiCnQFT3pc1WyaoD3aGIVDbnSLKF9mloKV80iQVO3Aj2TRYx+o270s1jEGNqh7WSxiD8MdCOLRdI3NuQWFSLBtW7+qpTiJVcKHG2/otl2t9opX73722y/wWzovtPI0Pi6Ujb3uM+qQHoRsxR96je3tCiXiGpWr9F1y0W/R612um42/HqW2gHX1ORra3mX1nMuNeQWFeo1a938VfcaZqMiAlWohNKIpO1EzIjoOv7PbLZKcJ+rklXB+1pyBWJOwCyIf5g2oq+bvp/x/OEghOJkYUO+MhfmBVe0Kqi/jmKhP/jsDvzDDx9mkZpKucx4odzt7Vi393M4QVZL8F+nt83UWdGcQoy2vm1flRKIxEGULpimEGY5ACKqz2tVEQeg2H1WBdBmgu/TFJTxSNnt4VFEQWiK3GfV0MTexw5lM+kjnTaYOhWYGUj1wYhRazVZU2KdEC+sS4X1WHyGl2d5mfCvMIOscfNXTSJ/iezjXrt1N95rx2Z4DAmmQ5rUjNF1E37f0RtlxKDnMFqf42u3k72Odzdu7e7hrzdQ/n8Qlf8O0UWbkpJDYuNrzsancOWF9kljrwb6AKb6isRxDcf2tJCWeqPpPoPzT9jCqUlr92cy79MWbcfaNInV/DW9fPGC1xUJlt/hqfY/VAP/SFd6tFBrQJ6Z6kp9+pGujLf7mF6Mdqi1+JX/q421OpXWNAM+umZq38N+AEdwD48N6O00LhyrQwmrw6Ez6/DbgBL8NknU+hxqHWBYS68XoAW1sKWUPa/5P6R2bsbetrhDIfFFhO1/Qi2W5kg1HBCOTZIhLj6VUdlI4gl3CKUaPWrTnyD1vvYPhhC/9gmcj9HnDbQhfs0WvQfyBvRH/D24S3q2m4ynej59lswrLKlVke6AXuLqslvtPT/3C5SQJN0mLZm6pRlnHk0Zvo1wS7dmem8xa/yaWZOohnoK56lcWvzVWD4NlMWlI2vdRqymHvSdPzLbtAGtvqC88HDmmXxlZwoX+cyXCZ0/hDazJQ4j/nJvdtWX3AUfStdO23NMMzZv+cuuR5S3FjUa0lVs6VqCj5T9dADtUvXT19HTMSleZ+Ktelr2h81Aq4DVfOq9qt6gJz+Ju7yg9zL8yUPr7B4VvwP1KKToEuy8wdn5V9KqX6G1v1UMXTF0xdAPkqGtiqEfHUNvphlaMyuOrji64ugHydF2xdGPjqNFjqNLkxYrD7pi54qdHyY7OxU7Pzp2FjmOLuCFMkJ5VAxdMXTF0A+RoWsVQz86hv6GM7QHbRYv8WLn0yIFjf0Jx4qzK86uOPshcrZZcfaj42zhVcc4u2LoiqErhn6QDG1UDP1AGVqBxopn3k1bVLFzxc4VO2exs8y51cy7vxI7r3LmXcXQFUNXDL1Ihq5m3j0+hl7tzLuKoyuOrjh6kRxdzbx7fBy9qpl3FTtX7Fyx8yLZuZp59/jYeZUz7yqGrhi6YuhFMnQ18+7xMfR6zbyrOLvi7IqzF8nZ1cy7x8fZq5x5VzF0xdAVQy+SoauZdw+VoVvQfsQwxlrRa5IZQ09fCfgucday2Fq0cDtRe3HOlbHwJX9iNu/60Ncamg2fATyfuxDefZFoc5b+1BfWWzYT9eXPzUrimeZ4C57Jybk7e8XqtAfapXVPjIhwJn6wulaT8g3rq2toscxHoW2upG0vuLbFuVf2Rp9xfcOcAXgSS9O4rWmNoHOxFlbe6F/MGzWlVi7SG5Xv/hB9UXluWjXPeBW+qCE992J80TIMjX+/fkT9azkM/XxaozaoOLri6IqjMzlaztNWHP148gUvEyy1TS1nf3/uIha3bSZWNYuy5TC1uu5yfGnSXwhzoa9ANAQoIDea8NEjvsRjeA4iIdByiWFDitmQNSclecUu3ZdrJWYa2QvsQUX7QpYuluwLc2jgVkILlp+vyq5//iyCL0l7th473JqHZMfR2tfhY8P58+vxXzljVUz3XlIPv6AemJC99gN+lqSBs1oRR+G/QXuaUEdILWA9+x3UdU29G+3in/D9NmofSu7fUU1PSJu28XdJ/exrDdCwAH6jfzkkv9QmCyr0EzNfqJ0hsS/rBXg28jFq9QDOT+rnE82X5P4FnONI5wQzPEmZsZ5pg7x8WUJLtkDzBuBtfqTzt2P9Wvy5th3izysoO4r482Zp2U117eugD8g3NpSHFIsYxFcGIGCn4hSX64NPvIaMNoD/6LE0UnHKgOzsLbTzPfd039GTDCJeMEGjZG79jVD7AL/fwb7467pq73AzcXZfY39aTH3uVqw9zAZia37T+hmcpj5/mBllPVecL7co+4o4QtM2qRB6CVdcIVuSN1q0rtfSVdP6ZIxVdb7KvDpZa5H2Fn/SF0p8Ztf4QiGJtCbJvn52K/M1VsamaI0vMq7L07Hsa7L1+KUSxSJS30j0rmQd8ohz8sz4ExglWfo7YMDrKDLmvrr2d9kXX6pNL9emdWB0C7gZOblPfiXzOxsgYyPhgWI5aodOXgAyeoNyDgOy9HLm6TWcnUbhHSGFWnkZRUhpHQwkpDKvKqUrm7E/pbfNZX6xtHhXVXdZu4tI2+QhBhTl+pT7a0hxAkrOT+QHKedGY5RDSUpP4Zn+oFwFPuGnGbkkkZFAWQwyrceTzIyqKsosHXWUkvkGHEEGvCP9WyYLqGpev74+jPq6dY++vslYnNp/pY2o795M9jsgpv1O7258frSLf/jxLdtMpsdMx2FHcSd9T7AhC73n18IfWOhdt6b28f73LaXdr7UDepq/Q+SIGeePpJuoM8ify9T2Ii1ZP+0fRNpv3kP7t8DCXZBti+JVqbXqMYxNuI7p4mybiB55GtciV76i7EJBK1xK+76Kr9pYkp4l61wHjRqQL2xTDrrBo2HUlJoiGha5EWU0XNKuxbICS7Zr6ZrXQw7xrIQZZSWcKitRZSWqrESVlVhgVuIJ8CeuWxxGfPyKR/diDeM2z93uwPP9gVn9JbHz7HasA1ejpbTgN/pTPnF1AFubxhHiXO3QGFfOTJcZUtkkdC/5XCA2D2ZZGXx13euAfkgziHSSQUhIhzRaMx1v1Al9zBbkWsoE+l9G43IM++n35eA9rW89MDagLCSOs6MxEhFvl/BGcjHeEN+hjceE1LJm2qlqXj/czc+E+yttH677SLHUiMYatyM8lumLz27HOsgk6ZnrkWdu3cMz/xtZ6/iTC6/qmqy3TyPBH6N5O9/A3X4gzsv+1GZI/QU9nYi9VyPx/Dasg7QdkJZLVroGT18j6xLyeNimvhhS5tqgOQUOzS3AWa/oybl0hq/JWeq/UbZimvWYSjp7vF+OHbLukJ6H0EhlQtKa0OUahnmdVWlCXhvWQRMGxMUWzedhXGxSi13SBBxdckgTsHeHpAsD8klsYoKQen4gacK3Ud/Gp47L8Z+w9bWLxDjGF8gnieu/ybw+nRH7AtoySxO2tF81XBH/YUVakF3/OmhAg6+Mw95fizKrJlljXDXXJy5AtqjRuFafeCCkkS6TcrHo8U+kWPXf/IkLSS/BAaorc/QmIfmnfHbWNc1JvozWPiaPLkfqcq3rIOuAbDfGETgvl0UVbKVCOqqoF/a81KhvJY8u3fvNrn8dJGHQPLyQsiEsI92gXlhP+VtiPun8kngJ6FzSmhJWsh3Nn17uLMr8VqyDVJKRiT1/ZBKr9TtivOlzv6Ps1Q2t/r8tuN7n25x7zO1HF7y/irWdFPM+AWlfaWwdmej/O2QjtqclS7a6WfWvg6YNSWdwPjla2ICyazr5Wd9TSZ/PE7EAa4O8dbZqAm3tkCw2+mOy3+XTE78DzMQTv6P4C7fyPN2sEc9XyrsU04KvtF2q4yNcfxONQMaPLWsEMl7nOsg7pMja5lwecN+qEZuPy+Zn6yDfovOzN6iHflLIFufyNEhDMGvYkNoaRNhkX9kgL98qIN/XtHKBPf01WVpkz+0VSL1IS9ZBFwbkXdfJ72qQLtQoomokdKFPMXcjoQv4P6Rz5eh7+brwDeXMP3GE2fqNT7Bv8xbjnPg9riPxFVgYA7H1d8u0BnktWA+dcCnbMqT+zjxzl7Izcc+8RqMtFmVg8Df7bpMecZ2YW0Yb5I9dsxl9S56tkK75MchkQMfuI5OXUiaxR4jicy7Xc89vxeOQlcPsa0JW39KY7IjHjx5gO+J7uMrZp7HbqbSeTccQlyqfdL0PRyJ1kEOdco91ykHi7xpZRoc8pHSEy95skVwnKN59eUKYYeyyrDnjX2asi67eXZGYmZGYS/UY3l2RfrvX7LdXYMZSXjO72jdeyqveF/8GC/mvKy3iDRbyvK/qDRareYOFmovFmwYPqF9dVTxc8fBn5GGZDR4mC8vXPAQWXuRbUNafhd31YuHJsQc0POns9O7Gzd2j0TgMdfqZtNk39jNpdyK2fkbjGu+m77KIfOcw5TufZZZ0W6f9MdTSa45ws9emjXc8GpvwrTcaG5N2t0WndLus7IBtznEz6Z0378as4icAPwskL+Fx3tyNf+nAOa4+OeDbnvcr3A+eqXcIT9E7bI3G9XBgh5R17p23F3Ojyd55527cPu7hI+wedXHTOaIn6ewQyEcn2PQOFuFNOj3+HZAwJjudI7bx8KF3dnbp206LNh7cZghntvCCfbypPvmx89No7ODWY19P2aaD1++3D3Hzo4fn+LDdY197eLsfvSYBe9QhRE+wcfveER478s5w02KbI48ksOsd42V7ux4+zMlbD78defTtoHeMNzno9W7Ea3qHZFD/pC1NTZ6ct6mJ58fU/l6XbgdX4ua8tUM3b5/DDbTJybF9N4Zfo3FtQpuQbQy20aUNbNt4PqiPM6ENdO69k13c9naOqLrOL1Q5NhQKj0/gguOTFtU2OXoLD3+08xa0/80+PutZl+HApxQ3NfaCbZx+zoYtBthl8JTjXdq0DgmO3SPsIHt4t903eHzv6Bj06ng/OnB+2qZVgWxD6wHtBlsOaOn2hHTNCOtM2fyAKZub1LXGwHUmtO/quum7E3G80R+KfcMZNsR+YNejc/oDMxD7rmP5Yr/WsPBleL0d0ILJjAYbNd5ix+UNHhiswcFQ0WBXN5y6LSoK6zYUHu8KWknu84ey7FCcb+l6P/N80WD4+fkQJPozEwNINEuYT8Ea+pQvw3msRkKMRr4YZ1di8Eo2wMANgdC3p5WxioxC+pKqaLLfbd2N90/PUQT7p29p48E3qwbbt2zLmLpGP3BFC/zk/RZVtt96wygd/8O3A+zprZ+xolOPmPfU26F+9P9IROessL7TjQAAAL5ta0JTeJxdTssOgjAQ7M3f8BMAg+ARysOGrRqoEbyBsQlXTZqYzf67LSAH5zKTmZ3NyCo1WNR8RJ9a4Bo96ma6iUxjEO7pKJRGPwqozhuNjpvraA/S0rb0AoIODELSGUyrcrDxtQZHcJJvZBsGrGcf9mQvtmU+yWYKOdgSz12TV87IQRoUslyN9lxMm2b6W3hp7WzPo6MT/YNUcx8x9kgJ+1GJbMRIH4LYp0WH0dD/dB/s9qsO45AoU4lBWvAFp6ZfWSDtBFgAAAX6bWtCVPrOyv4AfxXpAAAAAAAAAAAAAAAAAAAAAAAAAAAAAAAAAAAAAAAAAAAAAAAAAAAAAAAAAAAAAAAAAAAAAAAAAAAAAAAAAAAAAAAAAAB4nO2dYXHjMBCFCyEQAiEMLhACIQQyUwhhUAiGkB8HQBAKwRAKIZe9szNt5uJYlva9XXnfzP5La0nfWlqtZOntLVRV1+vVlYXqis0z+HPF5hn8uWLzDP5csXkGf67YPIM/V2yewZ8rNs/gzxWbZ/Dnis0z+HPF5hn8uWLzDP5csXkGf67YPIM/V2yewZ8rNs/gzxWbZ/Dnis0z+HPF5hn8uWLzDP5csXkGf67YPIM/V2yewZ8rNs/gzxWbZ/Dnis0z+HPF5hn8uWLzDP5csXkGf67YPIM/V2yewZ8rNs/gzxWbZ/Dnis0z+HPF5hn8uWLzDP5csXkGf67YPIP/XfvT719i5xl2HH67vRm73I/aDWUT2+WUb0X8R86Xm/U3uxbY183S8P/2JH84DnV5VsY0+OxmqnwN898M9b8MvEp4z/GH7mYHgC8cMv23nypXg/z3Awtt5lO+cFYaJz4KytX9rzwN8Zd3/ZPEfKrNa/lBV6k8P/5pA/yPmf0hqz+YHIdf6L1ieY7fy+GYv/TzyQDfuSY+uiRW3J7qjmVf333RIX8pe8k4yLaPTB/QqOvZKf/9yXZfP9ckTpkbF2jEsb1D/mcD3GqacH2Vq9krPv/vsx3wl/5+Ks/h2cQHpnIGmj5/cMBf2Fub02nYj5j8mzT5n43z3514ORwrPrBW/mtjP9rj/NAC/6z1pGBfZI8xoQX+n0D+Mt73BjiwfWDMz1jgL799B/jAWmK9OTa+c1b4/8gZKqkz0O6W7GNgZIH//fdKOhpob4um2R/m8tfqA9Yc7zEtl//9byrL6pifTv/Wy5/tB+yG33j13SX8+8r8LeX0P4c2WTLflb+RGNlTnnoJf7Fae9xqr2svMXm+xFk192ptBl/oDTDW4N9Vaivmu1JjT84cWd6btJT/V4U201zXfGXid+g9/JbGuVL+YqV73hOhvq/WWrUlMYKlWLeEf8k8gPHuS7uj1zGeqTPAvpR/KmhL9Lgv7LXH+VxZyHeV8L8ubM9tsL+L7QOl/Jf0p8h9u5bZj2L6QCn/JbEUar6PWK+qJdbcoJR/bgx4ANbNSqw3V4xcSCn/3O8YOmS9nImx76WUf8psZ0Tfj9yrVFvoeTGSP6rvZ53FUEvIcaCUf5/R1oi4/+KcvQg5Py7lf81ob0Te0+K5PEuEmg+g+G8AdUmNsBeh+gAUf0Rcw1zX0VDXEH/t/qzGerQ1Id4ZFH/tmDY3D+FFfSP8tWO/1vr+UdpzJhR/zTrMLYNHaY8BCP7asWxqmL/IO3+IDzes5Jy/dt631bF/lGYMgOCvPffznu9/pZrnPrbIH8GAKc3xM/jbV/B/bv0K+Is88+8U+afgb55/Cv7FCv7BP/gHf4/8NeO/4L9u/nOe712a6yfB375i/j9tXr7xWirN9RMEf838tVjr+X9L5z8u4a+9/os4l5Ypzb1zLfDvGuffO+cv0uTv+Xu/V9LeO4Xir/3dZ6sxoPbZECj+Sbkez+7O8S7tffMo/tr7mFv47vNRiG/mUPwRZ9y0NgZoz5uR/HeAurQ2BvQN8Rdpx4B9Q/xRZ2Ug+SPOtWglF4g6IxbJHzGetZALQJ4HiOSPOtPAcxwgMSzyPgQkfxGiX/N07uOjkGejMvgjxgAxj/kA5NmYLP7Is608jQOs+8/Q/EUJWD8PZ8Ay7zxl8EfGt493KVsT+75bBn9RHz5AZ8/kjz7v3JoPWLkHiMUfPc8dzcJesQOp7pb4i1h3HsjckJEfkGei5/eW+TPOux9N3j9kX3A82XnnrfAf24VZf/E/zTyB5bs/LfAXJQPtMN4BXCNG3A3/y+L7bpE/Ym9Iri9chraR9eSpM+U3w2/Ge789MLfGX2Txbtw1mBX+omSgPdZmlvizcgJrtr0h/iLGvdCWTd4HzTyhNf4i9pzQkmnniS3yF1nLkzFszEtoPmM7k/8fUXotyAIpDz8AAAhLbWtCVPrOyv4AfzALAAAAAAAAAAAAAAAAAAAAAAAAAAAAAAAAAAAAAAAAAAAAAAAAAAAAAAAAAAAAAAAAAAAAAAAAAAAAAAAAAAAAAAAAAAB4nO2deWwVVRSH1Rg1xi1RY9QYjUZjVFyiuIOgqCDuUYwJKiBgxU4FlB2UPSw1QogIuGCASqFlaSm0tCBSoAsILTu0FAoFSqEtpQ+6vvZ4zn2i+Prat/Q93szc32m+/9pm7v1m7tx77jJEIYiD5bsoemMEfbb8aTJWvOATkYntqX/SS5Sc9xtV158NxWWFJU5Xn6TpGVEUtaIDl7P9+fLmMR2YS/hXwklQo5F/VufPo36Jz9MXjK/u5Xe/WvUKLdrxHdU5a4J9WWENeRZ6L33cvcyLmdvs5F/KOWn9p/Tp0sd89i58nvAsDU55jVbu/yWYl2OKOFdXSYn7fuJ28Cn3cg83gfug+K+qd9DC7dH0ZdKL1C/hOb/cR/D7YejqN2jdwbhgXIrp4kjFPhqc3JXbt3YXlrue6WoH/5lHVtLw1HfY4zN+eRf6LnuS//ZtyipKbu1lmDayi1Lo47gH3cu+kXnIqv7rG+poV0kGjVvXnaKSOlDkf30an+mzrC2NSnuPcovXB3IJlohiRyFN3xTF93lb9/J/ZRL3fvs/eiafZmQOUP07f52f55P4NjRnywjVL7ZzyL3dY8nDalzjVgedrOa/9Nwx+nXraPb+nKfy+EzP+EdoXs5EOlNT1oqaNX+cqSml37aNpR7xD7vXQQZzv1X8V9c5aPHO79XzLu4D9S7jXnlPLN39AzlqTwehhs0d0qfpu/xJT+1kFHOl2f03NDopce9sHpO/ShEJ/vft3BmwshPtOLGB/29DEGvZnCH5i5jcyfRR3APu9XCOedBE7v/nX3I38k4W74NTuqpxeWucy3tCxoTfbeyncgNyT+kQm7nPL7msiKa5z4XMrWbz30gNdLhiL/381yjuz3cMqD/vjrR7A1a+TPP5XV/nrA1thZsoauur6OctozyN+YRnTeZe+Xfl6ZvkpwJG/tfItHcp64h9x/XNRUrefNXuubWdTmYnc7MZ/QfLe2RiO+V+RtZAOl55MKT1bMY4VllAU9L7Uq8lTfLfDqY3c5Vd/cvYQO75hL2ztOjjeYqftoxQeS0P4+MC5kYTug+Kf3nmv13bTeUEdY1NhYkql+1hvvs0M4q5zI7+Jf/7+/apVFF9KpTVa+qQso/7o7uaz/BQRzLPf71J3Qfov70aJ4xf9xHtOZlFTk3Gdc3FzKxBPM7t6D7HJ5Qzw0zs3m//8p4flNyFkvb9Qs6G+tBVqgWi1lmj1ip9vapzc2tdcpk77eBf7m3JC8zMHkQnzxaFrlItEjIHmnN8nVrT1cx8SDUz3uTuffIva5cm/PkJ7S7JCll9Wi0Ole/ylidbz9xkZf9qbU7K67S2IJbvd31yeN5C5sC/WfN+S3Pg8uwPtIB7j/7lvpaxfOyOaNvP0/obRRV5NGl9LzW318Kzn8Bca0X/0o+RtXx4xzeNippSmrttjKc5/QupYnpaxL3yL+3Y18mdKX7XdDp17ig1apq/aynKqk7Qj9lD2H0bb/2laAu5V/5jt0+lEsfh0FScDaKE28JpGYZau+TFveR62lvNP6L5OFp5gKak9/F1T0Nvi7mH/xaioHynWuPcp+n6XU/EMnfAvz0i/dAyGrr6TV/XQFUyT1nQPfy7RTn38xbkTlRrlyKb5vObI5K5Av6tG7I2Udbrf7Omm6/OzxPD3GJR9/BPrmd+Xs6Ef+c4fPTewBQy91rYvfb+Nx1OpCEpr3taq+sNWdfRkbkc/q0Xhaf3qjMZZG+DH+/588i8vln2b8O/HyH72GZtHqLaeX/Op3Br9xfYxL0W/mWdSt6prTRn8zAayP16D+t0/CGNuQH+zR+1zmrKLkpW83VGEPa0MFuZR2zk3pb+y6qKafHOaapf16+Ve9gu4Bjzgc3c28a/o7acMg4n0eT03mo+M4A+XUs0GuY6s0F7/87Geiqq2M/jtxU0ZUNf177F4Dq/kNE2dW8p/xXVpZR+aDnN3TqGhqW+Fax3uje+N8y1X18L/7JnWPYQZvDzPT9nAo1MfTeQHE1rmW2Yc8+mbfzLWQnFjkO0vTidEvbMUq6nbvhMnRcRwvbcF5KYu2zuPuT+xa+MvQ+U5dLGwgRKOxBDC3In0azsIfTtmm7heKa9IX29FYY5zua8KP7zS3N8oqBsB+0uyVQOV+3/lZmrSM1fQDHsdEZmf3U2WPSGCBrMY68A82vhpI75w7BXfserfxPUuxmQMzlXG+beqwn/oUHO54jRzDv8u5D5nBmautfdv/T1xmrsXmf/4t4qe/TgP7gcYd6Gey39b2MehXst/cu6ndvhXjv/Mr6Td/01cK+df9mTKd/aMOv5a+Em3H5CheTz5Lxlq5zDAP/B4wTTC9619C/ztvfBvXb+a5kv4F1L/3Le0t1wr5V/yd/mM28Y1t+DB//+ccZw7b8z43n6ViPcLv1Bvp80k7kO3rXyL229vOORt9fP/1qmHbxr5z+T6QzvWvmXnG0c84SBfL1O/uU8jYmGa839pfCujX/5PkYP5mo418a/5Glj/2njw112cPH8y7zM54Y1vomhE6HyLd/AkL1UEYb999BamWA6l3NwFzGvGVh3YRVa6zybmWK4zr236hm4OuPv873ccH3TsJNh73MxdKE517JH4k9mGvMhcw9c2xLpl//OjDBc3y3qYmCdNAAAAAAAAAAAAAAAAAAAAAAAAAAAAAAAAAAAAAAAAAAAAAAAAAAAAAAAAAAAAAAAAAAAAAAAAAAAAAAAAAAAAOCNvwGB9qsPWBXZ0gAACrVta0JU+s7K/gB/V7oAAAAAAAAAAAAAAAAAAAAAAAAAAAAAAAAAAAAAAAAAAAAAAAAAAAAAAAAAAAAAAAAAAAAAAAAAAAAAAAAAAAAAAAAAAHic7Z2Nkds4DEZTSBpJISkkjaSQFJJGUkhukJt38+4LSMlZrx3beDOe1eqHpAgSogCQ+vlzGIZhGIZhGIZhGIZheEm+f//+2+/Hjx//HbsnVY57l+HZ+fDhw2+/r1+//qr32r5n/Vc5qgzD+4G8z+L28Jb+ubu2jtVvJ3+uR1cNez5+/NjW1Ur+7v9sf/r06dffb9++/fzy5ct/+qL2F7Wv8ikqL87lGOeRTv1crtrPsdpv+ZN2nVtpWl/VsWHPSs6d/i86+X/+/PnXNvVP/y25lAyQOTJiP+dU/sgUmdf+bBf0a84lP7cT2gLlG/bs5F8y8viv6OTPMeRCf7UMkXO1FfdZ5Mc14D6+OoY+AMpjPTHs2cn/rP5P+XfvDOh55F5/qy0g19q2LP3MWMnfegDo+5WedcPQc035I9eSVV3rPkhf95jAefhZksd2uiHbifWM5V9txGkM/1J14v5ztB9dzVicbR+nX2f7KVlZ3ikP+m3mXdd5LJeyrG3aIHqGMcnqmmEYhmEYhmF4RRjH35NHsNen//NvL+9Z8t36Hlzqa7o29a54hMvo7WoHz+ZnSJ3wlva+u5b38538z9jxj3yGeZ73db7ELr2V/P+G/vMWXP70s2HPw6aOTSb9d+nbwxfka+kjnc+Q+iQ/zl35A03nb6SMXI/9yL4s2y/t39qll/K3H+JR20DK3342H3M/KX2Jziy5IBtsvuznnPQL2GdYICPsdgXnUee0D5P2Z7cd2gz3Qp6ZFvLu7NmZXsrfdfSo44Gu/wN1aL3gvm0/jn17XYzQLn7IfdB2X/f/SjvreOdvzGdK9uv0WV2S3rPrf0C26QMu7KspmeFvcX9Dlvy/kz993z5Ax/tYn8DO35jyJy38AOTTyf8ovVeRP8/2+puysbyL9MXbF+f63ukG9InbCbrFuhh2/saUv8/r5E+cypn0Uv6c1/nD/nbsW0s/W0F9pT8t/Xf27eW11G3R1ZH9fTxHyGPlS4SVvzF9iLyndeXxeOZMet6mHh5V/sMwDMMwDMNQY1vsm/w8Pr9nXD32gBljvx+2ffGzTb6LC70Vf8P8w2dnZ9Pq/ODWCegOx4Tn3MD0LUJe6/NrX2c/zPKgr0Y/nKOzqyD/ld3XdjB8fNiO0BvYfz3Hp0i/UMbu22fnc+y34y/HaB/YkfFJDcd0/dx+F9d7kfLn+m5ep32Btu9a5vgPunlEnuuX88/st/M16Ijp/+dYyX+l/1d28PSlp08dGyntIvuxYzDOHMt2WeCT2MULDP/nWvLvfH7guV8lL88FLM70f3BcgMvJuXnOsOda8i/Qyek7L3iGF9bhznP1/F/pBrc5P/8dq1DM3K813btc7Vu943l83tkCGMPn9cSNOJ3Uz934n2cA5Pu/y8qxTHvkPwzDMAzDMAznGF/gazO+wOeGPrSS4/gCnxvb3MYX+HrkGqvJ+AJfg538xxf4/FxT/uMLfDyuKf9ifIGPxcrnN77AYRiGYRiGYXhuLrWVdOuGHGF/Ej9sxPdeQ+OV3xF2a62s2L0jruD93H5l+5DuKf+0MzwzXtcH2xu2ucJr8KxkbPljf8Emt2pLK5uc5W9/ImXy+jwu48qeYJvB6l4oM3rM8s/26HUKn8GmbNsrNrv633a07ps8mYbXEMOvhw2+azdd/y9s02MbW2D9T9r2+dBufb3X5/KahKvvC5FHyt/rjrEGmtfEenSQEbhedt/kMil/PztXbcZy9TWd/B1v5GP2H7Of/kl67D/6vpiPkU/u93p494x7uSbYxyH7hWW5ei7+qfy7/Z380xfUxSLRr9HtpH/0DbndMfwU1vPkwfFHZ9f/7Xsr0o8Dt5J/1x5s+3c8Af09fUfdvezaRsaokF76KR/1nYG27HpJHXDkR7+V/Auv40vsAKzWnM57zXvZyd9lyO8L+5pHlX+RMTLpx9utr89xr6eZaXVtZheXkz6/Lr/V/t19rK7N6/Kcrn6eYew/DMMwDMMwDLCaW3W0v5sr8Df4U3ZxrMPv7ObWrfZ5zoXnCh29P96CkX+PfRi2oeWcGlj553ftxbaR2nbMP9/lsN+p8PdE8P+Bj/la25PwLXEvlj/fs/E9v+o8EcvMfraMm4cj/d/Z5q3/2ea7PrbT2UZr/4zbInH++HqwAXKtv1Hobwk5xsRypiz4iO6tp27NWVs7HO2nb+Y6ASl/QA+4LWDXpy3YN4v8KHvOG7Hfr5tT0u2n3fq7QK/CteXf9Z9L5O85H+ju/Nagv8m4k38+DzqfbsEz6RXnCl9b/18qf+ttdLBjbezDQz7kcaT/U/60jUyT+BDHCDyyP+cSPG6ij9GvbiH/wj499+fdPPK8Nsd/O/njx6v0c/z36P7cYRiGYRiGYRiGe+B4y4yZXMV/3ord++pwHXjntj8w14u8FyP/NZ7f4Ph65sfRj5mDY79dprOyoXgOXvrqbIfyvKCVD9DHKBPXZvmx/zp+H5+my9PZo14BbKBpD8Vu5zUaOa+zqReeV8fPfrdcOxTbP3b+bo6X7bv255I2Zcxypd/R/b/zVWJTfnb5p/6jXrn3VQxPN08o6Xw7K/lTz+lH9Pw0fD/YZu0ftP/Q97YqP8dyjpf3V37PMs9vxU7+ltmfyn+l/1P+Of/XfmSOYavnmOfy7taH3MnfbRRIizb27G3AWP9b/91K/oX9kH7Ocy7jEtoDeZzR/5BtgzTZtk/c7e8VfEIe/61k/J7y9/gv5/jZB5j+wWI1/tvJv8h5/t3471XkPwzDMAzDMAzDMAzDMAzDMAzDMAzDMLwuxFAWl34PBB/+KtbOMUBHXOKfv+TcS8rw3hDfcktY/5i1czJ/4rEo36Xy57qOSuvstxa6OJSOjCc+4pJYQOKWvA7OUaz7Uf0aYqPg2nH0jp3yd3iJC+xi9ymTv+vuuF/KS3yVj5F2zhcg3twx547VTbw2EGsIZZ9lLTLHm+/6NfmfOZfzHT9LXo5FuqR+iTnyz7FR77GuWa7XRrk4lut/EQ9OP+V+Ozo9SjyX79vf/qEt7HQA8brEknlOQd4bx+lnu/5D/o4JXOH7Tv3iWMpL6pdzKSfpXkv/Z1x+4ucyfZs27X3Us7+34e8puR7cbl1Pu/ty3h1eG8z3s2qHfoYit+57H3DmueL5Mjl3gDaUHNUv0C4cn3otdu06+yv9x/+j87JNe95Xlx79j/tKWbmvWvetyuq1omAlt4wN7dKkbDmPhbwS55XtnraZHNWvzyNPz1V6K+jBVf8/O+79E/lzjufcZJp+Hnbx4E63m4dEnec3Ki5Z56sbK3Y603llO/T4OMt9pn7p/918hbeyK8OR3oVO/jl/o+DdwH2Ve0LGniN0Bq/pmNd47pDj1a1zj1jJv2uvjFOsH1btm/wv1ee7dUo9b+oMR/2/8DyL1btMJ/+jsvNMrPI6D+REXbI23GqsZp2Z8mdMmOsEep0vryvYvVt7jpnfHbpy8N1D9E2uWddxpn7h6Fu7HHuPeYu8o67yzXkaCWMFyHpBv6fe9Lv0kd470+5374SrsYDHOZesE3rJc3pXv5T7SK6c8+zzVodheDP/AKCC+iDgvyWjAAADzG1rQlT6zsr+AH9pMwAAAAAAAAAAAAAAAAAAAAAAAAAAAAAAAAAAAAAAAAAAAAAAAAAAAAAAAAAAAAAAAAAAAAAAAAAAAAAAAAAAAAAAAAAAeJzt2+GRmzAQhuGU4BJcgjuIS7gS3IBmKIEOXAIl3I8UQAkugRJcgjMbw0XGgAVCWgnenXn+5YLRtwgj5If58/sx4legqiaOuXVFO67HwMf5N9CPx+OTj/8HPbCayhrTc8Dj3DPIX6pMIBON7EOfe51J/lKXBLIJrRwYyzpGr3nk30TKX+pknnOWdk4hXEbGMUq/eeT/HTF/qYN5zlvaea1F+vk8MoZfgY/9c1yP/Mf6NnQVJv+5QPr4MDF+VeDjHz3zv3/4/KHraPKdC4bu9XYdTNj+vtvHX5j/p3OIVTJPNglk6kL69ee6m6jQ33df7tsL8r8Z3Wt/qC4J94F8rrH7/FCFPo/CLM9f5o5TYtnb9WXSuS/I5/iaOVZFhM/1MgfNyL9JPHu75ByvJv6cINdHtXCcQt/3uwxfDuqYv4xlanO+a0kWhQk3L9za8Zl7rffrO0J/Xhfk7/KdJaeSfpDvC2XbE6590bT/tmr/9rziNRFrjfNtXnLIf43zo8Yr1trm29wvlUj+p3Zuuo3MrVubg7qKua49+MyunL/Mn673vWpjfRD7ncbg2Cnmv/T8t9AHl8jZV2PjpZT/Gr2fYx/IfHeNmPvktS+llH//Pu+jNnrvouaU1lr16LUvpZB/qGedbu3F9zl87dJek5ycIxXyX/Pa/9QL0msa61Yy5oXS9W57W+/pV+T8Q+9pHXOz+iHUGrasB5Xm/RlWi9M7+sj5h9zTOldjnvPytc1NeuPsqDT/1w9TybvP6T644/y3rHLJnvw3adb+jJ3c//di9v4Mhe//ue/dTNmcfUZa+Wusf+3BojUwhfzlHsAckED2Ukrrv3v4TVcMd5/spRTf/9ED/tl7r2Up5i+V0/79lNRmpXVt5fyl5DxSWCvPxaq/vUkgf7vknpDqeqq22gR4d5FY/l3Jc2yM/dA5aEzA/Q2J5t+VPCuWZp/3hqC5d5V4/nbJd8XKbH/t4BYj964yyt+urfWCz+/GvCrT/O1Kbd+Fq8as87sxr9pA/nbJs2TXD3Vi84O9BymZfcsby3+ojlZPVG1fNIFzrttruzAL3snFrB3kP1XdfNHf1+Wi6P2t9rksqp3nv/tyyR8AAAAAAAAAAAAAAAAAAAAAAAAAAAAAAAAAAAAAAAAAAAAAAAAAAAAAAAAAAAAAAAAAAAAAAAAAAAAAAAAAgAz9Bb1V3yofk5ATAAABwW1rQlT6zsr+AH+FOgAAAAAAAAAAAAAAAAAAAAAAAAAAAAAAAAAAAAAAAAAAAAAAAAAAAAAAAAAAAAAAAAAAAAAAAAAAAAAAAAAAAAAAAAAAeJzt2G1twkAcwGEkTAIScDAkIAEDJEioAyQgYR8moBKQgIRJ6HZJSfphW7i37m55fsnziWR33L8tjM3m+cbT++tUyf7Ls/sYKu5jiNhHC+W+35i1zL+9zN/8zd/8e59/zD5qzv9g/j92qXTm98h97CvOf9fZ/HPvyZi1DpXO/JJw5h8NXIctdF5x/qF7I/fctcI+evvsD21Xnv+x8Jm/JZ55eN8lnwHhb710OP9QzudyynpjI2ee++xb6u1737JwhrcV55+z3nL2Jb5rXQvM/tjx7B/tTmnPw9T1wjWQ+hwoNftHOc+//zD7R7uE+zJ3zSHyugv3a43P2fA/4T1iH2Pha7CVwtnG/D5Sas3zL8+DcX59u8J5H+Zr7Ltr4Ta/FvNbY689O5O/3qckSZIkSZIkSZIkSZIkSZIkSZIkSZKkRdM0AQAAAAAAAAAAAAAAAAAAAAAAAAAAAAAAAAAAAAAAAAAAAAAAAAAAAABAbz4Bd2KcwDxrW0kAAA7XbWtCVPrOyv4Af5KBAAAAAAAAAAAAAAAAAAAAAAAAAAAAAAAAAAAAAAAAAAAAAAAAAAAAAAAAAAAAAAAAAAAAAAAAAAAAAAAAAAAAAAAAAAB4nO2djZEcKQyFHYgTcSAOxIk4EAfiRBzIXunqPte7Z0lAz8/+WK9qame7aRASCNCDnpeXwWAwGAwGg8FgMBgMBoPB4D/8+vXr5efPn3984jr3qufic6WsAGX498H/Uen5iv4zfP/+/eXTp09/fOI69zJ8+fLl388uvn379jvvsDdlBPT7R0bU+7SelZ5P9b8CNtH+rvZf9VH6dpWmk9ft3/mdXVTyrOQEXRq9XqXLrmftvHs+cGrnq3rr7B/la991ubRvex6aD3kFqv6veWX1jvufP3/+93voLdL9+PHj9714hrqoLwtEOr0e6TNE/p4m8oi8uRdlq15IF9f1eeqgaSMvT0cd9Hr8jc+q/8ffr1+//n7uCjr7c01l0fIjTZTPM1mfIz33Mvu7DFGe2wibx9/QmaaJ74xbXHM9RRqd8zi0fUU+pEcXyKnpVO74oAvassod11Qfqmctn/F91/76zBWs/H9WZtb/6X+dvIHM/upvqFNWd+wcelZ90S7igy/QPqh+gTxWcna6QD7KIT/3FVWd/fmQz8vfGf/vMRe4xf7oPPoj9e7kpf6V/X0d4sC22D3+Rlsgf/73foas9FHai0LzoU6ZLvC3LivtkbleZX9k1Oe9/ExvK1tcxS32px1ru+/kDWT2V3+H7836KH3d/Y/qNu5x3f0kviOzP3rQNpbpQtOpzWkXyO/2xz/yTPzlGc03riHjM+xPX1F90J8BdfXv6m8Z3xyaHpnpW/o9nqUPdGulyIv7+E3A/5HG7yEnfS8D9caHZLrQcjL5yV/HQ/qH/++yqPw6l6n06bodDAaDwWAwGAw6OPeX3X/N8m/BPbiEKzgt8zR9xduewmPlxKVYz2RxgXtiVf7q2RWf1nGYj8Kpzq7ouOJt7yGrxrarZyrOqvIfVVx6t/xb+bRHQeXWPRNepytydfH8e7XrTFbl1fz+CedVpT8p/1Y+rdKT84bOKfoeBed4kIV8nANZ6azSgcYVu2ceaX/045xcxXlp3F5j5lX60/Jv4dMqPRGjC8CzwvMh88r+xO1UFpWz01mlA7U/cmbyZ/7/yh6aE/tXnJdz1sq9VhzZbvnU9SqfVtkf7lj5I+UUPf/MRsjc/X+qA8+rkn+XK1uhGqvgRvR+xXkFSKtcTJd+t/xb+bTOT9KHo4xoD/Q1nt21v44ZnvZUB6f2vxXqb+AalHevfFNmF6773MHTn5R/K5/W6Smzt847GRe07MxGAeUWs7Q7OngN++vYycf34ikviE9Tzgt5sutV+pPyb+HTMt7OZQPKKVZlMyd3rpTnkWdHZ5mOPe9K/q5eg8FgMBgMBoPBCsS+iPmcgnUga5hVLKpLE3PbHf7nHtiRNYBuHlnmriz3BudiWHd7DH8F4h+sv3fWJt369Zn7GTOuUdeUgfhOrPBRZXbXHwmPXQeor8a3uvavZ2NIr/rLnucZ7mm9nfeKe+6X9MxBpjOe6fRJf/M4hsdos/J38spkzNJ113fLyPS4g1UcSffkV+dxlIPwOK3u1dfnSaM+B50rl6PxQOXslA9wmfQcUcWf4fPIR2P+Wpeq/J3yXMaqzOr6jrzEG1XGE6zs3523BF3M0vkv+Drt/+jKzzNk5zvJqzpnQjnIUp2NyPTvfEdXfpWX7td3Gasyq+s78mZ6PEHHj5Hfimfs7F/pf+dsEfn6p8sXedD9js/S/p7F4rPyPa+ds4RVmdX1HXkzPZ4gG/+VW/Q2X+37udr/M11V/V/L7uzvHPSq/2veXf+v5n9d/9eyqzKr6zvy3mr/gI4tPobhn3R86fgrl2k1/qvcbv+AnuGrzp9nulrNWXw89TFOecWsfEU3/mv6qszq+o6897A/9a7W/3ova5vc1z7kPJrP/z2NzpF9Tp/N5bsYgc6F+Z4BGfw+5XXlV3mtZKzKrK6v0mR6HAwGg8FgMBgMKujcXD9XOMBHo5LL1x8fAc/iAlm7+x7M1TqC/dLPRBVnq/Zjvmc8iwvM9jIrsriA7tnV/f8n61e1FbE2vZ5xbtife54Hcuh15yJ3uDzSVGv0zi6ZHvRcoHKklb5u5RtP4Pvv1T5V7I+YE35jhyNUP6PxK67rnnn273u8UfnCLI8sXp1xRh0vWMX7dji6LtapZxPh1zN97ci44gJPUPl/7I8Mfm4l42hVB95HNA6n5/goX/uFc258V31UZyZ4XmPr9JMsRu39hbbH+RWww9GtuA7yq/S1K+OKCzzByv8jK30v41V3OELOUmhfz8rv5NF8uzMzIQ9tlnJcN1U5jG3q3yh7xdGdcJ2ZvnZl3OUCd9DpW/us+niv6w5HqO+1zPq/jt9d/9+xP2c79Sznbt/SvQPab3c4ul2us9LXlf6vz99if/f/yO7jP/rHT1bpvD35uFrZX/POxv8d+6Mjv3Zl/D/h6Ha5zk5fV8b/nbOOFar1v3LeWUyA69pvO44Q+bCfzjGzZ7I5cFZelUe1fj6ZW1/h6Ha4Tk+3U/cdGZ8VMxgMBoPBYDAYvH/A5+ja71G4kre+W+Me777X2MAJdmV/T1wUa144ANaUj6gDdjwB61pierqvstsHXAGO4RQaT+xwpY6vBWIWvm4kfhbwfay+Dsdv6HqVMxjx0ZgNbUvjC+ir43ZVxs7+XV67abROug/e5bhXHUH2uyO093iO65Sr6QKR5mrfynTE9ewcC3ELjbM6B6O/z0U90A16JdaF33H5KUNj8dVZAbVFxdHtpHGZtK7KeVJH/S2hK3UMKA9LXA/7aKxQ0xEnpdwqXtihsr9er+yv8XHaPW0SPXl8S/Py+HbFq2X8idtc/ZhyyIqdNAG1n8cfPY6b8XtX6rj63THS+/sEnTs93bfl8ngc2usTcPs7b0A++puUyJjpBlRc1I79Kx5DsZMGPSrvmcmrfJi/R/BKHU+4Q8rlA1dd+ZYVeI4xLrOZ77WgDzlfRZ/QsaniDb39Vv1xx/4B9X/K4yl20ijnqOOgypF9z+y/W0flBPH5HXeonJ/ux7oCHdv043st4oNv9L0c3FMdZNeVX8ue787Xg8r++DLl1B07aVQmn3cq3853+oe3mZM6BtQGuqfHx2fXrbaTU/5PoeMHc8zs3mqP3eq67yVajVt+X8uvZOnWrrek8bIrnZzW8fS5zHdd2f83GAwGg8FgMPi7oOsYXc/cax7Z7UmMdZC+K2WnTF2rEu/O1oLvAW9BXo/nsO47PUdSobM/nADpduyvsRbWOzz3FvR5grcgbxaPJE7uMRvntIg9Ot+lUO5W4xUBnnWfozy0xyA8Jqv8v+ozS6t5E0OpuBgvF/k0lqMccscpaT21/iovfM6OXpBdy1G5TtCdMXGOR7kIjaV3PsO5e+WV4Qs8Rqr18/ONzsFW/p9ysjK9btnebG//2I3Yp8d8sW22b5u2AificWLsre2i04vL7nKdYGV/7OplZrH/FY/oNgowB6hsepKfc0HeX7K8qxiw7g/SeDex1uy3oyruVX2N7q1SriXzGSu9uL9DrhOs/L/bX+cJt9qffklc/VH2136xa3/8BnmpzyNft/9qbwd+RHlV5Q/Arl6q+p5gNf+jnnCMugflFvtrue6Hb7U/OqQc1cuu/clDxw61ue532ckHf678n8vrPj/TS3bP5TpBtv7zfUU6t8jOX6tuHCt70f51/8M97K/zv+rccqCzm/dxzZO+zLNdPj7/y2TRfRgrvfj8z+UafEy8hfXi4PUw9v+7Mfz+YDAYDO6FbP23imWAt/Su+Y5nOoWu17rxtoqdnmBX1/csM8tP4z+rvZEBXZe+BVw5+1CB+Nfufs1bsKNrT/8I+1f5aexHYxV+xinjCB3ELTyeDnemvC79jzNxzH2VD+Oefyd2qnXwdyRWsZKsbhqT0Xbh8iiycrK6wv+4rjWO7zKpvYhTO1e4i8r/a4xfz0vRz5TzrThCLwfdwZ1o+ehFz9WgH5cniznqdz9/SzvSeDryeBvwugU8lux8QLYP22OzxM+9rhWHp/lW+uB54sYVB7tjf/f/QNuWjlMed804QgcclfJxrsPu/137oxc9j+kyB/Rsj0LTZTZWfWX297mInq2r8lL9KLfY6cPL4d4JVv7fZcr2WlQcoeuENN37H+9hf2SirWUyB96S/Stu8Vn2z+Z/+EL1l7qPAp9UcYSuU/x/1/8Du/4O35TpPJvD7/h/rVsmzz38f2b/jlt8hv/3D/X3c7B67lDnKRlH6OXo2cGqfXta14XOM6uzmW43xWr+F3D7V/O/zndm5XT277hFv3fP+d9bx73XO4P3hbH/YGw/GAwGg8FgMBgMBoPBYDAYDAaDwWDw9+ERe9HZ+/SRwX4T/6z2vbPH0t9pEWBvTPZ5hD51b6nD32lccYnsS/N8ff8I7wDSD/s3nslTdnU5zUf37fGp7K+/Y8K+I/bZ6T63LM9qb/Ct8nd79dWG+h4Qh9Yb3bKHTPsE+T2rbVfo6vLIMnVfpPaNrP842K+W5emfam+eP7vaG7Jrf97LRPr439+xofZ/bbyG/f13B9Q+9MMO7COuoH2p28sW1/W3RTqs7E/boU87PP+s/3Od/HmXm+6h1H2bAdqbvmuJfX76jO6x1Xy1TZKG7yc4GUNUF/6uoaxvK6hbV576gsz2jL34hlWZ5Knv71GZ9f1yJ/b3ve5c53+tJ+eSdJxUWbjPd/SKzHouRPOlPajcV3zTyX5xPV+hvgB5qr5Nu9zx59nZAc3H95av5MePa/4BdKfvYlM9Mub7fKXSsc95tE7aX31Pr+5l1/mU5pG924/24P3wdEzgnFM2n3FgQ//tzGocZv20M5Yjy+ncsLM/etUxC//p7Ujtr/5d95qT54n99Vwi7VfLzN5d5fOsyv78Tzu+MidAvuzjQH50RxvO/Dq6q/yq53vl3XWByv7qNwFtMYsV6JlRXd9QV50fVucbMvtTro7lel3PpXqf0nMfnf2RydvXM9DFXXbnFpHuqtzdeHfSnvTdOtqXPtp5isFg8KHxD4gkaqLrd70WAAAEd21rQlT6zsr+AH+ZvgAAAAAAAAAAAAAAAAAAAAAAAAAAAAAAAAAAAAAAAAAAAAAAAAAAAAAAAAAAAAAAAAAAAAAAAAAAAAAAAAAAAAAAAAAAeJztne2N6jAQRbeElEAJdPC2BEqggUiUQAdbQkrgxysgJVBCSqAENhaOxEZAPM5MYsfnSvfHfki2c8ZfMHa+vnS0q///O/due19733t3/uef3ofeSkWhhLT3jO8BdvFwJA42o3Mg97FdvFTEQdZqItkPvhID2Sq237+KgbXbgmT6VmI/+EwMZKXQtZ7EO2IgC+0N2DMG5KMfI/4d/LOQxdg/mL1A+rJi7/wN/+QF/7IF/7J1NeS/h3/yaozY32CfhY5G/C/wz0KV76vM/eVK67ufwS3ss5PWOvDGui9L7ZTmAXKB8pXrt7HjwA32m5BbD0q/E2oZ8zcnNx809eN7vE97PNb529fOcx5MX0cIIYQQQgghhBBCCCGEEEIIIYTy0cHngIxzwq7+90vlez3fQ9eN6nHx9VjjrLGr18HX7VL/vSfvU65U65/f2edTpHZXxmEi72ec93cyqv+uDr+H7ubz1izjoPKxdqn1z0x0T31qzXPzTWT9te/+OkY+484gP2lgrsl7yq682Ps1Y9s/9wyAVgzMPZOmcQbBteNs0M9j4lk6z8bcwaZ1D8zc+9+07iKbEwOnBLjPiYN7Lbt/KZX736o6fN0R4lZYjznnH5aya9PUenGIl9B2t8p1dH0nZh7QPofoHNpnLMq28tRZm+H/QnLzre5/i9kTdAb1aCfqUdXhe4zU3Lxp2/D3kHHYKu6l6wCrOHR+NxblMN5PuX3RvuFvIXcwtIZ1k/A/Gdbj1Tjo2Ke2xov1eN/1HBtr8pesvy3n3/E4uCX2zzGQGn/J2cCl+G+R/eDGtxP+r/m7MTL3+X7Kz/PoD/z/8Ldsa4oO2fuWwt/qnuuUHfK9Ygn8LduYqpvAZ18C/xIdmlMA/+1Z8n0h/Lfn0GcO/20a/mUb/rp2z8jVz+VjvftMu/LtdXOv22uu+TkT/HWYz83FHPKWO/hPKhX+rbDeoVoyp0xSL/g/7NhYv8/ejSVL5BFL6gT/x1y95BkMy1wH+Mvc1Ouct7B67wr8w732O2qsxgFJHUrlr31eKVYW6wFJ+SXyd2u9VM5cWrx/SVJ+ifytzqvGSnstICm7NP5zz6dZqYP/IvxTfV+F5hggKbck/qn2fSfNdYCk3JL4p/5+qgb+pk5hv/dJB/ibee3PekJUwd/Mqe353kkjb0BSXin8c3lnWQN/E8tJrCON5yAprwT+Ke/7xtJYA0rKK4F/mxF/jbuYJOWVwD/kHGwqgr++Y+8jW0vwhz/84Q9/+MMf/vCHP/zhD3/4wx/+8Ic//OEPf/jDH/7whz/84Q9/+MMf/pKy4J+e4A9/+MMf/vCHP/zhD3/4wx/+8Ic//OEPf/jDH/7whz/84Q9/+MMf/vCHP/wlZcE/PcEf/vCHP/zhD3/4wx/+8Ic//OEPf/jDH/7whz/84f/KvzOFuZQNp82sAAAGVm1rQlT6zsr+AH+dhQAAAAAAAAAAAAAAAAAAAAAAAAAAAAAAAAAAAAAAAAAAAAAAAAAAAAAAAAAAAAAAAAAAAAAAAAAAAAAAAAAAAAAAAAAAeJztnW2R6zoMhg+EQiiEMriFsBBKIDOFUAYLIRD2xwVgCAvBEAphbzXHntOTmzb+kiw57zOjX9tNZL+KLX/E+fULAAAAAAAAAAAAAAAAAAAAAAAAAAAAAAAAAAAAAAAAAAAAAAAAAAAAAAAAAAAAAADA6Jynf/+5Puz2MBfs/rCfDYu/ncP/Xh5G1+pdnhyOoexrZfahbB/GyrQFafT5sO8EjUst1h3V7Ulh/R1CHeSUx3IcnIMeKc81h9F9v0Ibcexcj6egZ0k5ZmMxcKkoK6d9h7ZBOhZODZ6BljFAz6VjqAOtuq9ZbBda18GSQ8M6+az09xh0j9drVcazId2Xdg/1ytUm5PT3KVaa695WrlVbttx8RrvNjePgyOCjy/SP+p5XOXdN2WryGe1Gddxi/LD2zLWwVN+of3uXd5SWa+u6o9j8sENFPXGNdW8JPqW0yyVluijQRdL8VN4WcPnk3vhzCHGbch1on2b3ghjg6Pu39Cftc9qcnPJ8KNChp31n1teZ2Z9a7XP0bzF/MYLlzBdI6+8aXGONkrga1bxS/edGMbTGSOP7FpY6PyClf80Yc6sMJwX1rc1S598k9K/NybbK4BTUtza7KtG/RU7W03+rlpoDctdfi5zsnf9fgnUa1+mpL6Pn67ywS/jbPP29ftXDtLT/LeyV75xzF8+aU25ZOrd2CnExT7Jj09T5YMv6X5nv+5lRj6mcwnU9o99fGT5b1p9rvE/PqcReTYqFeWrfLuT4blX/A+P9pPdkUlla7UnK3XujWX/3Jpa55vlTx01cxD1vJb7PBb5r1N+/0T3CsWfBd9b+mdw4SFlrf3Wf3no/W2r7xTHuq923yMG7HMFP9XsCteifm3PlPBuppv39nOP0Z66h1TU16E95fG7OxTGW1q4/B731J+1LxtgcvkB/G9oT0L8NvfS/V2hPcPikMf/jppf+tXMsGmPSIj30bzHHwuXbDP1ZzTWqX04f9xQD0vq3em/NMftJMbCHvkBS/9I5yjUk9n34afwxgZT+rXMrrncW14xirfe5HFxI6d/y2Zf0exkHo7UHUvXI0ZdK6x/NT7/HMCPkBxL6z0z1JLn3812bcDEcCxL6c50Npuldz3uIc2uxwK3/nbkuvALtLbcL3PrPzOW38K6/lrP91uDWX+LsMq1twJr1OtvvFdz6S5Sz9x6GUtPQR0i//8+F5fe/Y+7Y4yxgTv2dcHlGOP+ByiDRZ0Y49Z+F9R/pDBAvFAec+ree801hpBiQiIPR9CdGi4GfUB6OtQdO/Xt+EyDnfEFL1vqdZE79NayVjXgGrJ/ajRVG159Ynic/irXIC/agf+RjGu8s8Lmyjjn1lxzH5mDp+x/cMTBi/p8KxYFToF/PGNiz/hGuc1ikraS95dQ/5xwiDcRzWDTsKyq13HHBSPP/LbEaC16R/j+G9V9CY4d5spE35vS7Eue/curSAyoT7eHQOsec867FCPt/enKcdPYTqW0At/7WcsAa6JmL/UTvsYRXoj/3/l/N9G4XUtbfLO//twL1EbcObULKeSYS+u+pD9hCcj0y5VtgUntntex31oDk94i3fLH6/u8InAXagq01WKvv/48C9zcLtehPtsfz1VLg/H7ZVrsr/e7MiPOBLeA6z0Sb/rnfp90LXN8y0qZ/ik97hWM9QaP+ZNr2BmrA7Uj/km/VP0Nzil/T/3NnP/2ef7cYXxz6b62/9Xx3mrTKHRNSzKTWE/3O0rwTh/6axn9r9p2hUclYmX5vJd/gqF/t+keNtvqCY4H2z+YT6qInXGdZbd1Xg/4xBt71Va7RfZzSOGhVvmXMb91Xi/7RKKdb5gQc82Oa4oDr2U9Zd9WmP9myLeBcK6M46Lk/gXP+P+U7Cxr1j+ZDHDihe0mfy8W9/pdSFs36R5PeN+OYY0HibAKf6LsF/XsajU+p/6E+onb9Ou4NlfA79Rs7FvT3CnyIRm2RCzFxC3FxfmHX8Bs3ybdhqW2XBf2dAh8s2ZyovRX9rwp8sGQ5eQu3/i3WNA8K6tSKzRnaS+hfO2/7E8rDtT9mJCvZYynx/m/t/N1/c6jcU4g9LBYAAAR5bWtCVPrOyv4Af6I2AAAAAAAAAAAAAAAAAAAAAAAAAAAAAAAAAAAAAAAAAAAAAAAAAAAAAAAAAAAAAAAAAAAAAAAAAAAAAAAAAAAAAAAAAAB4nO2aiW3rMBAFXUgaSSEpJI2kkBSSRlKIPzb4YzxsSNmxZPiaBwx0kOKxy0Mitd8rpZRSSimllFJK/df39/f+6+trSoXfg7Iel0z7EulfU1Wf3W435fPzc//6+vpzfst1px5V1i1Vvn95eTnYY+v0r630//v7+y9Kdax6P6P/afvP4P+ZPj4+ftoAcwFto64rjHbBdYXVkfgVzr1ZmnXMOLO0+rN1ThnSP6RXUD7KMUpzpIpXaVb/5/yR/V91S/BFH/+Jz7iIL3KczPmjwohf4ppnS5VXXdexnpnNRVke8mNsyvMsW6afVJxZG0i7VL7P4P8Otpv5/+3t7fCOiH14pvfHTCN9QZsgvNLinPZH/J5WHcs3vJeRXvd9PpNp0p66si3nHPjo/p9p5v/sO32eTEr4sOxY7SbHVMpQ9zP9VN4jr/TfqB1n/67wSh8f1vlsDiAeZeT9J+89itb4P4XNmG/p5/lugO2xYfbr7Jv0vXw3GI0V+T6a/T/HkPRVliXLO6vvEo+irfyPL/Ft9rWeTn8v6ONJjrXZ92bzUdaD/Hp7yPE802TM6TbpZJlu+Tvor9rK/6WyUb4Dlm37e3v3Ne0k/cD7BGnRpnjmFP9nPMYk8iLNXr4lPer8r5RSSimlnlOX2ufNdO9lL/nWlOsgl7BhfRvNvmv699RftfZ5tT+sOdSayWzNeo3S/31tI7/zR9/8S2shrJv082soyznqR/zjMbu/lN7oepbXLK1RvybubM1pVua/iv2y3PsjX9Y88pz2wjO5zp5tJPdeOWcNl3s5JrB3sya82zrLmeuJdY/1Ztaa+rpShfc61r1MK21Xx/QZkFdeox6nxHol90mXve6lMp+j7pdsb6P+z1obtmY/vms09le83Mct6COs860JP1Yv7JdjXv+3IfchEHsZdcy1yrRVptnzGtm3/xNBnNH9kf9HZT5Hff4/xf8Zf/b+kHbinL0Zjvgz/8lYE35qvfqcl3sC+HpUp/RBt09ez/LKsNE+E/ezP3OdeY/KfK628H/fRymfUKY8LzHWMX4yltGe14afUi/CGDf4jwAb074Qc233fx9zco/ymP/5fyLzKPX73f+zMp+rY/7PuR079H6SdS318Sl9g7+Iyzy2Vfgxu2cYtuT9OudhxnDiYue0NXud+DP3KI+Vg39r8SFtJ23KntnI/6Myn/MuyH5b1il9R9/OumKP0VhF3Eyv59f92fvBmnDCluqVYdSDuaT7N+fy0TcYz/fnRnn1MNpA34tMGxM/856Vufe1S2hpvUA9vvS/UkoppZRSSimllFJKXU07EREREREREREREREREREREREREREREREREREREREREREREREREREREREREREREREREREREREREREREREREREREREREREREREREREREREREREREZE75B+Hl45q2TuOnAAAAVNta0JU+s7K/gB/pYUAAAAAAAAAAAAAAAAAAAAAAAAAAAAAAAAAAAAAAAAAAAAAAAAAAAAAAAAAAAAAAAAAAAAAAAAAAAAAAAAAAAAAAAAAAHic7dbhaYNgFIZRB3ERB3EQF3EQB3ERB7G8gQu3piH/ignngUObT/vrTWzOU5IkSZIkSZIkSZIkSZIkSZIkSR/RcRznvu9P5znLtXf3v7pP929d13Mcx3OapsfP7Bj9LPfUvXUWy7I8XscwDH++h3TvsmOVfbNhdq3N+z21f9U3v/6N7l+263tWOeuf5XqdffvG2b+6XtP9y3O+71//1+d5fto/1+z/fWXbeu7X79u2/frM9+e//b+v+h7X96v3QK7Vd/ucRdWfHddrkiRJkiRJkiRJ+vcGAAAAAAAAAAAAAAAAAAAAAAAAAAAAAAAAAAAAAAAAAAAAAAAAAAAAAAD4QD8K+ay4UtoqZgAAAbJta0JU+s7K/gB/vSwAAAAAAAAAAAAAAAAAAAAAAAAAAAAAAAAAAAAAAAAAAAAAAAAAAAAAAAAAAAAAAAAAAAAAAAAAAAAAAAAAAAAAAAAAAHic7dhhbcJAHMbhSUACEnAwJEwCBkgmAQeTUAn9MAGVgIRJmISOf3IkCxktbbjedXl+yfOd6wttt/74+dqv2PfF7uIlQ13Gz33K9JmnVnq/WreP7F+v3NtH9q/T+WKzwPVrM57hzf6ztAttH50ynmNv/8neF75mh4xnWeo7PFbpTR8R9/vcz/q/2mQ8z9JnuVfpbceUfk9qMpzpYP9R8ZzfVnCdtv/4tx+V3vlWd6zn3ejaM98DSzzHhiq991VT4e6/a55wxpru+9f26dqX2DzuhfFOX8N9/pHmXqf4X1Utf+/fa5O+n236vLk271a2+W2x49eE89byHjO1XdqpSZvN3TrOH8/Pmu/tcxr6rcR97WOlu4+1S1sOKf0ZJUmSJEmSJEmSJEmSJEmSJEmSJEmSpNXW9z0AAAAAAAAAAAAAAAAAAAAAAAAAAAAAAAAAAAAAAAAAAAAAAAAAAAAAAKzND5MuWFAz4ql5AAACbG1rQlT6zsr+AH/EeAAAAAAAAAAAAAAAAAAAAAAAAAAAAAAAAAAAAAAAAAAAAAAAAAAAAAAAAAAAAAAAAAAAAAAAAAAAAAAAAAAAAAAAAAAAeJzt3NFto0AUBVCXkBJcgjtYl+AS3IClLcEdbAmUkI8tgBJcAiWkBMejZbTISmKMBxiYc6Uj5QvD3JcRKDGbzb9cTn9/XfnW4WbzZPYjn1P8nGOCY7zdfn7PYJ1zVA3ofsr+X5mB+3MOc/6RwZrn4jKw+6n7HzoDX523veB/928L6n/IDDw6/yaDHpbY/Vz9xxnou4f3uY7fTxxvDeoE3c/Zf8iuZ2d9ryWsx7mAOfiToPeYOfuPndWJ+u8ec41z0NzsE3YfMnf/MT/t30OvLczB8bSO+4PwO59iv79PLv2HbE9f7wWprrPKoMdnhXPejtB7d11y6T8mPN83ifuPiXtCzs+OHxP0HpNj/zFx7051rfcJs3Bo17oZeR36eG9nc4x9/rvk3P/U2bbrH+Zhir81XNrPOkzceTf6/zn7dibObVf1gNmoW+EeLtzn7mfs+z76Lzv6Lzv6Lzv6Lzv6Lzv6Lzv6Lzv6Lzv6Lzv6Lzv6Lzv6Lzv6Lzv6Lzv6Lzv6Lzv6Lzv6Lzv6Lztj9t/ofxEZq/9a/4tIM1L/lf4XkWqk/o/6X0TGuAcI32HK5X/c5XHqxP2fdb+o7BJ2/8r7iGS+vPKOtu6+v9P/YvPKDDS6X0V2p+e/41i531tdHr0nYcr3FMi8Cc+IXZN2fr1eAQAAAAAAAAAAAAAAAAAAAAAAAAAAAAAAAAAAAAAAAAAAAAAAAAAAAABgaT4BgiliEbS3rI4AACoXbWtCVPrOyv4Af9TwAAAAAQAAAAAAAAAAAAAAAAAAAAAAAAAAAAAAAAAAAAAAAAAAAAAAAAAAAAAAAAAAAAAAAAAAAAAAAAAAAAAAAAAAAAB4nO19K7jsKNb2kkgsEonEIpFIJBYZicQiI5FYJBIZiY2MjIyNLJl/Ufuc7p6e6fnU/9SIWnPpPlV71wmwLu+7LlTm5302ngDas5EtxtdGYIejwwJwXcUFawDfhX7D82Id4IEKEAG2ChvQniTBd92T2bGEwfHNfHP88UNvAJWb3UEr1XEztr5sTxUU4HidQOEo6TDwYbmvKz/3CRKg3FQspF+NA683gbhzXJ3b3s+YXkJsMSn8QxHzldIPDyvUa9so7kZ5TiI49ZZkUEPMXzkWyNI+TwYwJmyrNLiPSW0r/u7rbpB37ttHF49yxbD4jZngATxRqoNxCQ/RFAkrr5eyhUiTfQz6oa7BZaG3HX9xj7mufn6CWykuozVjg4k2LNb6uMXAwYJtDp4dBHVPoPjvqDlwXPjT/TwvGw8vP7z8t7hOxDoSnpNNwpsFcCm2FSAV9sScLRzVHjJwwCcPh3VLcWACvrTNX7fg2ubAH9UvuJn7Nvw0HTx+AIULtB43N1PqG4HH4U7d1UJR1+HW7fPrp6iUdU3g93uPjvs1yCUuQqZOyYoLGGs6GAlrm07AvG2BOdgP/OcCKqd1gVXFfDKohtklO9HvEYGbqx24XUbhYdeSKc8LqlJFJUhXYzBNZwPGPrv4KS90aWiTZpj11QnRuFiGPsrKHKgSy0XLxfLjKRWW1DwPLOk29nM0xeHAf9Y1m3rgYvA/pKJKH/Dg9lwbPBlPHE0lTyMoN+Q24DqnFj0Jnarq/dOLB1lBo/fCg0gNtqsIkEygczabzgNNg1jqyPlCY1idJseYSr0TdARluy7K9hL8qM8JMy4YamUolM8/1Dw/nS0x6SRwnU8BPQD9f3gUGhKMC//a/QkfXTxKdMKht1Znm5pgfEksPOS4lX3gRvMOUWpd0G8lW1Bh0f0BiDb9GFgSWb/NPOEXqj8QqFlvaACARp4X/DA2N+GBrR82Skbxl0db8IUFd3Ypms83Pywc5EB3jgqNBm5N4Mem3RNtzAXKaz4/9ejJTNpq7w+zFT2A3Q/aJXeDWohpekZUeAaBEPSEJBGBr2tQ9jibRbeQbfL4CWpBT5nx1Nf63oCrnhw+fv6ShuXc4NiGkboG6UI5+rXiCYYL1qQCOFWtq0scDkPDdrRqYusPTAvo5edDvALvgHmvBaEL5x6NO6RtF2oLUC7UBSCX+OPvRGvxFcLqd/6hVf9FwsKAM/TcqMGUkZWSOHjrVcCFSsr8uXMSj6MSiZ5chLMIDujJn44rOwZ9BwRzrRhGEOMdUSgeS0mt7vemWN2bhMaoCrkxC8v6/itLj/qo6GRYjB9dO0rEo47vYwiIeCSdp0TR17feDxCeohNYYGnXHiDsqOvREEBszI/7cm6wbSSBqMZe1znOhO96QkfPnqBRPRXGbmYQ5GuEROr2rGU7Cjyo/fgWYdP8Piy14qKem2rG72uHMEKfW3Ao9eIkvx0AuofHoJHb9sxw/TQMbssZy3FglFjGk/kJ+nbPtfboGNkuePVIboz7jW9yn0q+gM81rPHB4P9I4Bx1qYnx6uuHl48LZuCnFgzt19dh7BiVholbWhcZOj48x01ASqM58wL9AqziJNNxXRUBoQB9PUiFFgxrBND+M8bKGLrjr/npsrp0v1GTPX+CASwJN8bHBrXfu/3s6udzDcQ+kOOiM/i2797cNlum0WeVqJcMUkyN2I2qqPkRrT8XtygMjSZ33S43QyN+QnsIgl2v0wrX4pdV1FcCsgw3mdIxf2prfoJllGNHu79yFsvH+R/Q40TYLhsSPfTLS7Tc7usIxUDdV93HsU0SA/sw5YCQA+P77ejkvDDOXAba8nh/kPOuds9x305aogs+IwTGDYOEjOBCRZcJmaUplYK6JnnYQX105T9C++oLWextKMJXSXDhgcmx8oDxC7h8vTKXK+j94Fwyt/Yg7d4pkGzcOLfWdGwYBRzBQFouQr2Ao+8YBJVl8YWLjYNSU9/0gcaDbT5kmEmB6f5s/vTyJ04NYYZkxKJHM7kljYa8I6spP+i8zyQFAXMfHN8JA181PROy7Vkcx0JSIy1rInFHUC3QZRL+IudmrcEIwuEl1qktz5MzHjfq0OTMyDjUTTmZGYHPihmKLBus6ORfKm47SILB+sZFFkLGsYYd1mNsv374zu6x5w3LnVuDji9zYZ9nuEkVF0UIMuUsegPSMdoXdIEbOpJrTMbT587BBqHN7RzImQgP5aOLRynmHNR7EjfKb/DLxW5kqPik6Lfw4ZV7QHL1UJg+EMZrwneMa9e9vqELI7gPa1gXZnmREtZFx/eayEGpzULCOcJ1TRCw2940UD25XwTTbJKQxmdXj67Yh91OlRTVI5ZfbpmHR++kcANwCyxahR4S/1V1mzbIk/fDVqab07C45TBFS5E3Kny3/Rhdr3ud/Dc1Rlzp1La7+npR2BWgeiHhgscHCXUVSIA+7v/zpnVwmrLa9vVU2aO7bzNQKYj4tFvgXtU249ba8+NgIC2aZCYS4So9tiXEwMpmWZI8v16Sg9i3YF82najfyHxoHbjM6wUz2KE+gIQyIBlQuhD6cf/XNwcVz46zC/3VDvwsTnO+artGmT1CtYr8YAuo7YGzlUOn8vYEaY5VkikBUumQj0BMxd8G0q6Ei/+JHQK3x6dtYjwyE0ZIk1JxsLIcw7lGvR7l4/j3WBy6aY3kjrL1T22sR0H93RC39NJ9OrYqGr7LE3UMxGYF2DodQMqrUkiZLgPy2e+KsDbC8byxwzaOapDlAadj5kdPcE8tDRD6rTYdSBfS/frcyn9LnclK5ttVwM7sFjq6SseDvp2K/cl2PGd6juOM6ATxIPH/CDFGKnFtmS07kw1J8o0UADcNPwPeHuJP7ChZcg3ZZGXHCs/JRgbKFw3lmQnS+tGl/5ZyxdhIlhAfy8Fh7MfH26HopT4YxhAALKGVuK8z/4sbROxaCIu5RfHKxq4B0nFx8OzYN3AbgT+4g8iM3kusBpD3xSUOyKckgTsP4rw/Hv1RrHIYjTazcFADN2C8YZmGuOlePYQHhP3JUue2XxeG9ZmzKW2jhMc+wEQzIx7Cowy8XycN50n+wh3JrXUPzYtDwcotUo1uEGXjr4Szss/zH3NzlcDuTM/MPMitLxO14BtSKXxMdF8xu+nywTx19X1FCkTIemzC8SQUSNMRDivvTggdXxUy7L9zB2MB268t8nJIkVYuoBmzpYj0Gv/O1NaPJ4CR74yZhSh9C+BvCbLtOl3orKfbNqdGaGx3sYa8QIzSesZ7NrpQX5k/DAG2DUXrG9LdGNBos6L237mjg8N2ouZLqwwv+0LpIk3S/rJoO8DX8fH6F+cE0LGhb7/rKWdSAm0gwySsNb8sIJRFg3j8KD+qOhO2Z8BV67WFF0a8NJ6Z6sAgCejgFgjztd+5w0U0jIEGIZazcT8QbOSYB5D1Qa71DoifFll2tO5zOm1SHqooRwf/sFrfedpHcYQrdzARKU56+/bn4XWIWfQtxSaVp4/owCKiWRAJPSdJhv3OHYM48LfoGHu7mW2IG0wvfoS5jxmDwiH+j8f7/y7jQu+u4NjRzEE9qJ7457yxWZnLDHx6BPTwOmaJGyPCrH9vaLkyWGqB+Me8SXwx1thpMxNBKHz5p3YQZjHFAxOl1g1OS4CImkzAzasa2i6f69PrP9Jy2V3DcUJToF4jbxby/i5sgCUEegLi4oGLDa/E91nS435piOSUg1CuAIhxEB7rdSY3KIQFHPlVO0ICoZJsIHpG63jXjgazgaKLTZv3y/ILLHxQZgxW9dag9muCkSebTrr0YsyUL6EkRU6VuaoKSANB12ne+1ELPYJ1LR8vVOZRQUQ5k6Oo0mfV7Fft8OAlWVrvrlyAn9ph1KWk4zWQT61qcqgPy9Hxqfh1Ijnj1kLYenCDzKzWdmylrWw9C4MQjx4VybhZ7OjHeZ8V3L41dAP9habSEQvXbUWDgXqeK/yqHe9NG7G+iz6oTL9rxz2LcnIMNI0D+ezqp/wUL2f9D5pFwHIS/sB+UIYYpm5C31ugrlxnWxV7oauHkmcao+NZ2wN2Up9XJxuGhwp7RmWwbTHv3gGMewsC3Xe+BwNM/9U7kB03qCYkkef+ePpj2vjD0DCfC4GOnm7d9onz7SYR+tp1xUA1c0PoFEPVsW2c8R84SBiD42Vm8e+5xnQMks48UEpa//SOsECDj++Q+cjc/+gdobsWNJ1LfK6PI2AOF30XYZ9rEVJO4v+gJ5d+SVUhwmvyVwGAgUyMm1rX9USYBE5LlcGlBffMoVXjBgyjnM/E9/3dO7SaZ8wS70x+YShd5a/eIUJqdugo0Wbyx/Ufo7+59Fy380LlBX2SQXVI91KhpKARBs4CANVn6/eY7hpNH+4LqDw3hwxPi7c6yO3KW/dtNnXtdvaO3cc7M47mtT3I/O53Hemnd4xuHuj7r//4+o+XBKSkM3BL/s5NoqS2pYOoq3vzLgB0C64ioQPzbnSaGj8T4OuNZGnxsGLMQzaz8z2wykUJsxmgHq0e1Q6FLIClG9GuT8gKspz1MLlo/naHy0cXj5I7Hj267/VNViWlE/b3m8qqiHL8pwDA5MI0nUgYDR04cuTZ1AZL7I2AyXi67UEc9DrKMg3aEWXALqmsAdfdnzBOPGed6+SD+JkniKbK7s02o+mHJcHDR8wx1ta3bX3uoV5qrm7t0r3TU/0wDEN6AYvH7UxYhjP9nMhVg/aETTteBeL+XhV+WGOwvY6AAWEBGuh2A0dIBXUi4ecNMYrza07XS/1Ugj8siNnncoM97tyOhlh9NkNCEFc227sAkEbfF6hc7jOWbXs0IV05/+G7rdfcSjRu6RTYEzVK03OEd4LcXgyqRJ/3aKgPgo30jHr2gru2o9/9OP+V4BxQ65Rdl3qdF/DzujG2G3il4n4XAPy1SjgjY74lgc++E663Y0Z7ZPOXG93fAx26vW8d94hAd8UwiVFzUK/juRKaXxXMgc4gPwgzeUIyxJB7fL7/BTWzp7iHfcs+eHtxKGG/stvRgmGhPwWAjtD+UZMl8qfMbMGs9jT0gqTPgnhtV0nXhoBH7a+mQ+ga0vTsMRLqEpII2xJr11HW/YwzaUpoG9wsx/+A+uP6iRpLuppSiPfFxPCiFcTCyPbITwFg+sjnhcqyu4aPPCHzjVsQnrhOd9n0tmHE3Pi2olqAjsB4iVxSdHaaAdJeWkrt3WFcKAHKHshamVBFlo/r/+4gMYqa3qMFoWiO4Ped7HkGMPdTAJBMIch5Ds1RA1APzJ4Q7SNSQNOxJjSvYZ85EAInMskBnsSL4LZJFaxFxzhYyfhJctXECjSoE5YqeZ79Yh/Pf4vLvNMaLyOJDXiw3dHcO8YyUn4XAKqLAfXiGdbhTzfP7aJo75PVmFWO814Ip2sE9A27mqXjpyjkvqAspYifMhiH/Ncpz0MH9zoo2ZA7lxxRMz69/jThKfoliPnUYjbuF0I4Af1coBQfswBwtfWayeyrZTzquu1T6bkQkILY7Nor02pz8MRwjIS4CN8lPCYZdHszP4yjCKx8TgYpcDcRYpnUAn/u4+k/1GGkaeREE7VXbAh/khYBob3wiFiXnwLAWto+O3X4nSmka28DKSNX4cjNU5purmNSvXj0lHtbwHNYdjGkrDk1iRFfrBqsMEvpGPXBGIoRttWZN9o+ngBUcKE1h4u42bSkbBozpVP8Itid6kzuvYhYkOqF552rW+E1bfah+A4Mur9RAD0idX32kcZwz5gqeI1i9tWJuu7jl+MjaU0rs/lAu1ohkAn+t8+ufmrg0lmU3awVGJGhtNIkHj81ipWgbQZ06nWIXSCHJY5AjvfdhToONGg424O4mKG7dHXsFzPAO/oKzpFPpDFBL3KLvwS+mQUKG8YRz1IqNcDH+//L7GncJmojBFkeMjq6JFoIKGGtZOZA3z4negqeFAaE10wQrK+zrNsCF+uHtqm9NlqQ0cA4fGAbxjbdIgLljFgBMd9fgA96BScQDe5GLan3u9GP+z+w+lheAvILQTo/MQiiBzvYzGgvSxieVkIn9QcM/HZPbhIfGc8ERlPygrzJDPUGxqTqsO/M3lF7PWtoN5nAF03lr8B3WFH5cPxcdu/Nk85PL/+2LsX22vG5CvSNTjO3zUhLUvDJbIpLliKbcR0P8pQeiV5X3ASzaIG8MXd0+R7joAtoQAcCp6zRM/BlEh82/k58lpIXtsGpi0k7ee6P8z8fAzh0WwaDW+khkQv6pbUkLB/Orkytt2WWIo8FeqblJUnehkHqa9zMFxFS5GwhM3X6OODagXkT3+s/E1+eV8XpvSmDQWJD0vXp9U/5IXJ6v4RhoqQ1U7HNbtaXo7OIESPCFDz9NDN5j9w2IqoVoNJS/erR9N+DQ4GCUQTlvyY+uFuPvCMKQgBIzce933t2oWXgBddrT8PXVMlscSiPVUgD8M21aI8PDLvdlDgQuixAdLC19sjD1YJM23twCLQZlfwfiS/YKstMIo0UZF95DB/vf59rLDTuC0fMlv3RYkQ+LMHPLm9rEiL9RDuGfDeWWy4VHLVE1kPtF0GcnxHkI4lpx+bpbP/8r4nPn6FJ1qzQFvII4vPeH0S/cb1dK94YZUUJlfKWX6stLaCZg6YL2rBjqRybs+jngF74v6VM9BKYcbExfhHrEEOQ30OT/5T4nkOTOaGOCGdOjRHk8/3/+xqT9UjIBDhCFmto6uerSsGOI1qkLWD6VoFvp5lNy2EgOXIYERckABPu1boUA1otvGjza2jyHwofP0OTJLcJ+16W8XTEj/e/OWQokTgWUN2FXdq2mqPXd1sSogF3bBjpzzu1jGSV1G6X14b0b85Lq+iNZPkMSBqm3oQoRPqvha+foUlu/EnMIE3v4/xfKAD5gbwOGfAanJIY7vA1KTYSSC/29cxZzTGHuCCxUVLmjGsfLG7L1vtYSL2tBsqJ8A6Rg8rLPxQ+/xiaZGaTBAHnJjazf/z8vV5FfxVKlm2LEhSq6XTeyHulQ5e1m73MQ6wCY2C97tkwyoV2HjUdw8J4POSD81w5WQK33f9j4fvX0OR9MdowNiLXtCHWj/Of6znqZGw6J5YM+zFIIsE8SE62AiZdC8Q1z/aPNrY5xyEWSe0xOyKQyR747ll4Qc/XSy2XefV/bXxofx+aDGQcDaIiXfDP1//b67kIVbkuYWurZ2JidzI0rI2m/ZiDwGotuSBRDqrMwgBPZJYt1gTWwTpOihQJZEenl8ulTdn+pfHl+PehSQlW+Ec9s1f4fyEBcjbpm3fRSDPzsRi7FvvScCLxHdfbixcMAbmhgqMjZzYqeKU5H/CuhO9re0iQrjxXkKj2CO3cQhZR341P578PTVYEEfmFe0to9Z9ePMxGfxWJVw0dPOS1TMCGx/06dyR8sG9ZgJwtUV08E8qrzdoh4SHlnrn78EbPHnFAEH0zZqFS+CUdu5iNbxXEvw9NjqPQBnKvRPXy8f4PK8tOfOxZzVn8mY42/Wobl3IDMdExFWs0+PppJ1jJGfxmg1w63GWu3rz3INx+uVA5muXSMe3fjY+zCvYfhiY3jjhRoWFwZfXH8e+G6PaINSA5b3OmTdp5lwn1SwQt0dt1iqR1Fjnm3AdCZHg3SIdWmb7W2CamXw+or50hQ/KjbAEYZ0wOIP8wNImxf7d5U/cCpX18/nHZs95r0PDsAdn6zGKuczoBZronL9D8gsAOHeO8s0Ah/l0luYPceiPXPcRKpHPHYDOXf1cgZXo8jVBJR/IPQ5OCrvswqEDoNO3H+78LA9XeHvs1uAI1Z7WVeP9jju1Uv0f03PtVGfQjr1LUG0NDxj90ZHjHHPSG+ExgjMaBOKf16+lkZ3NU4j8PTTZ9LAwCX52akyAfllyCa9msBN74nmx0zoRsr3OgizptIjLX4zW3YgFlXF0IXPIMy5vc5Ht4Yd9Mb7mLUdN/bFB3SzeN7Ok/D03upYkAXmEs1R9f/mxiKNTAMYc/8b/rgwbt8w7PM5MdhN2MXjei2/Y68BCFy96Dw8NeunVzrM+acUK5OCrBjehogEd4jB+wWf4PQ5NtNQKDTX7te1MfZ8A5buiRUliWHUN9W/mrixefaAdPznRDm5cxI1cz6Acqmvs6O70mXxiHRxTb24K0JpxIfInd0ODB6DWCTJGJ/zw0yYPv8lxiBab7x/u/hhGXRD9dZk17VjYqglPkPIeb2dtlmY0wLKAhq9gNQbTL2L685/aF5KH2jEu4CJ9tpJxtncHG343DcoudvU/3b0OTraSa/LwyiQoIH/d/1uEjg8NwJyS0RpDLv0Ah0nswnhdWhBGmWVep2MJvZa0sqYonqotIJ7q/92Dncv0xzuLa6BWDI5rNvw9NUlOWGt0QE1m6j99/klpCHdBoxHyWeLK3SPNADTbbWXppVx9shHdRE8EMERzhfYJ5cQ8Xc+Ct7LMhYKuzH355I6ItTxjdC9WRqva3oUmiWJX3kG3WyxEUf7z+B/GozHnP8YHR9Z987/wqMG9AooEbXduTiV4oYFAPEcpx7avCg3a2rWVmtwHpz3buJ5pPQT1CgPsejIPdgnDk70OTSiMKvKgQDNaeno+n/3GV5jWxDVLRw+4XuoDrgXdWJu2FKQzUqYPZbkBwb++N57Jd3cx7M6x2tjoL+g4Yx/q1ht7DWZHozWYqYVfv0l+HJicKSmswbqWJoq9EuHjoj/t/C5RcL0iT3MzJRAzhdQPOcQ9allzajEcr5ZW1WAt/7FqlVD56JxE3+VGHgXERm4S5jr65yYztAiNL4lIu8i9Dk7sHVtbcZ8dR18isqOXp4/MfXAviEOxguLc/ZNzbFzF5s5TldU3bNsa1OFpYXTjD+F5whap3UesWRb7nDSYI74yHrTEWZnITUpoDwUtp+/Hn0CQQR6QWzhPT8NTdnJ2P28cB0JUYHoyv8GgzJ4HArsL4lLeTBsd7vBwUAbGaHh47O9Z+RqD2S+4zN9BrmhSWzHU8CHD2tWTKjuXoiCtDqH8ZmqQImQyNUuEPkfdNernGj+e/NxspbgDSgAip5gT21CBsRQMORx0bec1svYc6EsyR/0mN3u2Sbx+xQuw8QVyOjJpcNo9k8Oj9RqbgcR/gz6HJhVGJW+K1MTxrqO7dTsM+3v+XUyV864LO0JXvcwFUdcZsZcH1kmKaQX1BuOvm7RaezbT+MeP9GzDAQXsfyUv5k8qYGxTTurx0atEH8sfQZBZMST1yngkRD6JQUmfz+8fzX0xiuFKzo+kNxZ7rEGw/q+KQlJ4pIbDWW6uJRsLmCG/W5wt3aSYCa16UQ1YodEBw/Fcy0/eyDvN7aNJ4gUiXR1JusgTNiYxlEQRDYvp4BdSJsIGq6TZHwbOp9x2RrI1RhdZkMjdczNirZJxTkRvJPVy7RgKnZiq8MOmRHQPbowDcDk9QA5D6xzUocoRa35kTeFGREFoWPgilfkegQWUeTi314/n/aln03DeX0r5uO/puP9O5IlC3r3jSfRaHt5UaFhAdL+BO5PYYAN5XOt2KJrSX176G2Tp4IgzqraXRgxA7hsRS5xTtjpS5FwyBrmPkm4XRmfWx8dwV/fz9F0VsbUfCp2E9jwsXaAjyFsKoQkdf5nWFs9dZblrsq61GWXMg9FXptSIVek0bJss6y91HbrgBz3XtLvVEWIkag8k1WG4UHJrBofYCmzvefbbUqyVYTz+9fjIm+d3YHO64B0ZyamqiERiiHYU4iJsLeUHKxuQXKrFXEAkRobMTiYCp0hBJkNIRmPcEkzkvuad1gmIp9YFas2wYOusMc+G8DrkgOLIINcDASvWaPn7/abSBnIGQ0POYSTyQa53tDsK2DYjZpONeolPXeJpbi+gHstZzDoCtR0QXuOEWwOMohgAriZciRaO5s0hu1oZBX5vhXEawC1r5vdkZJdLMG4uSxNI/3v80YLUErKx3ndceX3vZN6EcHBK5ECL03TCrWe0G8a5Ak2Z9mKW2yf/nxVBFaq9tyNp2Ou9RyB4diL8E79Leck6+r1t3zPSdeuAq9rGKNRwIi2M/omofn//lGJSslGadN7W1lz9LX9EaUJ3RJywgc1oob1QNfJHqw5NcLSXq6JSS+2iEkux5g8H4xfPKXAljSy8XCcunWUfUu9qQ/oaNEtF6JmMiDCrHKCzf0X/c/7d57UWfcSiaeQeYW/W8shxxYOVhoDdYxLzd4H4Q/8H+pL5SrqXQL+bJe2iSaIXxzCKmZ/jDGhE9dwiYjvfdoPvVl4iKhD/60+n/zLaRdRJOHWh73GcXD/P6P3Rxqp6Ibe0s5aJ1olv3WcLz2m90/wahK/SAFCGraGba5y4yXezduT+HJpWcd0HhUoi0vkbDxL7rtr4RVWWtgqsHJf2dZM/LbAIbs2n4gYva/nH+l01zJuc2mVibdxYtJs4eFlntvoUzKKWtmUc5kax7Y9eBzNasx78PTebdO6Oirekcdt7w+oBugSKXzggB7WK1HbkpBL08g9e+zdzxh2Vf8DG2FR38nHDo6PfnfferMTH03UYjkd9ZWIOBcBWkcRQaXZfcc45/H5osW8IlKiYcoQaxQIMdRLxm88PSuUGH2Zlmc5QMvcssqIPePr/+M1nPHNSVFwg75zojaEVMrNedWwFST2SLyhFeR+maQY3LqWbfflkh/cvQ5EXl6hjxCG4Xtw70/DCvfsXgL6tBDt3ygQqWS+Vt94IBsRA+Xv/dV1micYYitQESE6XiPBgI0YZGirLO6ypjB7m9Ohp423eEfKTNnnetlyX9ZWhSZ7Dl2PoB5tzmZL8557T8zJWqy8N2njPAdg1EZ5mNaOc+Pj//8jPpiWifWURrkGdD4ygDyrkQwoOq1JWN9NdTyQG3hqzUnHzoDREyUcH8OTSpKPG9P09HFJVRMzSFDWbrY2OztlBvcANUgFlhg5ZXKKM+H8f/QK1041g0iGDwTEem2Z5wlQiLyYTjYe/jmsWwbB5cpFs5gmP7Mjbz4lUOfwxNNmYsuoryvMsAJ5sXpBGFBp5D0NbxNPhpPET3bgSy76Ej+Hj8l9CzDUh6Nee+D1uqCrJfqc/Bt+gbtFF0nMFtiXZOy0NfzPFgoId46NH84n4NTWIIDXMAFtcUUEV4u4bH2Ic74sD3Y1fBF4wqblwCmNY/mf+P1792gzpPCPWxM0Bmvh+DwtJSzybGZdvy9fMdFe/HbQWWW23ZnEMHhIfqNWYXKPwMTdbk1tlOaQO/jllY0HjQqBOl5tU9pzQKecRIGE+RPOSeMHyaj+d/HBMz9KXMEAjMW//2Qgk6f2QxkSJa2U8kK0t492nMkj3vc5jlSrj+gNRnpojIDAV+32lbUnonhhi8mgfGRxWeI692kZd92j6lP1d+cB+vc8+gP57/a7PeQffXS8NyxbXExc5rQJZJ8Hw+Xnjwc7g//VzV8GAsRBvo5PXMkgGpjLCO+zWvB+mdVwMXj9v8yV6jE+j453cLgETTGbVNB4jhFvhYZl84PCV8HgATOF/smYlwElDzMYaF4+6EV/7AbG3fg5iTimY/NJ79vLs6vfLMgQ+TX6PUlHYg+48d+03gO2ueOnDN1n+yHw7iHI1f1vnhc2rYjnF3XSRGh6N9HP+iFbt5qw3X1/ssYhgn1eiwTofO/j3Ub7n21vTUMCwK9ajH/7q74n6Wxk2LHoPE+wpZlVK0iaU04jYrIY+UfUB+dYdqsGN0nUPU+uD1UC7FWSj9eP/Xjo+gvdd6tT83EjDGV1hG3KO+bxsDjBu9t6+LM3oOi4GKgDAIf7AWrhDBYzioUqPqR7GiZx+bMOD2EwwCplSXVesa+PKEvbsEi513rSIvNLPe1o+P97++7kO+UWBbBXtPs5MEumPIbq9dlQO2K5V723ut57ze1c4LThEhgTOVgTyu3sdW7YLseXjpLCFDCuaZYrIuoOoIbGbW1+XB+CcOhNLBXCDXn87P7ePrZ3UsEM68t7iady0vFvTfM9ul+brx7U6w7eJYKJtjDYOO0+Jv9U0RRPCRc8oZomG3I/wjMHtjDcHIwPAltXVEV0NCAROlWoBB6c1aNrss2I/n+3j9CyhaJYextdjnd4DRwOGKSGIGaFRiMvn+PCT3xipjwLzmCG5r97OUX/fXkJXwq9D3vyN7RCtCEDyZIeLH/FMvvGf/A8OPYPg5lK0uXgddn4/Dn5nGQ+3MKz6Z7DPvgyuVBf01xutdpAZxnYeExHCmaicKcq85tbxGRMisKX46DOPoE7qflzlHbdzsk3gykqX5LT9zBpZyYUcieXZVs4FwYTtSDw8Cq+fj+PfEg5wXIMxBn1wmF/q5kwr/P40jxAfsbgnb7TDaZWWNvbSTZH5vknHltq2vIQAhx7JQXkgpPr5vtevIkS6uxLwIkdS2PUh5uxk3tFO0LU0CvQrhP97/9Dh5o2O2zhGZ36dxE4R83CMI3jUi+TLQkQuHbLVtI5f9VYnRyg677P1l/M6kzlaGzshiF02QFIOkzZgF92pBzGM3Br5aHwrkXT4LNL1nYvYKxBX98fVzCTJXUnMVS2cD7TbeCObnDSdzOHEfG3rxVFRblFKbW3fEAM0pSYuXOfg1eKWO3Fdq/doNI5Qhbk4relCSxNqUE+IJwUsQZ+Kywd5URYwsB8IBwfnH6z+zpXvpXlJ/qETdpT20BFKldV56w65jr5Kns8wHpSZEDrwEiSdpNzT4UxXLSr0c35SP7SZIpeZVqRtH4LscWxH7guFjcgjDzaaBijz6kouhHte/fh7+iTR92oUYnu1oorDOO6/88mxwQVrwtCWSWNRaFjt0rlE/hBOx9/cdDp7zeZnvazErxrN1NsIdW6upzNbohgzhRPWZYzS/xpza89DdKmSElUIjIX3e/2U+x3NhbWihuf/qRzNjXuce5pc4dTnzvLWVG+K4iN+Cz1XpeYeHQjtmCyJZkGk91kSnCz3K4hyCwTSR7YomoY6S3td8vkP9k9Izu8T3mmdd2H78/ptXZ2oGaFNJWFUOk5EiMUE1Rh5/cjQG1xJ7/OHc60Hkl+lsap93uFTwzuGW3XQ2PB3vL07BoCCNXPuk9fOrUqV0x/sOmGF8DMZpqMzNPolULppXbz4+/3iMlc+vvFm85sh757e3AG0sB0qye2dnfcl2finqXQ8X0eZzIT93+Oj3WJuJgebomB5Hl0awpWwhN46GVZzWfENu4RZm77OFOi5AbXElrsHoh5Sxf9z/01IGF3U/By6Wjzqv6GFC67zWuszMD0UjRxyDZyd5WKtE5f91h1NXuuSZx4pEKYyYMjHX0bUZiVa1iGFnV6zgUI6zsnGNveerz8iSzwsDzRZzlB8/f8K2lUDlZyIpqu2q56lzXNZU8uL0e94B6qtmM2f3iW8C0f7PHV4Qdzpe67wiAJXde7kYqmQjsxUYIc+GdOB9qSxuxnlXRkt2CI/ChFiUEjSWg3w8+41CKwSg6K7COIhpPY8tO7QIs1gJNRxsPS94bOrzjneVluX3HW6zXewgChngK1Pb07wse9WeAK8v0JTiVgCh+7srPDwN2MwIpK7AbyAen+Le5+jUh2VOcPleT//+FrzZ+Y5PdgtxUrYgoxN3SAFGM/vdgd89b/2PO/xgfmuSUs8Dd0Pfz+2ylHXCpuMZa6FqRZgTfPuJcc+pjtQUBIJLVizPC+DPKj/e//54a+HcfVGQeMFVuekTBpwvTdv83gPEwuGBPZ0LpNWwcP2+yuY954qQCB7OXnj6QhbLj/cX3tpLeKun00DwW5DyzkmZvtRZQl0WVKqm4p6QB5mP5//60UtxBckuAuG9gFDW23cb/7zD00FHXPSaV8LPi4HY4jn54w7PMlMes5flQVzok1lcnN95Pceo8Edq977M6cf11aLCTe5AGuKMdNSCtoR2A0R/vvyDDnrOK7LZzEIOxLpct5+s/LzD1ayF99nrNsvba5k2TP64yqbaUt9fcv1unWx8VUHPrxA8EQqiuct8prIhgrg7uhLBOJlfMdxn6XPejfnGQ5+H/7/kIAs+6lZCiX7mLLa5rhmgy5hf/yZmmeTVanDxL1fZ1I3Kd2EA+U8gvJqwSAwSM8nb+/6+AUlgmMjyddj5Fbv1uDHqzaTJ+7cIyM/3/3/lK1/5yle+8pWvfOUrX/nKV77yla985Stf+cpXvvKVr3zlK1/5yle+8pWvfOUrX/nKV77yla985Stf+cpXvvKVr3zlK1/5yle+8pWvfOUrX/nKV77yla985Stf+cpXvvKVr3zlK1/5yle+8pWvfOUrX/nKV77yla985Stf+cpXvvKVr3zlK1/5yle+8pWvfOUrX/nKV77yla985Stf+cpXvvKVr3zlK1/5yle+8hWA/wfdmhmZdymm9wAADl1ta0JU+s7K/gB/90AAAAAAAAAAAAAAAAAAAAAAAAAAAAAAAAAAAAAAAAAAAAAAAAAAAAAAAAAAAAAAAAAAAAAAAAAAAAAAAAAAAAAAAAAAAHic7V0JUFXXGU6X6XTf2+m0M520SSf7bmyWxpikaRLbpFmaxWhVFDFRribGLWriEpcmMdasGhONS6yKsoMICrgArigiIAiIKLiACCiLrH/Pd969cH0+4AHv3nPee+eb+QZHHvecd7+z/uf//3MVEV2l6LecqkU/OInxPsY/MH6LUXSdFO0jMb2dmcG4gXEe40DG36s24bN0pb8rVjCGMs5ifILxF4zfUO3C6+mu/q54kHE+46OMP1JtwSvZG/3NrGdMYgxg/LlqC15DT+lvZiPjfkasLW9k/KZqD9LSCv3NbGHM1teS16p2IB2t1t+ZBxgHMX5ftQUpaLf+BssZP2fso9qBX+pvnh92MD6m2oFf6m+wmTGPMZjxB6ot+J3+ZlYzvsf4a0nbAeo1VtK6+YL+BmsYZzL+WKJ3DZvnMMYGxp9JVC9f1N/gRc1hSxD9rsA/sXrsYrykOWxd35WkXr6sv8HjjC8xflvgOx+m1wX9P4Lxp0p/W4n9wl7NcV5t91n1Nay8GKf6XK/0F0LsF5YzXmPj+w9wUY/JmneffYnWsbesYxzH+D2LNbiJPX+bi/JjGX+n9BdOzAl3WqjDxE7KvkXpLwWxJnuH8Tse1gP+LkWdlDuN8Yde2gZEa2YF4Ydwmwf1WNZFeamM1yn9peJpxkAPaDKCPeO8G+U9rPSXjk2McVrP1+fwY0oyP/OViHtodtLLtD5zIb0Sea+5rAWaXHZKpb+DsBcUMPbXum8v+C/7fKvxrFcj76PXY/9KWwv+RzUN1TQm+gFzOTsZb1L6S0loCJ+0CZr76zT4vZ80P2fYxlvos90T8MqY/lX0+d4p+u/6GZ95WukvPRcz/qoLnTBf7Db/XVD43TR9y7OUXprI9W9ovkSpxTE0Nro/BbfrP0fp7xWMZvxjJ1qt1xznO/zzwVEP0PDQO2hD1iIy4yIbAybH/8P8XPix3OxlbUC0FqJYxPi4k1awIb6mOc4b2z4L7d/fGUTFlUcu0/9SUy2tOfQfGh/7KI2JalsLvKz09xqWML5g0qsv+3el5rTmw8/9JVvJGc0tTZR5JoUmbf47jY6833jmAqW/V/Gs5uiz2LtlOf9+cMj1FJu77ArtzZiTPIT1/78Y64DtmiPmQbSuSn/3CT+jYuf/Dwy7i5bsmUzlNSWd6r8+8wN6Y9NjNJq1Ac3h12weU2Sn6HcvJdGfJ8YNoOOVOZ1qD2SX7aa3tvyL24b0v1+s9PduBjPmMF3dxfxtATSS7RH1v09g/K2XtAHh71omGnv51OJovsd3FzG5X9KEuMeN9WKp5sibIFpbpX83iDEf8/imvBVM+3q3tQcwB8xMHEhB4X2N53nLPkD4e5eB2L9NjHuCIo8s6ZbuZixK1Wh46O3GMzEHeNoPQelvAdHvx8Y8RCvSZ/dYeyA065O2tqQ5Yp77Kf3lpkOr/hRy+HLbbk+QXppEb299np8VaI58GN5wHiBcA1GEXT8wvA8tT59BTS2Nvda/trGaPt71Og3beKtRxnalv5yE9iPC7qS1h96nVmrptfYGNrBxJICtAYId5wGYA26VvA0I10KU9hE5iz2mu4EDp5Jo+pbnDFsA/MbeVPrLw+CofmzMv4sS8r/2uPZAWW0JfZg2zjwHbFL6y0HYdmCjTTkeycb8Vkv0B9Yeeo8GhVxvlHuU8ScStwHhuthF+GpknN5OLa3NlmkP7DwewccZ3RaI88Uhmry5MoXrYnWfH8f29u/tGEkVtaetlL0NBecyaG7yUH5+yOpQy/ilJm8OPOEaWcXRUfdze+66zAVU31RrpeSXobH5Eq3JeJf+veFGoy75mrx5tYXrZAVfibiXjfdPUmLhOiul7hBJhSH04rprjPrAp6iPpGOAcK08TcNfr/RCoaUad4bDZ1L5eYLuEwD/Eviey5jzULheniLGe6y5wrI/sXyN1xVOXyiij9g+cETYHagb4pAQH/JLpb81HBXxZ257zzydYqmu7gL25PDsT81rAFDGPAHCtestsc5eeXAOVdaXWappdwGf4ZfWXWuuK/xMZTsTFq5fT4nYm1mJA9lcmyJ8vHeFgooMejP+KTYntcWJLtG6jj1S+ndBh2/mExSfv5oaWxqsFbEXKK8t5TGCI8P7GHXP0eTLgS5cT3cJ/+pxMQ/T8v0zpBvrXQFrALRR01kA6Mm8FH6hP87r4KcBG172Wfd9cmVAXnk6DQ65wfx9hmpy2YKF69sZ4U+JuNu0EzEWK2UNSqsLaMbWF/icpX+npYy/Ufp3Mdaz/o64OuRauNRUZ7FK1qGi7jR9vmdKWxyhJp9PiHCtzcSafmrCMxR3dCXVNl6wWB3rgba7hbXhURF9zd/zQaV/Ox0xF/24/SYhf41HfPFkAuKITHsAcKTS3+GLgzX9/O0B3FbS0uo5PzyZUFZTQhM3DzB/94WaPLmibNcddnr8XHFgNpWw9ZGvA3vVD9PG8rlNzxWUosmTJ8Q23bEGQu40xNicrztj9WuXBvAL35j1EY8x0eMLcZfuI/6gP9r8lPin6Kv0mWwvvN/n5nZ30My+c8ap7dwPKbg9T0yAr+qPfg777MoD71DW2TSv3r95CuU1pdx2adJ/ni/p79B8ANN8DuWW76PGbsbP+jqwl53F5j5TvrgQTY4cAT3UvD9NYH0cPg4JBWvoRFWuX47t7gK5wpbtf5vnD9XHANyD2tcb9Ed9x8b05/vzZfvfouTCECo6n0WtPrpfswLwCd18dBXPEaHbgpFj7jkZ9R+/6W/07vYRtPrAXNpasJZyyvbQxYZKy9+RLwO54g6fSaPJm58054qTITaMEgvX83O1YxWHWZ+2Li7Gn4F4I9gBpiU8Yz4LWCiD/gr2gecJa/cHCtXE+4Qq2AjsibEG1NcA6RKsARVsRHTuUr5P1tcAyBX5ktLff5ByPIrejP+n2SdU9D3SCjai6Hw2zUx8kccr6PovUvr7D85cLOZnYEHt/iArlf7+Bfix6rHhIO6iEHl/rILNQI6wURH3GOcA8Ad8SOkvHoghqmu8aHk5oVkf8T2gvgcoZHxS6S8W0P2UTfHiuE8CZ2e6HRB5Iico/cUCftr7Sq+848UKHChNduQJbV8DzlL6iwX2ZTjrsgMu9F+n9BeHspqTtK0olPLPZdhSXlV9Ob2/I4jnoNT1D1P6i0NqcRQtStNsK8+F/rg3UFRcuF/jXO0pWnVwLr/DyU4gR2hA+10BSn9B2HUilj5IeZWOlO+ztVzcK2aKC0degP5Kf3sBn6xPd73Bc4XZDSf9YQN4SulvL5AHGHaY6CNf2F722swF3A9E9wPAPeODlP72oar+HL27I5Dtw16gk9VHbS8/Lm8Fb3v6OXC9wHgAv0R4zmf0/Nqr6euM+ULKV/qLQ35FBs1IfJFGR95He05uFlIHpb84LNk7heflW7xnkrA41ORjITQpboD5zthIpb/12FEUzuNRB4VcR4kFYnJDA4ipmJ00iALD2vJCJCv9rQX6OvJFDt14C72TPJgKKzKF1UXpby+QW+TjXeN5DPbA9X8SlhfegNLfPiD+PCZ3GY9rg98lcrLaddbTEZT+9qGoMpv7W+A9w+YWf3SV8Fhlpb89gL/ttIRn2+KYtZgH6dj5LNHVUvrbgPN1Z2l5+sw2X3v8jMpdKkVeQaW/9UgqXE9DNtzUFteOHGzw9ZABSn9rAbuecb4CP2vk3kKcuyy5iJT+1gG5DBBnj9zRXHvcE5E0UIpx34DS3xqculBEi1I1Cgi9jb9X5JpEHum9JfHC1/xmKP2twfL0GW13LmHsxxkL8ozKBqW/57H64DzuU2nk2IN/NWItz1w8LrpqVwB+Z1MTnjb7gCv9e4G1hxbwed7IrYTYGuTaQqyNjHA6/1X69wLx+atoMpvjTe+ShofeznMuywoX+qvz324CZzqb8r4y51PhDAzvw+dWzLGyQvl/9A7w3U0tjub3e5vu1uH/xpwalWu/T2d38FX6LJ4DAHcgKP27h/qmGn6vmll3g7D3IUdpQ7Mcdp6O4OT/Xc04RenfNZBzFnv5Me15tNuIO1bg1yfzuG9A+f/3BK207dgGPr7ruTMuy1GM9wmbv+xwEf+n9HcDWOuZ9/dmDt14M63L/MCW/B29hQv9VfxXF0DOlOFhd7jUHue6iOUoqc4XXU234CL+X8V/dgDk5FmdAbveXS61x/oZPn25ZfbGb/YGaWzfgvMpUw5Apb8LYI+3dN9Utq6726X2ho0X+0CZzna6glP+J5X/wwVqGqq4/Q7xEfoe+fJ+H+3o96FZH0t1rusOvtg3ne9dTXsYpb8O5Mkvry3ld0KO1n03rhzzH6DXYh+hT3e/we9V8TY45X9U+b90NLDxfmdxJPfTdrW/N/o92sXcbUPZ573vjikX+V8rGUf5u/51TTX8zmfjbtCOGMTWAnOTh9CFSxWiq9wjpJcm0rQtz5rj/vw+/yd8Mj/ZNd68HnZJrAPRd46U7RVd5R7DKf8/uEUTew+cUOSVp/O5Hv26037Pxkv4S8BvwpuxMHUMn8NMa9oQgdoL1R+xuLhH0HQfkkvi93hfuBvemwHf4+ls7Df7KWh+mP8fNh3kXAvswKZjJtYDmBcS8r8WUVWPoYP73+oYR/iT/sVVuTSPjfem/U+HRNuAjTzqyFK7q+lxYK8Snv2Zs79CjuC1n236w5YXm7eM+2J3Nd4bHBxyA78z0xfg4v5fcDPj1b6sP+w58L9dmDJGv//6SnuOK6LfhxxeRBcbqqyuoi04UZXnfP836NP3P2K9s+1YKLfnuKO5QcRtxbCxwhvOct1BXWMNH/sQg+ZkzwySQP//AwQdYzF3x0WEAAAE+W1rQlT6zsr+AIACqAAAAAAAAAAAAAAAAAAAAAAAAAAAAAAAAAAAAAAAAAAAAAAAAAAAAAAAAAAAAAAAAAAAAAAAAAAAAAAAAAAAAAAAAAAAeJztne1t2zAQhjOCR/AI2aAeISN4AQEewRt4BI2QHx2AI3gEjpARUh9KoaojySR1dzyS7wMc0C804j0kxS9Jb28AAAAAAAAAAAAAAAAAAAAAAAAAAAAAAAAAAAAAAAAAAAAAAAAAAAAAAAAAAAAAAIsch9+/TiHOj7jO4jL7O4rS1wr2cQpePx/hH/GdEV+PcI+4hfpybKheUH7GR9xXynxRLO/kyi1cT+w1HYKjz/Dvc3zHhA/14aPSunBKbA9URw4CZZ1c5TiYX9N7+L2k863+4VZRv3DbUc53hjIeQzvncDVdk7bztXCD7T5hZMp3zs8+hDYq0f5Ke38Ob7AeXBjzndrXcbX32sINNuYRR+b8u8gyUV+xNJbrLeieKzF+imUUKNOres3V37QSPiJnElC9k+h7P1fKInWfbyVuynXgQ7AsS+7R378ON+jdD66C5Zj3Z3CfFn7gmU+/YlTy7wzktLbgWlPZQtLLNVy7ZB/TekjXAWn/ltbfag3JOiDtX/L/7ymk6oCkn9y9G8Ry+IF/XiDpH8Efd/jvPjjXiOC/zuDaP+zdP/WnLsR0zm+c/Vnp61sLGg9yjAUsl5Ejns+z0JiU9p5SxtK0P/oR6oU3UKZ5WeB/Oah9nEN+7uHXXGPn6Vxk6TJS7N0zbM0/eb8yut7iMPCdVcsN37l/Kv8YPJQ6S0P3h5JrHZcd5a7R/33QPXseC40RSp0xzu3vavFfyznq41Bmn/uamRfr/jXv51yUOOPkG/Q/Vub9Ge06cM7IlUX/1OYtnIvmQLMO5OwNWPNP11Nzm39G+9xb6h6xJf9jQ97ncD9fsRWpe0NW/Ofcu2pC8pz1PHyF/lt3P6G1RpRyDyjtX/t5h5JIPWuzJ6cl/XPsX9WGxlnolHlAKf9+aGucH4tWHxCb21L+NZ5tsYpGHxB7PqiE/9y16lY4KOQ4dgyg7d937n5Cei7gjPq39t6TUmisB8Rch6b/2DrZC9L5jtkr1/Tfyp4OF9L3gJh8a/n3cP8D6XlAzLkwLf+9rPGmcBLOecw8S8t/j2s9MUjmPGZ9VcN/j+u8sXjBvDsj/tH3ryOZfyv+0fevIzkHiNkHkvbP/bx6a0jPAV79fGn/Pe3v59C6f6z3btO6f+vP65Smdf8aOayZlv07+H8J/PdNy/57P+cTQ8vzf/h/Ten+F/7L4uG/a6RyTzHCv2la3/+H/22kv4FV+vwP/G/T+vk/+N9G+jmwmH13+C+D9Pn/r8jcw38ZRmH/Dv7NovEMcGzu4V+fs7B7CgvP/8L/Ml7Bv4Xn/+H/Jxpt38r7P+D/f6hNarT9lLzDvx5a30G18v4v+P+H1ndQfWLO4V8erX6fwtL7P+H/L5rfBkk9bw3/soyK7l1GvuFfDk33FNbe/9+zf233PjPX8M8LjfUkc8rZ9gn454POW5T4/ldu2yfgfz8lvvfE0fYJ+M/Hwvc/975foQf/fuD9XuT0LehSzudh+fu/Vvw/txdaIyOHsXuktHZ7Ds5LtvXn4Hi3Rm/+l8KthDfgeC18Qv3dAv7rDK536cJ/fcGZV/ivK7jfpQn/9QSNXbnfpQj/dQTNOyTepdWD/z+YAe/lB+FdCgAACmVta0JU+s7K/gCAA08AAAAAAAAAAAAAAAAAAAAAAAAAAAAAAAAAAAAAAAAAAAAAAAAAAAAAAAAAAAAAAAAAAAAAAAAAAAAAAAAAAAAAAAAAAHic7Z15cJVXFcBxGR2r49qOVh3tjNqxOm0dS2mRkoraClTbtEK1lS5YCiHhEUqIlTUtUJCl7EGLWFuWkCAhK9kDWQhZCyQhIc3SrJg9JHnZl3c8576kA2lC3vK9e7/33jkzv/9e4Lvn9333nrt8700BgCkj3GWIejQDAbl4gHfEDMipjYfB4QHgkBpTxhDM/t0qxvpfy/7dKsb690AnhbLvAZ/IRyAofzt09rWpzYb7xVj/xHH27zYxnv8A2f6XRXrAprMLoNFYozQZbhjj+Z+DTiql+scaYE28J9R3VqrMhTvGeP6/gU5CZPcBL526F6quFytNhhvGeP6JpbL9v3L653Cu4iTPAeTGRP4fQCd5Mv0vDpsG/87bAK09DSrz4W4xkX/iTZn+l0ZMh83nXoDajjKF6XC7uJX/38seA54PuRsKGs4rTIfbxa38fxedBMn0//Kp++DUlX3QM9ClMCXuE8VNWbfyTzwtuwbYkvISzwMcGH2D3XChJho2nVsAr4ZNncz/j9BLmsx74LmQH8JZnAdwaBs17aVwIn8H+MfOFbXWSL4n8/95/IyX3DHgXjictx6u9zapS5aLRGdfK6RWnoatqX8B3+hZYp11TL4n8098Hz+Xj5hk+PeOnIH90oOQXhWuLG/OHMa+65BWGQYHs1eBd8QvJsu3Jf6/hJ/zQ4bl9QH3wYEsP2jp+Z+yPDpT9AwaIac2DvZnvgYrYx7HZ+gRS3NtiX/i6/jZcln3AF3/4vBpEFv6vqqU6j6au+sgufwE7ExfAivO/FrsodqQa0v9fw4/+wJyXVYfsDD0Z7DrvDc0GKtUpVhXMTjcDyXNeXD88jZ4I/lPsJzG86hPjOeO8j+KtPOByyJnwqLTD8D7FzepSbjyMEF9ZxUkVwSL58CcE7t92+uf9oZrZd0DXjhP8Y+dA/FlR9QokByNXTWQU5cARy5uhtfjnsB52qT1m2z/RJgs/8RinAvQ2RCav7paNHXViuf73Q8CICD5j6JPN9jfpzva/3T8u6uyrpHGOKoHt6S8DM1dddgrmpS40iLofEtyeTAcylkLq+OfkvF8O8I/sVPmdVIt4Bv9K9idsQw6+lpVqLM6hoYHobTlIiSWB8Hh3HViHKNzzop9a+X/a/i3SXKv1QP7x1+KsUCP58To7Goujt3BBW+LPQwdur4J6ntWxc621T+xEP+dNtnXTTXw6nhPqGgtVGDZHP2DvVDWchniSo/Au3kBsCbBE7zCp0vNg614hT+MteXvIOrqIbpn7fFP7FbRBloj/mvsE5BRHQnDpiGHuqbzaDXtJR/XaVtTFprX0uXWaXZDe6vb0hZBYWPGjc2z1z+dE8tW0R6qCahNQfk7wNjfrplvWm/KrUuE0Cv7RD8++n+p9mcrVHecLNwj7uFxnhV7/RMvKr2vw6fhePAkXKiOssoz1Wd1HWWQVhUG/y3cCwezVom1cx8ndk3QOvBrZ34DgdieS/Wp0N3fCTDxnEkL/7RHvENlm6kmoDki7XN+cC0ZTKbhT7huNFZDVk0MHL20BTae/bOYTzjzc31z+2eK9m9PexWfg2jsDy1+j0oL/8SP8TrOKc/DyJgckPQsnC4KFOeJ30p5UeyPuIrrG1mCtRyNUQllx6C9t9lS547wTzyG1zSoOieuDN3D1Lcfyl0DKZWhWpyV19I/jQOLVefIlRjts948+xzWcLuhqCkLBob67HXuKP8EnRPYgwypzp2zQvWbf9xc2Jvpi/36cWjpdugZGK39E182mOeEPBZYANUsVIv+PfUVCLq8HUqac8Vev6RwhP9PYbu+gxRr9TysPPMY7MkwQFjRQYj58D8CqnmoT1yfOE/UQao9WgOtwa1NeBpCCnZB7rVE6LS8Xtc6HOF/lIewrR/ZnKORvX9ah2mbpM6paC2AA5krxbqgHuv80XMbtH8VW/oeVLeXaO3R1nCkf2I+trva2nwtDL0fc+UD1zorLG4IrW3RejCtC9N9oNS32KuaJc5p0Zn7zOoz0D3QqYEuzcPR/glfzEm7Ne5p7YrORtgSdEbOK0L+eED7fatiZ8N+7IeSyoOgufuabUbkhgz/RIDBgvcHloQ/BBuS5kN562WbG0T7Ndk1sVLOVtD/QXtpRy9tFXv9Eus2rUKWf+LtyfK54OQ9mrz30dHXAjvTvRyyT7c8ynwGIfLqO2IcHzIN2n29CkOmf2LLhP0n1vl+Mb/FZ7/A7kYN4HNIe3ha7Od4j8w/aEzKro2Dtt5GMJmc9wzamJDt/1uY06Pj5Vnr7/+g9XAaj215L4LqR9ozIOcFDenifnLRkO2fuB1zfGBszheFTYXQogPQNdChScP6h3rR/xwr3oXyEM73XvCFzJroj+t1GkuuNuVAcWOWOMtHaw907uef2a+LNYl9+Hl672pPxnJYlzjPqrqD7k26RwMz/cS/MxG7z/uIM4S0Hji6/jGW6JLDWHeegHy8Xz/CPrSs5ZIlqPBPfBXbv+nGXGj9/U/W+vfDsYLmarQ//E7O39DlM2INwtE1pGJU+SfoDOkuw8g6Mb3zS+820fOmwr+botI/8QW8hn8g3TT3ozU8W+f9N4cJ6o2Vop608b1Id0G1/1EWLY2Y3kB1V3FTtt326TtO4suOir1yPa4H6wjV3m9k2oOBU66EFR/EPqDOLv9tPY2wOsFTzNV1kGM9o9r5WH76zLFvZ1W1Fdk8x6b3g6iOUL0H4CSo9j0ed/rHzQ6mZ9ja6OpvF98fR++N6yC3zoBq17firZ4BI47lPRa5bzBWi/qR5pE6yKuzoNrxZDy/78KKzuSKkAnPQdV1lMN7FzeK9nCf73L+iYfxOkvN56RmiTW3wCw/WJ80X7wP6mzvYekM1W4thc6V/gsZ0EHOXAnVXq3hM3i9jyMf6iBvroJqp7ZwG173EQOfL3ZX/6PQd1NX6iCHzoxqh/byFWzDfh3k0VlR7U8rZhiU/Hax06Pam5bQXqIPYtRBXp0F1c4cwfewXduQPh3kV++oduUo6B20bxrM84QeHeRZr6j2JAN6F/GkDnKtR1S7kckPsL3hOsi5nlDtRAVTsd0ROsi9HlDtQiV3Y/sDkRqDxN820RmqHeiBT2Me/oDkGNzve0tU515v3IU52Yg06MAN+1cH9QlPIYlIlw48sX910NmDJQbXnDuozq2zQfcCfacJnUWR/t3n7F930PeerkPSDc45TqjOnytBv5NJ34FK9WOCwfxbeVJ+M5X965Y7MceeyAYkGKnXgXP2r5YvYt5/gsxD6HeUjhnM351dapB7vrWJ/euSz6KX+5FZyFxkBbIZeQMJGIH2t2OQ1JF7h+qPaIR+j2XtyGdH8UfodxsfRWYid7B3hmEYhmEYhmEYhmEYhmEYhmEYhmEYhmEYhmEYhmEYhmEYhmEYhmEYhmEYhmEYhmEYhmEYhmEYhmEYhmEYhmEYhmEYhmEYhmEYhtGE/wO7SVa9QstU1wAACHpta0JU+s7K/gCAFXQAAAAAAAAAAAAAAAAAAAAAAAAAAAAAAAAAAAAAAAAAAAAAAAAAAAAAAAAAAAAAAAAAAAAAAAAAAAAAAAAAAAAAAAAAAHic7Z15bFRVFIfRuC8xwZhoNG7/oFEUYlRkR0CBCCEuAQVkScNWnkAhILJvjRqFyJKAQhCRvYW2tIVWliJQCpS9LKVACwXbQhcotEBLezyn7cikEdrCvHfOe/f8yBdCykzvPV9m5r27TT0AqKeI5WlrXavmyIdIa6RVFWOQycgkP6Yio5HPqh7Tuop2yPPIfQh3f5RKyMULSBdkZJW/lUgccggpRsAmTiEbq34fdx1MoD7WuSMyDlmBpCKlNvqtC9y18RqPVb3njkUikBykTIBn9W8Pj1d91oYiB5GbApyqf3t5Fuv2JbIOKRLgUP3bz6tYqykufY2r/7uD7pnoPitFgCf17xydsS6bkBIBftS//dC9eANkGpIrwIn6d4ZHsf+fI9stOffj6t9+nsR+D7Eqx8G4688NtwsnobH0CcgFAXWXArcTJ3gY+zkIyRRQb2lwu7ETGosNQo4JqLNUuB3ZwSPYr+7IUctbYzXqv2baYJ+SBNTVLXD7ChSvYF+WC6in2+D2FgiCsR8FAmrpRrjd3QsvWZVzcNw1dDPcDu+WEEvv403zfz+29zUkxjJjbkb934Lu6Xog2QJq5iW4vdYGWie7RkCtvAi325qgtZQ6fmem/16WufOyJvun9RhzBdTGBLhdV+dBbNNSAXUxBW7f/ryO7dkqoCYmwe3cR3tsS4aAepgGt3d6v6e5WtPWXUqB0z3tnRpq6Vieif7J/QgB/TcdDvd0fxckoO8Kj/9RAvqt8PgfJqDPCo9/utYrF9BnxXn/vfF35Qnor+K8f9pjp2M7MrHbfRP8HUcE9FNx3v9z+Pw7BfRRcd4/je/QOj2dv5eNHe5p3918y/1nI5lAoN0/gc853NLXvVsItH+ax6U9l3qf7w4C6b4hPl+6gD4pzvuns9L+FNAfhcd/sIC+KDz+P8HnuSygL4rz/l/E54gS0A+Fx3+ogD4oPP474OPTBPRB4fEfLqD9Co//ifjYawLarzjvn+71kwW0XeHxP8vS175XqKt72qN3UkC7FR7/y/Ax1wW0W3HW/wP4f1tYuk/Pa9TW/1NW5XdG6l49b1Eb9w9Zld+TIfl7DBX7/NP5W3Qug67p8B618d9JQDsVHv8vW3rGrpepyX9LAW1UePw/gz+fJ6CNCo//VvjziwLaqPD4HymgfQqP/zfwZwkC2qfw+O8joG1KgBkY0QSmbekFsxOHwcLk8RB17Nfb+Z/N3VblFsFRzWFkbAf4efugCnezEodWMAP/HZbyC8SlLYHY1EUQfXwB/HVyKezP2gqn8g5BWu5+OJG7D0rLSuA2ud09n5e/856NIVEt4JvoNv+9BhfsGQfxaUthfervsOX0aki9mAwncw/A0ZwkKLyedztngYxe9wXccUsYFtMWpm7pWeEX32Mh+dxGOJKzE67cKHDCaV3yf/4XcNfQTQyKbAqjN3SG+bvHwKaTKyCj4BjcLCtllVqHVHffGPu0m7um0hkR+zHM2z0atmVEwMWr53kN3luq+6cz2nRtnx9D1rWs+Hvipm4QnjILDmcnuun1XVOq+1/MXW8p0Pt6SOxHsHjfVDidnwLl5WW8puyJv/v62O/N3HXnZkDE+zBl81cV1+NFNy4z67E91ef5jd3PNTiyGczZGQJpefuhHP8YEn//ky3DPvuD8X48JKY9LNo7CbKupHv1Pf5O8fe/gduHY6/1qOYwLLot3p+Ph6zCdF4DvPFf47eX24vd0PjbwMgPYMaOYDiVf5i79hLi898R63OK24+d0NzHqPWdYGt6OHfNJcXnn76TwbPnc/cLbwS/7RkLecVZ3PWWFp//JZYH1/fT2A3dw+/K3ABl5l3b1SY+/we4XQXaO82z/bRtAGQXZnDXWHLIPe3nP8HtLFDQXDmNz686PBNKym5w11d6fGu9PHHtR2N3NE6fmruXu65uCfkfZHlgnW/QmncgNKEPnLl0jLumbgr5/xbrl8/t716g63taG0VjeJo6hfwvt1x8pkOfsLdgTlIIXCz6h7uWbgz5j7Vcel5/3/C30f0IyLmayV1Ht4b8n+f2eDf0X/suTE/oDekFR7hr6Oa40v/gqGYV4zppuQe46+f2NMJ6XuD2WVdoDofWSmvuOa0tl53pROuydmWuv9OeBk3t4xr/NHc7PKYdRBydB8WlV7nr5pW4wj+5HxrdBmbusHRMN7Ch72O/xO23JmjufsLGL/Ae/5xJa/OcyCSsbyG33zu6x2u9MXFdIOH0au5aeTGi/dNeOprTmZs0krtOXo1o/zTGM2lTNziYtY27Tl6NWP80j0+f+2Eps7hr5OWI9d83vBHM2D4Ysq/o+h0bI9I/3e/RvF4k3utrbI1I//3WNIYf/g6C9Pwj3PXxekT677GygX7uOxNx/vuvfQ++i+8KKdmJ3LUxIV0tYfs+vl79JizZHwpFJYXctTEhosb/6bqvd1hD2JUZx10XUyLKP733hyb0hoyCo9x1MSWi/NM9H133FZfo/K5DEbX+q8eqBrDnXDx3TUyKGP90/sq4+E/1vd/ZkP9EbvcEffYvTJ4AecXZ3DUxKWL2f9D+LTrD+FppEXdNTAr5/x7rf5nbP137Hb+wh7sepkXM/k9a53P2Uip3PUwL+W+K9T/D6Z7W+Uzd3BNyrpzlrodpEbH/n87hm5s0AvL12s/piDj/hdb6LDv4IxRez+euh2nx+Y/i9E/nMW5I+wOv/XXcz+H4/E+32OaBW1aM/ezOjNM9Xc7H5787ushU/8ZFwPmv6p8x/uc/M539r/4Z4+9/JvooV/9Gxd9/N/RxVv0blX8BIK3iO8BmkgoAACAASURBVHic7N13fFxXnf//18yoF6tY7k3ulrsTpzvRNSEkhBGOIcBCFmKzS8eTBPa77G9LymOB71ITRgv7pSwxy1KWFgcPYSGEjNITUuTYqY5t2Y57kWzJalPu7487cmRbtjWaO3Pnzryfj4cfEGnm3o+m3Pu+55x7jsc0TURERETEPl6nCxARERHJNQpYIiIiIjZTwBIRERGxmQKWiIiIiM0UsERERERspoAlIiIiYjMFLBERERGbKWCJiIiI2EwBS0RERMRmClgiIiIiNlPAEhEREbGZApaIiIiIzRSwRERERGymgCUiIiJiMwUsEREREZspYImIiIjYTAFLRERExGYKWCIiIiI2U8ASERERsZkCloiIiIjNFLBEREREbKaAJSIiImIzBSwRERERmylgiYiIiNhMAUtERETEZgpYIiIiIjZTwBIRERGxmQKWiIiIiM0UsERERERspoAlIiIiYjMFLBERERGbKWCJiIiI2EwBS0RERMRmClgiIiIiNlPAEhEREbGZApaIiIiIzRSwRERERGymgCUiIiJiMwUsEREREZspYImIiIjYTAFLRERExGYKWCIiIiI2U8ASERERsZkCloiIiIjNFLBEREREbKaAJSIiImIzBSwRERERmylgiYiIiNhMAUtERETEZgpYIiIiIjZTwBIRERGxmQKWiIiIiM0UsERERERspoAlIiIiYjMFLBERERGbKWCJiIiI2EwBS0RERMRmBU4XICLuFggZo4EGoAiIA2biV5cDJYP+G8AHdAFvAAd46xhUALwC7A36w4MfLyLiSh7T1LFMRM4UCBkeYBJwATAHqMAKUtXABGAWUJqm3W8HdgBHgE1AFHgM2AfsCvrDsTTtV0TEFgpYIkIgZNQClwAXAguBZcAMsreVexOwNfFvM/B40B/e5WxJIiJvUcASyTOBkFEGXAxcAVwEXAbU4f4xmUeBMLAFeAp4BjiqLkcRcYIClkiOC4SMcqwWqeuBdwELsMZC5YNW4H+BPwNPBf3hTofrEZE8oYAlkoMCIWM8sBL4EPA2oMzZirJCL/Ak8GPg/qA/fNThekQkhylgieSIQMiYAawBVpFfrVQjEQFeBH4DbABeDfrDcWdLEpFcooAl4mKBkDEJ+AhwE1aokuTFgVeB+4EfBv3hNxyuR0RygAKWiAsFQkYTcCtwJVDocDm55gXgG8B9QX+42+liRMSdFLBEXCAxJ9Uc4MPAJ4HRzlaUFw5jdSF+P+gPP+t0MSLiLgpYIlksEDJKse78uxVrnqpsnZcql8WBx4EvBf3hPzhdjIi4gwKWSBYKhIxK4GbgNqwJP8V5MWAb0AzcG/SHTzhcj4hkMQUskSySWNfvM8BngTEOlyNndxz4LvD1oD980OliThcIGWOBvwr6w0GnaxHJVwpYIlkgEDKKgY8C/whMdrgcGb4TwNeBbwb94eNOFwMnx+vdjBUAxwf94XaHSxLJS25fGkPE1QIhoywQMv4Wa8bx76Bw5TblwB3AnkDI+Eeni0mYBXwCMIEbAiGjxOF6RPKSBsyKOCBx0rsBuB3r7kBNCupuFcCXAiHj48A/AL8K+sNRh2q5ArgU6MeadPY+rFnsRSSD1IIlkmGBkLESa1HinwENKFzlkmnAT4AnAiHj8kDIyOh7GwgZM4EbE/9ZhBWwxmeyBhGxKGCJZEggZEwPhIyfYS08fInT9UjaeIGLgEeA7ydCT6ZchTWtx2CrEnelikgGKWCJZEAgZHwGeB74K6drkYzxAWuBzYGQcUtiTrO0CYSMBViD2093FTAqnfsWkTMpYImkUSBkTAuEjI3AvwPVTtcjjigF7gFaAiHjgjTu53qg8Sw/r03jfkVkCJqmQSRNAiHjc1gDnjWflQzoB74K/GvQH+63a6OBkPFOrLtQ68/ykH8GvhX0h7vs2qeInJvuIhSxUSBkeLHuCvwGcA1aiFlOVYQVdq4IhIzbgv7wJpu2eyNnD1dgtWL9CnjNpv2JyHmoi1DEJompFz6IdYfg9ShcydmtBP43MQdaSgIh42+A1ed52OXApFT3JSLDp4AlYoNAyJgM/BT4b2Ccw+WIO4wH/iMQMn4/0rv8AiGjFrgJqAGIxPoYUz6JFdNWEYmf0QN5fSBkaLC7SIYoYImkKBAyDOBBzt+KIHK6AuAdwAuBkGGMYN6sfwEMgGg8QmlhBZdP9fOuuX+Dz3vGCJBLgCmpFiwiw6OAJZKCQMj4MFa4mud0LeJaXmAG8EfgtkDIqBjOkwIh44NYY688AD2RTmaPXsrVMz8ImCwed0XikSdvZFoBzLazcBE5OwUskREIhAxPIGR8G/gvdLOIpM6DNWbva8DXAiHjnHeeJroUbyGxdmVftJvJVbO5ZMo7ASj0lbBw3Ao8eDjtPvHl9pcuIkNRwBJJUiBkFGKNtfq007VITvok8MNAyJhxjsf8AFgKYJpxovEoSyZcxQUT3wZAka+YxeNXUFpUgcdq4BpwVSBkLExX4SLyFgUskSQEQkYD8CfgQ07XIjnNDzwUCBnXDf5hIGSUBkLGrVh3qRYDdEe6aBh7ERdPuvaUDRR6C1k8fgWF3iLiZnzgx1cCi9NevYgoYIkMVyBkXAP8HmvpEZF0qwd+EAgZ7x/0s0XAHUA5WAPby4tGsXL6+5lafeowwAJvEYvGraDAV4T5VsACSOds8iKSoJncRc4j0SX4XqzlbkY7XI7kn4PAbUAIeAJYMPCL9p4DfHDx/+H6uR8965O/FL6ZfZ3b8Xi8A92FjwCfCvrDL6e3bJH8phYskXMIhIxyrLFW/4XClThjLPA9YDODwlVPpIsV01Zx8eRrz/pEgNmjl1BSUD64m3A+oHFYImmmgCVyFolw9UmshXo1K7s4qRyYOvAfcTNGTek4rptzM3Xl556gfeH4KygrrCQejw78qA5rJnkRSSMFLJEhBEKGB2vZm687XYvI6TweH2svvJ1p1Q3nfez8MZdQVlhJzIwN/vHMQMiYmLYCRUQBS+Qs/g/wfaeLEBnMTMxq9cHFf8fM2qXDft6i8VdQVTKaaDwy8KMFQKPtBYrISQpYIqdJ3Ab/FafrEBksbsYo9pXyzjlrWT7p7RT5iof93Om1C6koqiH2VjfhRODCdNQpIhYFLJFBAiHjFuCbTtchMlgsHqWssJKrpq/mnXNupshXktTz54+5hOqSOqKnLgC9OBAyimwtVEROUsASSQiEjJuB2+HUqa9FnBQ3YxT4ilgw9jLePe8TI97OlKq5lBdVDW7FmgRcakeNInImBSwRIBAybgTuAmqdrkVkQCwexespYMW0Vdx8wb+ktK36mvnUlI4d3Io1A3hHqjWKyNAUsCTvBULGpVjhaprTtYgMMM04/fE+lk1sZPX81Je9nDfmQsaUT6Y/1jfwoxKspXNEJA0UsCSvBULGBOBurMkXRbKCacbpiZ7g6hkfYM0Ft1PgTX0atrLCUYyvmIbH4x28dE5dIGRobUKRNFDAkryVmEj0B8Byp2sRGTAQrprmfYy/Wvx3eGw8TM8cvZhJo2bSF+sd+NEE4F227UBETlLAkrwUCBllWHcLGkCBs9WIWEzTpDfWzQcWfY5VDZ+0ffuTq+Ywpnwykbe6CWtQN6FIWihgSd4JhIwK4BPAR4Eyh8sRAaxJRKPxftYsu523z/pQWvYxpmwSY8snETl1uoZZgZBRlZYdiuQxBSzJR5cBXwN8ThciMqC8aBSfvOQrXDb1XXjSOFPI5Ko51JSMHTyrexWwKrE8lIjYRAFL8kogZCwCvocVrnRCEUeZmHg9XqZUzeHvV3yfJeOvwutJb+6fUFHPhMrpg7sJK4Cr0PdBxFYKWJI3AiFjEvAFoN7hUkSImVGKfaVcNvVdrLvsHmrLxmdkv1Or51FfM5++WM/Aj8qw1iVUwBKxkQKW5JMbgJucLkIkEuunsriW6+eu5QOLPk9JQeaGAhb6iplQOX3wfFgAdcCyQMjQOUHEJrp7SvJCIGT4gS87XYfIif7jNIy9iA8t+QITK2c4UsOY8klMrZpDZ187hdai0YVYd9S+DHQ7UpRIjtHViuS8QMiYCnwcGOV0LZK/YmaUaDyCf97f8LkrvuNYuAKoK5vIlKo5ROInW7GKgVXorloR2yhgST74JNDkdBGSv/pjvdSVTeRTF3+V1fM/k/aB7OdTVz6JKVVzBncTFgArsIKWiNhAAUtyWiBkXAe8z+k6JH/1RLq4fFoTt13xbRaNv8LpcgAo8BYypWoukVj/6b9qDISMIidqEsk1GoMlue5jwCyni5D848HD6LIJvGfBZ5g/9lLHW61OV11ax/Sa+XT0HqLAezJTXQU8CBxyrjKR3KCAJTkrEDLuAK53ug7JL3EzRllhJW+f9SFWzng/hd7sbBCqKhlDfc18nt3zp9MDVhUKWCIpU8CSnJSY86oJKHG6FskPMTNGobeIZRMMVi/4DNUlY5wu6ZyqS8ZQX7OAJ3c9QElB+cCPG4DyczxNRIZJY7AkV30BWOB0EZL7TDNOLB6lvrqBj1/0ZdZeeGfWhyuwxmHVV88fvGTOgKVaNkckdWrBkpwTCBkNWF2Dar2StOqL9jC2YjLXz/0ol015l9PlJK2iqIqZtYs43L138BixK4A/APudq0zE/RSwJBf9CzDZ6SIkd8XiUSqKq1nV8AlWTLuB4oJSp0sakZLCciZWzuDgiTdPD1hjUcASSYkCluSMQMgoAC4D3oHm85E08OChoriGK+tv4Kr61ZQVVjpdUkrKC6uYMXoxz+/7M9Zk7gDMB2qcq0okNyhgSS4pB+5AM7aLjUxMPEBN6ThWTLuBlTPeR4G38LzPc4PiglImjZpB3Iyf/qs5QIsDJYnkDAUsyQmJyRGvAVaimzfEBqZpEifOlKrZXDPzJpZNXInXk3sfrbqyyVSXjqU3cmLwjxsCIWNU0B8+7lRdIm6ngCW5YiywDtDdT5KSmBnF5ylg+eS38/aZH2LSqJlOl5RWhb4iJo+axbYjL2ISJ/EVuhiYCmxxtDgRF1PAklyxGGuSRJERicYjTKisZ8mEq7hy2g3UlI5zuqSMKPIVM2nULLYd3YxpnrxCaQDGoYAlMmIKWOJ6gZBRD3zK6TrEfTx4KCsaxdy6C7h8qp8ZtYtzZnzVcBX7SplVu4RH2+7DSlgegFqsFiwRGSEFLMkFUwG/00WIO0TjESqKqlg47nIunHQ1s2qXunaaBTv4vIVMGjWLIXrXZztQjkjOUMASVwuEjDHAh5yuQ7KbFaqqWTjuci6Zci0zahZS6NM8tAPKiiqpLRvPkRN7iRPHY4WtWYGQMTHoD+91uj4RN1LAErebD7zX6SIk23goLihlatUc5o29mHl1FzKhckbedf8Nl8/jY/KoWXT0HCQe6xvoJpyFNWGvApbICChgidtdBNQ5XYQ4xzTjeL0+qkvGMK16HjNqFlFfM59p1Q14cnBahXTwenxMGjWLVw49Q3+sd6CzcDYwBXjGydpE3EoBS1wrEDIWoLFXeafQV8y48ilMrJzBhFEzmDhqBlOq5lBRVO10aa41ELB8nkLMt24lrMCacFRERkABS9zsIqDR6SLEPpFYH5OrZlNVPJqyokrGlE+hvKiK8RXTKC0op75mAR6Ppjqzm9frY3LVLAq8BZiYg381xqmaRNxOAUvc7EKnCxBL3IxRWlDBhFHTKfIWnzxJR+P9TK2eR2VxLbF4lLgZo7iglLryyYwqqiFuxjAxmV6zUOOjHOTBQ3XJGLwe3+kBa1ogZNQF/eHDTtUm4lYKWOJKgZBxFdayOGIjazxTAWPLJ1NVPJrSwgqmVjcQi0coKSxnYuV0fJ4C+mO9TK6aTWVxrdMli41mjV5CV38H/bFevB4fQD0wA1DAEkmSApa41cXAAqeLcCPTNCnwFTK6bAITKuoZWzGViZUzKC0sZ2r1PI1lymO1ZeMo8BbRF+0ZGIc1FStgaaC7SJIUsMSt5jldgFtE4xFGFY9mRu1CZtUuYeboJUweNQufV19/OVVNyXgKvIWJNQkB6w7dsQ6WJOJaOsKK6wRCxjKstQflLIp8JcyuW8qCsZcxr+4i6sonOl2SuMCkUTMpLighbsYH/3iGU/WIuJkClrjRVcAip4vIFiYmHjzUlo1n8bgrmFO3nIYxF6mFSpJWWlgx1ED3GqfqEXEzHYHFjS4A8n6dk2g8QmlhBUvGX8mV9aup18SakqJxFVMpKSgnHo+B7+SPawMhozLoD3c6WJqI6yhgiasEQkYt1uzSeas/1sukUTO5sn41F096B2VFo5wuSXJIaWEFPm/hyZZRrC7C5cDDzlYm4i4KWOI2l5KnASsWjzJ/7CVcO+fDzKxdMnDykzwRN2P0RXsoLaxI634mVk5n+9HN9EV7BrqZS7BmdReRJChgidtcgrUAbV6Im3GKfSUsGn8F1825mXHlU9UNmId6Il109B5kQmX6x5uXFJQnWrC6B340EZgLbEz7zkVyiAKWuM0l5MH4q5gZo8hbzJLxl/OuuR9lfGW90yWJg3qiXezp3JGRgDWhcgZlhRUc7ztCAYVgfd8q075jkRyjgCWuEQgZk8nxtdFMM07UjDKn7gJWNXySGTULnS5JssDx3qMc6znkZAlzndy5iBspYImbLAJydprxSKyPUcW1vGve33BV/XucLkeyxKETb7Lz2KtMq27IyP5m1C6ksqiGPfFtg+8kLMrIzkVyiAZziJvkbMA60X+MCyddzRca/1PhSk6x9cgLtO4LM2v0EifLqAuEjJxuPRaxm1qwxE1yLmCZmBT5SvjExf/G8knX4NUAdhnkSPc+th3dzISK+ozts6qkjqKC0tNncxeRJOloLm6yiBz5zJqYeDxe6qsb+PsV3+PiydcqXMkZth55gUMn3mTxhKsyut9iXwnmqQGrDi2uLpIUtWCJKwRCxiSgzOk67BA3Y5QUlHPJlOu4Yf6nKfRqeIucKRLr4/k9fyZuxphXt9zpcooBzWgrkgQFLHGLagYPuXWp/lgv4yvr+dCSv2fO6AucLkey2DNv/oE3jm7ibTM+kPF9V5WOoaSwnLgZw+vxgTXIXVM1iCRBAUvc4ipcfgXdE+liRu0iblr6BaZWzXO6HMlix3qP8PiujVQW17J0YmPG919dXEdpQTm90RMDAUtdhCJJ0qAPcYsqXNyCdaL/GA1jL2bthXcoXMl5PbzjFzy750/MqVvG5FGznS5HREZALVjiFktw6Riszr52lk9+Ox9Y9HfUlU1wuhzJcm8c3UTrvhbGlE1k9uhlTpcjIiOkFixxC1e2YHX1d7B88jW8b+FtClcyLA9t+zmvHXqOReNXMHv0UkdqKCkso9BbhGmaJ3+EughFkqKAJW6xBJe1uPZFu5k1einvmvtRxpbnzfrUkoJH2zbQ1v4yPq+POaMvoKZ0nCN1jKuYRkVxDdF4dPCPXT0GUiTTFLBE0iBmRqkoruH9C2+jvnq+0+WIC7T3HODh7b9gX+cO5o25iPoafW5E3EwBS7JeIGQsBQqdriMZcTPOJy76stPLm4hLxM04P9n0VY727Kc/1svlU/3MqF3kdFkikgJXdblI3qrGRRcD0XiEtRfczozaxU6XIi7QF+3hT9t+xo72LfRGu6mvbtCdpiI5QAFLxCamGafQV8zVMz/IovFXUuB1VaObOGRf1w7CO35FJNZHX7QHY/qN6h4UyQEKWCI2MM04Pm8BU6sbuH7uWi1/I8NyoGsXP/jLv9AX7cY041SW1DC77gKFc5Ec4JpuF8lrS8nyi4FoPEJVSR1/vfQLOjnKsLT3HOSB1+/lcPceACLxfq6ZdRPjKqY6XJmI2EEBS9wgq8dgReL91JSO5W0z3k9d2SQ8eJwuSVygdV+Y8PZfUuQrAWBUyWgunfxOygq15J9ILsjak5aIG5imiWnGmVw1h8bpNzpdjrjEM2/+gV9suYfK4hpMTDweL9fNvplRxaOdLk1EbKKAJZKC/lgPEyrrWTFtldOliEu8fPBpfvvKd4nHY3g8Xrx4GV02nkunvJPiglKnyxMRmyhgiYxQ3Izh9fhYOO4KFo9f4XQ54gL7Ott48I2fsLdzO8UFpcTNGCWF5bxzzpqTXYUikhsUsERGqDvSxZy6C1gx7d1OlyIu8b9b1/Pc3oeoKKombsYo9pUyf+wlXDTpHbo5QiTHKGCJjIBpxjHNODNrFzOuYprT5YgL/Hfr/+XxnRupSoyzGrg54rrZH3G4sjMd6z1Mb/QEXq9OESIjpW+PyAh0R7toGHsxi8df6XQp4gI/f/Eb/OXNP1LsK8Xj8RKNRxhVXMuFE6/OyoDe0XOInkgXPo/P6VJEXEsBS2QE+iLdzKxdrBm35bz++MaPad33MJF4Hz6vNZ1bX7SbKVVzuH7uRx2uLinHnS5AxE2yevJGkWzUF+1hWk0D8+qWO12KZLG4GecPW/+Lh7f/khP9xyhIzO7fEz1Bfc0Crpl1k8MVJqUXeMnpIkTcRAFL3KAViDhdxIDeaDcNYy5meu1Cp0uRLBWJ9fGXPQ/y0Laf0xs9cbLlyrrz1MvSiQYNYy52uMqz29+1k86+dkoKyp0uRcS1FLDEDToA0+kiwBrc7vF4mFN3oWbcliH1Rk/wSNt9/PaV7+L1+PAOGsfU2ddO4/T3cG2Wt171RbuJxiN4PCdXJehHXYQiSdEYLJEk9Mf6mFt3AeMqpjhdimQh04yz+cDj/PaV750SrMAKXtNrF3LZVD9FPtdNKHoYeNnpIkTcRC1YIknoj/Uyp+5CxpZrQV45nckjbb/hpy9+7YxJQ00zTiTWT2P9e7K6axCsKRo6+9pPdmuKyMioBUuyXtAfDgN9TtcBEIn3Ma16HqWFGpsip/r96z/ix63/lyJv8RkLfnf2t3PdnJu5dMr1DlWXsj7URSiSFF2iiAxTLB5levUCxpRPdroUyTK/eamZ371+L2UFFXg8p1639sd6mT/2UlZMezelhRUOVTh8249uobP/jBasw+guQpGkKGCJW+wEJjpZQDQeYXrtQiqLa50sQ7JI3Izx0xe/Snj7r4cMV6ZpUlJQxqp5n2DSqFkOVZmc3mgXsXj0jFY4EUmOugjFLXbicDdh3IwxoXK67h4UwJqK4T+fu51HdtxHaUHZGeEKoD/ey/sXfY6Zo5c4UOHI7OvcQXekE5/nlOvvvUF/+JBTNYm4kVqwxC0GAlaxUwVE4xFm1CykpKDMqRIkS5zoP8Z/Pnc7rxx8JrH8zamtPSYmPo+Pa2d9mKUTGl21kPPRnoP0x3qHDIwiMnwKWOIWO7Hm4nFMSWE5ZUWjnCxBHGZicqR7Hz949p/ZfWwrBb6iM7rSTDNOga+I2aOX8q65H6XYZYG8vecAfdGewePFeoFnHSxJxJUUsMQtNgHdTu3cNE0mVc6k2H3zF4lN+mN9PLPnD9z30rfpi/YMuRCyiUkckzHlk/nb5V88Y7qGbHegaxe90RN4vaf8bb1Ap0MlibiWApa4xTEg6tTOTUxqy8ZR6CtyqgRxUE/0BC07fs3GV7+Hz1OA9yzdZ/3RHqZVN7Du0m+6LlwB7Dn+Bn2xXrynDs/dC7zuUEkirqVOdnGFoD/8Eo5eRZvUlI47uWCv5I9DJ97kh8/ezoaXv3P6wO9T9Ea7mVw1m/cs+Kxr7zTd27mN/mjv6bPQ7wVec6gkEddSC5a4yS7AkduxTKC2bLxasPLM64ef5zcv/zs7jm4551iqvlgPY8oncc2sm5g35qIMVmivrUc20RPtOj1gtQf94b1O1STiVgpY4iabAQPI8DwJJpgmtSVqwconj7Zt4JdbvkU03n/OcBWNRyjylmBMf5+bZ2qnL9rD0e59xOKR0z/nClciI6CAJW6yGWssliaikrSJmzF+sukrPLLjN5QUlJ1zioWYGSVuxlg9/9NcM+tDGazSXrF4lK1HWonEInhOHTnSg/W9E5EkKWCJmzwGHAS0Vo2kxa5jr/GTTV9h+5EXz7usjWnG6Yv2sKrhk1wz66YMVZgeMTPKG0daicb7T5/Tqw3Y7kxVIu6mQe7iGkF/+E2sFiwRW0VifTzw+g/59lOfZ3fHa8NaM7Cj9zDvW3grTfM+loEK0ysaj/DigceIxPpOn2B0F7DDobJEXE0tWOI2m7DGYWmhNEmZicnBrl38dNPX2NnxCrF4dFizrndHOnl3wye4Ytq7M1Bl+h3p3sfR7v3EzdjpAevloD/c5lBZIq6mgCVu8xTwXmCK04WIu/VFe3hq9+/57avfJRKzlrk8fcmboUTi/axe8BneNv39w2rpynY9kRNsPvAYJiac+fe/6kRNIrlAAUvc5mlgNwpYkoId7S/xm5f/na2HWynyDW95S9M0KfAWcn3DWozpN1JSUJ7mKjOjL9bNG0c2gWme3iy8FU0wKjJiGoMlrpLortjtdB3iTiYmf3zjx3z9sU+y4+iWYYeruBmjuKCEy6Zez9Uz/ipnwhVAe89BNu9/3GrBOjVitaKAJTJiasESN9oMfMDpIsRddrS/xC82383WI89TVjj8Rbuj8QiVxdU0Tn8v18/5aBorzLzuSCdbDj6JzzvkqaBVE4yKjJwClrjRo8AWYGFmdufB4/HwxtFNzBtzEZXFNZnZrdiiJ9rF/S9/l6d2P0Ak1pdUuIrE+qguHcO1sz+CMf3GNFbpjCPde3lsx4ahJtCNYt1QIiIjpC5CcZ2gP/wI8KLTdUj2e2r3A3zx4Y/QsuPXxM3Y2VpqhtQX7aG2bDw3zP90ToYrgH2dbezvahtq8eqngZ0OlCSSM9SCJW6V0bEhHrxsO/IiPZEutWBluWg8wmuHn+W+l7/DoRNvEjfjSa8h2RvtZnzFNN67cB1Lxl+Vpkqdtb9rJ0/teoCSoZcBui/oD2/JdE0iuUQBS9zqGaxZpuszsjcP9ES6iJuxjOxORmbP8Te47+Xv8Mqhv+BLLFjsSXLKtON9R7li2rt538JbqC4Zk44ys8KBrp28sD9MRWH1UL9W96BIihSwvQaspgAAIABJREFUxK2eSfyrz8TOPHjY07mNvlhPJnYnSTrSvZffvvp9nt3zIF58J8NVsrr6Orh65gdZ1fAJRhXX2lxl9jjed4TWfS1YU1+dEUCfBN50oCyRnKIxWOJKQX/4CBDO5D4LvIXsOLqFaDySyd3KOfRGuvjllnu4/aEP8OyeB/F5CoY1WeiZTExMmho+zur5n8rpcAXwyqG/8MSuEGVFQw74/zlaHkckZWrBEjd7BngOuDATO/N5CtjevoXFE66itnRcJnYpZxE3Y/zutf+kZcdvOBE5TuGZd8ElpcBbxNoL72DB2MuHGvCdUyKxvpPjCYfoAu0GHgr6w30OlCaSUxSwxLWC/vBzgZDxOzIVsLw+9nXuoDvSqYDlABOTY72HebTtPh7b+Vs6+9op8BaOOFyZponPW8DU6nmsnv9pplXPy/lwBdC6L8zzex+ifOjpKn4LHM1wSSI5SQFL3O7ZTO2owFvEywefpr3nAJNHzcrUbvOeSZzdx17nwTd+yov7H7MWJMYzrEWZzyZmxij2lXLBxJV8YNHnk77L0K36oz28uP9xDp3YQ1VJ3VAPaQ76w/syXZdILlLAErd7AfgZ8MFM7KzIV8Lrh59nVu1SSgtzZ7mUbPXKoad54PX1bD38AkW+EiD5uwJP1x/rZUz5JPxzP8YlU66zo0zXeHjHr2nd10J5UdXpv4oBr2CtPygiNsj99nDJaUF/+E3gl5nanxWwnuPgiV2Z2mXe6Yt28+Tu3/HF8Ie5+/HPsrP9lZPhKhWmGac/1svC8Vfw6Uu+nnfham/ndl7c/yjdkc6hWv96gG8BnZmvTCQ3qQVLcsEWrOVzrkz3jooLStl84HG2H93CtOqGdO8ur+w+tpXHd97P83sfpqu/nQJvkW2LKsfMKKZpcv3ctfjnfiwvxlqd7oHXfsjWIy9QVlg51K8PYk0u2pvhskRylgKW5IJdwE/JQMACKPaVsr19M8t6jZyeiDITOvuO8sK+Fp7YFWJ/5w5i8Rgej2eotfFGrD/Wy/jKabxv4a0sGHuZbdt1kyd2bmRH+0t4Pb6hprHoANYD7RkvTCSHeUzTdLoGkZQFQsY0rDugFkGKg3TOI2ZGicT6+ciyf2LFtFXp3FVO6urr4IV9YbYcfJwt+5/Al8Jg9fPxeDxcOuVdXD9nzdkGdee8Y72HaX7yNnYfe53igtKhHrIVuCjoDx/LcGkiOU0tWJIrjgD/BXyVNAcsn6eA7lgnm/Y/SsPYixldOiGdu8sJPdEutux/nKff/AM72l+iN9qNz+NLU7gy8Xh8jC2fzHsWfIY5dctHPLN7Lvjppq9yuHsPhb7ioX7dDtyrcCViP7VgSc4IhIxarMlHp5PmGzhiZoxovJ/V8z/DdbM/ks5dudbh7j28uO9RXtgX5s3jbxCJ9eFNc9CJmVHKC0fROP1Grpv9EXze/L2G7I/18eftP+ehN35OT7TrbK/9JmBV0B/emeHyRHJe/h59JBd1AXcBQWDIFWzt4vP46In188rBp1k2oZFxFdPSuTtXiMb72XZ0M8/teYitR17gaM+Bk3NWAWkNV3EzjsfjYeG4y7lxQYAx5ZPTti83iMYjvHzwSX7/2nriZvxsr30vEFK4EkkPtWBJzgmEjMeBy9O9H9OM0xvt5sr6G/jIsn9O9+6ykMn+zl28fOgpNu17hB3tL2Ga5gjXAhy5nkgX02sXckPDp5g/9pKM7jtbtbW/xDce//T55gx7BHhv0B8+nKGyRPKKWrAkF30R+B6Q1mYMj8dLga+ILQee4I9v/Jh3zPpwOneXFQ6e2M3Ojld59eAzvHTwSY4nlqsZkMlwFYn1UV1Sxw3zP8VV9attvfPQzfYcf4N7n7+LuBk/19izXuB+hSuR9FHAkpwT9Id/HwgZz5LmgAVQ6C3iWO9hntn9RxrGXMqUqtnp3mVGHTrxJpsPPM7OjlfY2fEq7T0HMc0YA/cRpLJczUiZmMTiUYwZN/LOOWsZVVyb8Rqy1ZvHtvKTTf/G/q6dFPuGvGNwwB+B72eoLJG8pIAlueqrwLzEv7QqKihlX1cb/936ZT62/IuMLp+Y8nIuTtnf2cbLB59m29HN7GjfQkfvoSFClHN/W9yMsWLaDVw98wN5P87qdMf6jvCn7T/j1UPPUllcc66H9gAbgv6wZm0XSSONwZKcFQgZXwc+n4l9mWYcn7eQ+pr5fPTCu1zRqhKLR9nevpmdHa+ys/1lXjv8HCf6j2fdnXcxM0ZZYQWXTnknjdPfy+jSCXjycCb2cznac4BfbL6bp3c/QOX5P3vfCPrDf5eJukTyWXYdSUXs9SVgKXB1unfk8XiJm1F2tG8h+MQt/O3yf2V8ZX26d5uUzr52Xjv8LNuObmb70Rd589gbZ4SpbApX0XiE8qJRLJ94NStnvJ+xFVOdLikrHTzxJj978ats2vvIcMLVVqwJeUUkzdSCJTktEDLWAt8AztlnYifTNKksruVvl/8rM2oXZmq3p+iP9rLr2GtsO/oie49v442jmzjafYBCX/YPBI/E+qgqqWPFtHfTOP3G83V35bU9ndv4aetXeO3ws5QVjhrOUz4W9Id/kO66REQBS/JAIGTcDdyayX3GzCgVhdWsmv8JLp1yfVrngIrGI+zr3M7WI63s7HiFA5272N/VRmzQHFRu0BftYeboxVw/dy0Lx6Z9lg3X296+hZ9u+gq7Ol6jpKBsOE/5H+D/BP3h3WkuTURQF6Hkh//Gmhfr4kzt0OcpoDtynB89/0V2drxG07yPUVFUZcu2D3TtZPexrezqeIXXDj/Hvs42TDN+xrgkt4SrkoIyLpp8LZdOuY5Jo2alfbb3XPBo2wYeeP1ejvUeHm646gTuVrgSyRy1YEleCISMjwA/cmLffbEeRpeOp2nex7hsqn/Yz4vFo+zvamN7+xYOdO7i0IndvHH0RfqiPXhdPMg7bsYo8pUwa/RSLp/WxJzaZZQVVeDk3Ylu0d5zgAde/yHP7XmYSKw3mcH+64DvBf3h/jSWJyKDKGBJXgiEjGKsCUgduXvKNE3ixJlSNYd3zLqJZROMU06OsXiUI9172dH+EluPtLKj/SWOdO8jFo/kxB1zphknjkl9dQMrpq1i0fjLqSjS2KrhipsxNh94nN+89G3aew4k+/SfAp8L+sNJP1FERk4BS/JGIGTMA/4DMJyqwcTEg4fa0nEsmdBIe88B9ne1cejEHqKx/pwIU4P1x/qYVj2X5ZOu4eLJ11JVUud0Sa7T3nOA0Gv/ydO7/xePx5NM128c2A1cE/SHt6avQhEZigKW5JVAyLgGeACNP0wL04xT6CumYezFzKm7kEXjrqC2dJzTZbnWE7s28ttXvsex3sMU+oqTfXoH8B7g0aA/HLW/OhE5F51kJN88AnwG+K7TheSCgcH1deUTaRhzMQvGXcbs2qUjCQMyyM6OV7n/lf/glUN/ocBTMJLXsx34etAffjgN5YnIMKgFS/JOIGTUArcDnwV0y1qS4maMsqJRTK6aTUPdxVwwcSWjyyY4XVZOONK9l1+9FGTLgScxzfhI76iMAz8L+sN/bXN5IpIEBSzJS4GQMQp4ELgAteSek4mJz1PAhMrpTK2aywWTVjKzdjEF3uyftNQNYvEo24++SHjHr3j10LP0xXpTvUv0T8D7gv5wh00lisgI6MQi+aoTa3zKg0BDKhuKmzGKfaVMrZ7HtOoGigtKASjwFtLRe4jN+x/n4Ik3KXJRt1kk1sfosgksHn8lM0YvYm7dhVTqrj9b9cd6ad0X5uHtv2TP8TcYmKYixXD1PPB3ClcizlMLluS1QMi4BPgZMD3Z50bi/VQWVXPplHeycsb7qTnHYO7tRzfz+9fX8/Khp/Hizbq7BU3TxOPxMKN2EfPGLGf+2EuZWjXX6bJy0tGe/Ty07X94bs+f6Ow7is9baNem92JNx/A/dm1QREZOAUvyXiBkvA/4OjDs1YS7+jtYPH4F71/0OSZWzhjWc+JmjKd2P8D9L3+XrkgHPo9zDcgmJl6Pj9rSccytu5D66vksnnAlZYWVjtWUy7r629m8/wke3bmBnR2v4sVjd8g2sZbB+YadGxWRkVPAEgECIeMW4C7gvOvZdPV3sHzSNbxv4S2MKZ+c9L5eO/wc9zzxWQq9me0yjMWjlBVVMq16Pg1jlrNkQiN1ZRMzWkO+iJlR9h3fzq5jr/P4ro28eWwr8Xg0nS2XdwX94TvTtXERSZ4ClkhCIGTcAdzBOdZs6Y/1Mq5iKh9Z9k/MrF0yov1E4xGe3/MQ61/4Vwrs6x46675GFdeycNwVXDLlWqbXLNDg9DQ51nuEF/c/xrajm3j9yPN09bWToeV/7gH+IegP92ViZyIyPBrkLpIQ9IfvStxd+LmzPeZE/3GumXXTiMMVWIPf5429iJm1i9l97DViZszWhZk9eBhTPpklE65kyYRGJo2a6Wh3ZC6KxPo53L2HtvaX2Hb0RV479ByHu/eeNl9VRsLV94AvK1yJZB+1YImcJhAyvgz8f6f/PGbGKC0o51OXfI2ZtYtS2kck3s+mfY/wsxe/lvLizTEzRomvlJmjl7B80tuZXbeM6uIxeDxaPDlVkVgfR3r2cbBrN23tL3O87wj7u3ax9/g2IrE+p29W+B3w2aA/3OZkESIyNF3WipwpCEwBTpmoMRrrZ/7Et1FTOjblHRR6i5g9emkiWCV/kRMzoxT5Spg9ehlX1q9i3piLKVTXX9IisT7a2l/C6/Wxv3MnPdEuDnTtpquvnX2dOzjQteuss6g7GK5MrHD1iaA/vNepIkTk3BSwRE4T9If3B0LGbcAxrGV1AIgTp7p07Ml5rlJVWlgBeJKIVyY+byHTaxZy8eRrWDz+KsoKKzned4RtRzZhmnH2dG4nEuvD6/HR1v4SvdFuvB5rWohYPMbh7r0c6d477LFfcTNGaWEF06sXEDPPvpxdLB6lsriGqdUNROP9Z91WSUE5YyomU1lYRcyMDfsvHw6vx0dv9AR7E6/BQBddgbeQQyfe5GjPfsBDX7SHgyfe5ER/x3lnSs/CJX8iwGPAhzXXlUh2UxehyFkEQkY18HngnwG6I5389ZJ/YEX9DbYMTu+P9fJPD76H7kgnvmEsiVLkK2b5pGuIxiN0R46z+9jrHO7ep5ar/BEF/gy8P+gPH3O6GBE5N7VgiZxF0B/uCISMbwLlwDqvx1ewt3MH3ZHjjCoenfF6+mN9PLErdMrPFK7yRgz4RdAfvsnpQkRkeLJrOmmRLBP0h9uBfwJ+4PV4u9t7DtAX7bFhyyZHe/ZjmvHM3GsmbhYH/kPhSsRdFLBEziPoD/cE/eFPeT3eW14+9PSBw92pjyvui/bw4v7HiNs8RYPkHBP4UtAfXud0ISKSHAUskWH6zruf+MFfdj/+7tcOP/fSoRN7UtpWd6SL8I5fE0vv7N7ibibWws23O12IiCRPR3aRJDzzafOZHz//xQ909x97eqQ3iBzvO8rvX1/Psd5DmCOYokHywm7gPUF/+JtOFyIiI6OAJZKkX9+056VvP/P51R29h/4n2eee6D/Gg2/8hIe3/0Kzq8vZvAC8O+gPb3C6EBEZOU3TIJKCnkjXl7we3z8OZ26sA127+NWWb/HCvjBlhZUZqE5c6CfAF4L+cGp90CLiOAUskRQ1P3nbhxaMu+z/LRl/ZeXosgln/H7P8W38adtPeW7PQ8TMqFquZCgx4O+B7wX94S6nixGR1ClgidggEDIuNTH/y+fxzZ5es5BCXxH7u3ZxrPcQcTOuOwXlXLYC7wFeDvrDcaeLERF7KGCJ2CQQMmqBrwA3A6lP9S65Lgr8Cvh40B/udLoYEbGXApaIjQIhwwdcDTQDcxwuR7LXAeAfg/7wD50uRETSQwFLJA0CIaMM+H/AB9GSVHKq3wGfC/rDrztdiIikjwKWSBoFQsZq4JtAvcOliPP6sYLVt50uRETST/NgiaRR0B++D1gK/LvTtYijfgs0KFyJ5A+1YIlkSCBkXAF8Fbjc6VokI0xgG/A54PdBfzjqcD0ikkEKWCIZFAgZpcBHgX8DKhwuR9LnONYdpd8M+sO9ThcjIpmngCXigEDImAp8BrgFKHa4HLFPN/Aj4B+C/vBxp4sREecoYIk4JBAyPMBY4GvAjcD519uRbGUCG4E7gv5wq9PFiIjzFLBEskAgZEwC7gbe53QtkrQ/A3cG/eFHnS5ERLKHApZIFgmEjJnAN4BVTtci5/UUcFfQH/5fpwsRkeyjgCWShQIhYznwL8C7na5FThEFNmANYH9eaweKyNkoYIlksUDImIM1EL4JmITmrnNKO9bM/P8O7Av6wzpwisg5KWCJuEAgZHiB1cAXgAsAn7MV5Y1NwD3AL4L+cLfTxYiIeyhgibhMIGTUY82l9XFgnLPV5KR+4D7g60F/+FmnixERd1LAEnGpRKtWE/BZ4DKg3NmKXO93iX+/DPrDh50uRkTcTQFLJAcEQkYt1hQP70R3IA5XL/Ak8Avg10F/+JDD9YhIDlHAEskxibB1NfAO4L1AjbMVZZVO4PdYs60/GvSHOx2uR0RylAKWSI4LhIx5WDPFXwssI/+6Ep8BWoAQ8FTQH+53uB4RyQMKWCJ5JBAyKrDGa10JXApcBFQBHifrslEn1szqTwN/wWql6nO2JBHJRwpYInkuEDImAJcAi4H5QCMw3tGihmc3sB1oxQpUzwT94W3OliQiYlHAEpEzBEJGOTANK3BdihW4JiX+1QOFGSrlEFYX33HgJWAvsB+rZaorQzWIiCRNAUtEkhYIGQXAAqAWKAXmAHVYS8kMHFTKgEVYY77iQAFwDNgKHObUkHYC2AJ0Jx77qu7qExE3U8ASERERsZnWNRMRERGxmQKWiIiIiM0UsERERERspoAlIiIiYjMFLBERERGbKWCJiIiI2EwBS0RERMRmClgiIiIiNlPAEhEREbGZApaIiIiIzRSwRERERGymgCUiIiJiMwUsEREREZspYImIiIjYTAFLRERExGYKWCIiIiI2U8ASERERsZkCloiIiIjNFLBEREREbKaAJSIiImIzBSwRERERmylgiYiIiNhMAUtERETEZgpYIiIiIjZTwBIRERGxmQKWiIiIiM0UsERERERspoAlIiIiYjMFLBERERGbKWCJiIiI2EwBS0RERMRmClgiIiIiNlPAEhEREbGZApaIiIiIzRSwRERERGymgCUiIiJiMwUsEREREZspYImIiIjYTAFLRERExGYFThdgB4/H43QJIuJy6zY21gNrgEagGlgKtCX+tQItzU0tG5ypTiQzTNN0uoSc4cmFF1MBS0RGat3GxqXA3YAxjIe3AXc1N7WsT2NJIo7JhUyQLRSwRCRvrdvYeCdwxwieGgZWNze1dNhakIjDciETZAsFLBHJS+s2Nt6L1SU4Uq3ASoUsySW5kAmyhQa5i0jeSbRcrUlxM0uBh1MuRkRykgKWiOSVdRsbDUbWLTiUpYmwJiJyCgUsEck3doWrk9tL3IEoInKSApaI5I3EHYNGGja9Jg3bFBEXU8ASkXxys8u2KyIupYAlIvlkaZq2W79uY2N1mrYtIi6kgCUi+cRI47bTFd5ExIUUsERERERspoAlIiIiYjMFLBHJJ61p3LZmdBeRkxSwRCSfpCtgdTQ3taQzvImIyyhgiUg+aUnTdsNp2q6IuJQClojkkw2kpyvvW2nYpoi4mAKWiOSN5qaWDuwPQ+HmppawzdsUEZdTwBKRvNLc1HIn9o3F6gBus2lbIpJDFLBEJB+txp6uwts0uF1EhqKAJSJ5p7mppQ1YychbsjqAtc1NLevtqklEcosClojkpUTL00rgniSfGgZWKlyJyLl4TNN0uoaUeTwep0sQERdbt7GxHrgDa63C+rM8bAPwLQ1ol1yWC5kgWyhgiYgMkghb9YN+pElEJW/kQibIFgpYIiIiAihg2UljsERERERspoAlIiIiYjMFLBERERGbKWCJiIiI2EwBS0RERMRmClgiIiIiNlPAEhEREbGZApaIiIiIzRSwRERERGymgCUiIiJiMwUsEREREZspYImIiIjYTAFLRERExGYFThcgkknrNjbWA/WJ/xz8/wE6gNaB/2huaglnpioRkTOt29hoJP6vcY6HDWgb+Nfc1NI20n16PJ6RPvWs1m1sXApUJ/6zo7mppfVcjx9gmqbttWSSx+1/AKTnAzFciS/AwIenMfHjwR+mswkn/rcN2MlbX4zw0A/PPomwcgOwijP/5jasv/H+5qaWDZmuDU6+NwawBKu++hFsZiB0tQKbgHAqB69sknh9bsZ6bZYO+tXA33w/sCETf++g96oR63O09LSHpL2mdRsbB3+WB+9/4P1vaW5qWW/3foeoox5Yg/Va1PPW57YV63s18Bp0pLuWIeoaeG2WYL1PQ71Xg4UT/9uGdZwLk2IAyFU2Ha8GDHxfWrCOWeHUqkveuo2Na7C+Tzec5SFh4Eec47Ps9nyigJWkxJdgFdYX4VwHllS0YX34Bk7ow0r7mbJuY2M1cAdw6zCf0gbclu6glahr4CRpcP6QO1JtwAasE64j4TEVic/wvQz/AL4e6/2z9YQ+jANwRmpKBKu7Gd7r0QHc1dzUck+q+x2ijnqs98UYZh3rE7WkJWil+fvUhnWMa8GBsJgNMni8AuvzsoEMXPAm+X2Cc5wf3J5PFLCGYdCV/g2k90twNh0kWoNwuAUl0dR7HyO7ulrf3NSy1t6KTtZ0C868PwMnum+54ap83cbGuxl+MB6sA1iZatgf1DpzC6m/VynXtG5j472JepLVmti3LcEgETbvJvnXpA1YbedFWIrBd6Q2AD9y4wVLsrLkfPItrONxm50bTuH4AkOcH9yeTxSwziFxoLmD1Jpq06GVt5pW2zK100SQeZjUDgq2hazEgeoOhnfFnwlhrKCVlSeJFMLEgBEHmsTV+t0p7t/uml4gtVZoW0JW4jhzbwqbsCNoVmOdGO0Ivqlow2qVW+9gDWmReJ9vIX09HyOxHuv1bkt1QzYcX+C084Pb84kC1hCyOFgNZaDZd306d5I4AL+APa/JPc1NLbelUEs9w+9KcUIbGegSTca6jY23YgWcVHUAy5I5IK/b2Hgn6T1xtzY3tSxL5gkpXmmntO/T6jCwLlpSlUrQvBXreOdksDpdGzkStFxwPhlo0bpnpBcLNh5fANYOvO9uzycKWIOMYGxKNklrV5WNJ6QBK0cy8DJxsr7DxjrSKYx1kgg7WUQikL6AfSfQcHNTy8ph7Hcp1vcpE1fsdzU3tdw5nAfaGGqS3vdpddh50QLDfF8G7T+T789IhbFOuG0O15G0LGxhP582rNc6nMyT0nB86QCmNze1dLg9n2geLKwDXSJAPIw7wxVYH+5bgR3rNjbem/jQ2yKxLTvDFSQZktZtbFya6NJxS7gC68D68LqNjXcnTqZOsbt1whh0+/iQEle0qXbBJePmJB5r92folhG+v7di7/HGSLSWnFfiQiWT789IGcALw/27ssFp5xPD4XKSUU/ieJXk8+xunR44l7le3gesxFXcC+TIG5qwBitoPZz4++zYnt2M4daWOLg+TPafDM7mVqyThJHpHQ+6U8lut5xtf4mxGHZ1FwxX/XBe38Rn7ryPS1I1I/uOJBMKbdlm4v15GHddqFQD9yY+V1kt8Rl0+/nk1nUbG19I4iJ9TRpqSMd3I+PyOmANOnHXO1tJ2hhYJ/Z7U2xBWWVTPac774k/cTV1L9k1PmQk6hnZ1WGqDNLz2p3x3iU+Yw+TngPucBjDeEy67oxL6oSQCHr1aajDONt3fdBNKkYa9psJaxIXjVl5LEi0CubK+WQp1rnjnBe1iUCZjvej3qbGAUflbcAadOdOVn5ZbbaGYXxZziFdH/TGs/1iUEuIm68Eh3Jrhk8SaTtIDW4xGhSunDwoLhnGY876mUtRsn+3kY4iEs6oZVC4cvtJy8C6UMma43biWHUf7moVHI5qrNf6XBclRhr3X5/GbWdEXgYsG26LdqN6rC9LUgdYO8dyJbFPp1tC0s0gtcCbjGkZ2AdYc6M5ffJ29KSb5PuZzlqNwf9h0/Qq2WTg73HcoGNVJucMy6Rq4D6HxsA5fTxJWd4FrEQaz7dwNaCa5P/2+jTUMcA4/QdZ0hKSCfWMIPCOcD/pYsDJrhEjjftxi6wLMDkYrgYsdXpMVuK13UHuH6vAGgO3xuki3CavAtag25Lz2dIs/6JkQ0tIpgw0wbv2703UnmtdIzkhcbGSy8Mg1iTuVs24HA6u53KvEzfquFneBKw8ONgkIytPiIkrUsPpOjLM7SEr04P2z2XEM5nnqHy4WLk709+dPA1XA+5z8bEq4/ImYGGFCn0wLPVOjK06l0Q30xqHy3CKW0PWErIrEG9yuoBskbhb1XC6jgzJWK9E4kL9PvIzXMFbx6p8/fuTkhcBK3HiyrW70VJV73QBAxLj4rKyVS2DBgaTuunAlW0De8NOF5AlGsmv493STHQVDhofWp/ufWW5gddBziMvAhbZ1Y2RLbKitUTj4k5Rjw5cI7XejcuppInhdAEOuCMDFyd3kyXHzSyw1IE5/Vwn5wNWYlCe4XAZ2ajD6QISNC7uVDpwjcxdThcgjkrr8iqJG4PWpGv7LnUr6ZuEOifkfMDiLEt6pEkHsAHrYH8bsPK0f2sTv1uP890ZbQ7vf4CuCM9063km95NTuXIxYLHdSNeEPKdEK7sueoam4/c5FDhdQDolBnKn+0TVgRWYftTc1JL0XUyJL+9SrHETN5C51px8ueOqlbda61oS/zuNt8ZRGBmuZ7juXbexMdzc1JItLY3Z6p7mppb1ThchWWGgFetOm7ebra3sYawL5Z1n+f3AcW4p2Vl/zsvpgEX6w9U9wF2pnAQToawVK6StTQSum7Fqr7ehxqFsyOET9wasIBUebuBNBPGlWM3dBtkxiHVgWpHVTheSpTqA2xSu5DQ3Y2PAStzdnC2tNK2o0MbLAAAYuUlEQVTA/VjH76QukActcj5wIS8ZkOsBK10rcncAq5ubWsJ2b3hQ4Lot8aW4Bftbtr5l47ayQSvW3zSi4JjoXmrDCmcD4/ZuxvkxFzes29hopONz5mIdWO/1PTl8keC0MNZFSivQNtTJPNEVtxTrYmRguo5sCCL16zY23tDc1LIh1Q0lLrwyOcRkKAM9JN9KpRt80HnlnsR7twbrb6tPuUI5q5wNWIMOAOmwciTdgclK7GPtuo2Nt2GFrDtI/QtxTw6dsMNYLYhhOzea2F448brfinUgcqqJ/V5gukP7zgZtWO/zTqxWybCTxeSwMPAjhnmRknhMePDPEoFkDdbFSb3N9SVjFYmLpRTdjXPf+7RdSCS2dw9W2FqDPecVGULOBizSN7bmtkyEq8ESX4j1wPpE68odjOzvW9/c1HKbfZU5pg1rYHM4nTtJvO53rtvYuB7rYOtE03r9uo2NtzY3tdzjwL6d0spbJ/s2h2vJdWFsukhJvFd3Yn1nbsU6TjkRUG7AuqFoxBLHWae60jZgnWfa0r2jRBf7+kRXaL7PRWi7XL6LMB2tV21On+iam1rCzU0tA3clhpN46l3NTS0pHXSyxD3NTS3TM9mS0dzU0tbc1LIaazyUE91SmZjjx2kDV9XTm5taljU3tdyjcJVWA8McVqZpqMM9WC2vdrQkJavahjXznAgbA+/J6kx/9pubWu4ElpE/Nz9lRC4HrCVp2KYTB4shDQpay7Bat4Y68bfx1knrzowVlx4dWF2zjrXAJcZ1OHEQSuscPw7rwJq6ZHpzU0tGrtqFVmCZHeOUzqW5qaUjcWHixHfWGOkTHZo7sRXr+ObYOaa5qaW1uall4HwiNsjlLsJ0XPHfn4ZtpmRgnBbWWK16En3pOTZWpRWrS9Dxq6vmppa2dRsbV2J1Ga7J4K5tvTsqS6zH6grRYPXMWU+GX/PmppZ71m1s7CCzKzY0pvDcTA9sHwhXWfE9aG5qWbtuY2MLWmEjZbkcsLLhjpaMGnQ3XC7JqoMPnBybtXbdxkbIXMiqX7excU2OTEuQtrtw5Zw2ODVMoLmpZX2imztTE3YaI3lShuZOHCzrjm9w8v0ChayU5HIXYa6PWckHWXnwGZA4Wa3P4C6dvmXcDmGs7sCww3Xkm4GWbsckxmVlrAssMc1NsjL5Hcv249t6HP7MuF0uByxxt4ExV1l58BnkNjI3JmvpCE8a2WJ9YlB1tr+nuWagxTAbXve1ZO5GkfoRPGeNzTWcjSuOb4mQpXU+R0gBKzla2DJzsv7gAye7CzN5d2G6Js9Nt7U5cherG92VLTcPJL4vmRr0ntTFSGL9z0z1fLji+AYn7zDMmhu83EQBKzlr8uB2+WyQ8bnGUpE4eWUqPLhxmYu1OTJ2zI1anZ5a5nSJz0JbBnZVleTjM3UBfZebjm8Ja8m98b1pp4CVnEwO0sxX4Ww7IQxH4vbqTFzl1busm1CLMTsrWycWzkS3U7Lfk0xcvLS6ccqcgRt7nK7DbRSwkrdm3cZG3VmRPm7+EmdqfIlbugk35MjKAW7VmsU3E2zAmUl7h5TB7kHXfh8SnyV1FSYhlwNWOI3bXrNuY+O96i60XdaMFRmJxFVeJhbSNjKwj1S1/f/t3e9x28bahvHbMylAp4JDV3DkCkAVwLFUgakCOLErsFWB5WEBoiuwMixAQAVmKhBSwatU4PfDPohoRZIpcv/j+s147ExsYCUKi3ufXSxUdliuQbYvdbdrJfTNevKCv3vIvlm7us448O6q2ICYQs0BK/ToaC7pu4dXMsAZXpVSukuF/9k7LiDc5/LU2pjlXm0IvXHz5AV/dxqoDduKDyc2AOapwh3VHLD+jHCOiaSbxbr5ZhvUYX9farghU8WSVOYi3tpcF3A9takbIEk2WAm9rrEtuTr/wCp1A0pRc8BqI57rVNKtBa1pxPPWpIbq1SDG1xJjSmMffYmLeCvUpW7Ar1gAzCGIx3hoJNvp2peyoLhK3IwiVBuwEs11n8pVtG4X6+Z9AdM4uVgVMNreWaT1Jbk+SVj8NEgl2tQN2FEOAWsa+Ph3KV/iHMjX1A0oQbUBy6T6oZ7Ibefwf1bVYv+s52X3Em0PQndA08DH30db4Y2kSAVN0f6VugGS/hf4+KvAx4/OChh94mZkr/aAlUPKPpV7YeatPXlI2PpZjaM7xfiaMlz3x+LXPJQSrqQ82joJfPzsp2v3VF2/7VvVActucn3qdpgjuScPr0Rla1vNF2lOj6GH1lfwCHotSppuz6GtQafbaxxAmhpnHryqOmCZXEfVQ2VrO2xNErcphVpHd1L4J1lzWoeV63U2RjlUhYoQoc9tAx8/GQZUv1Z9wIr43qtDbE8jfrcF8pPEbYqlTd2AgNrAx8+p+lnrKL1Ef6duwK4yuElPAh+/5gGkVHf/fbDqA5YpaUfpY7kF8rdjmEasaG+Yf4lw8wi9OHdXJey5BDwmdN9aezWx9q/vIKMIWHajK3GfpYcL5HOaEvKhTd2ACPqAx84leLMWA6UK3afWPvDI4SnQbI0iYEmSvXS21LQ9LJD/blOI87TN8aZP3YAI+tQNiIDpQeARGUyBhlbqPTWK0QQsc6LyfyCOJV3ZZqbz1I050BhGPyFHsDlUsDZMDwLAv40qYNmNoIaQJbnFmbUErZqFfJIwhynjNnUDgEz1qRsQ2ggqdAcZVcCSqgtZ0n3Q+l7gexBr+QzGrPanpFC3/wY8dh/w2CjA6AKW9FPIWiVuik/Hcu9B/FzQU4dMLZWPkIySTVI3APUaZcCSXMhazrpzuS0carrRv5dbDJ/D9BEqV/M2GwBwiNEGrIFtRPpGda0lmciFrHnidqBubeoGAECuRh+wJDcKX866E0lnqmve/Gqxbq5SN+IZk9QNADBqrCFEMASsLctZd72cda/lpg37xM3xZZ5xyJqkbgAOws0JeNo0dQNCG9Er3fZCwHrEctattoJWm7g5PuQcsmoX8nU2LDAHkNIkdQNyRsB6hgWtE7k1WiuVvRh+nuGarFzepRdSyCc6S/55BKpX0BPd+6r96zsIAWsHy1m3sScOh6pWqa8Gye19hmO4OCepGwDgSaEHKTn1tyHU/vUd5LfUDSiJ7Z+1krSykcmppLf2eym+yQXFHExTNyCCScBj9wGPDYxB6Gn2Y9WxzOQpY5iF2BsVrD3ZPlqr5aw7W866V3JPIK6U/01vslg3n1I3YpBZRc2rCDvrj+FdjkDJag8g1fbfPhCwPLEnEM9tcfwbSR+U7yLk3zNaG1DzBRr6a2MNFnCACO/Sq7Z/sycIJ4mbkTUCVgC2ZutyOeveKM91W0dyO77n4G3qBgTUBD5+rgEeKEnIgcpxRoNZ36apG5A7AlZgtonpajnrziT9R/dTiamrD+8Sn38wTd2AgKaBj0/AAg4X+joqaY3uS9Q8OPaCgBWRrdsaphL/o7SVrcli3eRw4R9l0g6v7GsKukWDPXQB4DChA1Z1QWTrIS88g4CV0FZl67WkC8WvaoWewtpVLtU0n0J3qlSvAD/+DHz80wqnCeepG1ACAlYGbBrx01ZVK1bQmkY6z6+c1vTKhUijO15TA/gRY7BSW7Xn99QNKAEBKzPLWbeSq2hdRjhdTk+4zFM3wKPQ04MSFSzAi+Ws2yj8oPZj4ONHY8sfJqnbUQICVoZsrdYHSScKfOFH2KtpVzltHXGoGJ1pG+EcwFi0gY8/yaivPVQ1YTE0AlbGbI+W4CErE0eq4MK19z1OAp9mwwJ3wKsYU+6fI5wjKOvfcpr5yBoBK3NWvj4JeIppwGO/1PuSd3a3ClyMkPhHhHMAYxLjae5jCyhFsv6t+JAYEwGrABayLlK3I5Kr1A04wHvFWZuQ06a1QPGWs65XnHWNnwteCvFR4deWVoWAVY5V6gZEcpzTuxJ3ZZW3GNWr3gI3AL++RjjHkQocRNrC9lze/lEMAlYhIo6wcvCxpAWhNiL9Ful0VK+AMGJdW6clTRXa4LG4UJgDAlZZxrSw+VtB67GuFO+x5S+RzgOMig1i20inuyqhf7PB45WYGtzLb6kbEIqVNN/JLeLe/uHo5S6irxHepF6CPnUDnnAkF7Le5PzE3GLdXCneJoKt3QQAhPFV8R78uVmsm5Ncp/wtXN2Ipwb3Vl0Fa7Fujhfr5kZuyuaxDR8ncpta3izWzU1NO4jvqU/dgGdM5D6nSeJ2PMrC1TziKWOsEQFGyzZ67iOd7kiuf8suwBCu/KgqYNkP6o12H4FMJX0vaFH1NHUDEjiW+4yyutAThKveOn8AYcUcyGQXsrbuo9m0qVTVBCyrctzo5XPFR3KLqm9zXlhtU57eFTJNOnRC89QNWaybI6uQxm7LWLbpAFK7VNz1rkdyg8jkT+nZfYZw5Uk1AUuHL8Sb6H7acOqlRX6FeLlmH+CYoRzJLQz9lmofGfu5uFX8SiLVKyASW/OZ4mGSz6n6Nxs4fpZbWsOCdk+qCFhW0px6OtxUmQUtG1VMAxw6y8WVv3Aq6TZmNcs6nyvtVyH1geoVENel0gxAh/4tWjXL+tJbsc+Vd1UELLmnBX2b6j5oxXpK7F8C70ES4/1bIQzVrKBBy4LVJ7nOJ9h5fmFD9QqIy6pYqQY2R3LVrND923yxbm7FNgzB1LJNQ8j54qmk6WLd9HJl4+tYj8pbBS1kybb0TSsnckHrozx+Nhao3ypdqNr2IXUDgDFazrrVYt0MW/2kMJHr3z7Lvcnj66FbOtiA/Z1c30aoCoyAtbuJ3IsuPy/WTSv3wt0gYWvrpZpz38fe0le0p9JE95/NRm6fs05u36hfLla1TudYUqPHt/ZI5bKQhxCAWn2Q9D1xG47kpu/eL9bNnVz/9qf9/mQ/bveR7b5tqnz6tlGoJWDF/qGZ2q+9buhPiVw5qXVH8KFDeS9Ji3UjPb0780TxdmB/qV6svQKSWs66zWLdXCjOe0Z3cSQ3CDyVtcn6OGSoloDVK92N8uEN/U5u8fhG0t/2+1Oh61jugmm2/hxL6dODLzFN3YA9nOe8gz0wFstZ92mxboYKELAzApZ/R7qvcOVqVdH0YI0umBoEsnIm97ALU2zxtKkbcKhaniL8I3UDCpPT1FOJW0WEdL2cdZ9SNwLAPasmn6VuR2aG2Ro8oZaAtUrdgILkVr06U9xdk3O2kXSeuhEA/s2qylyf905SNyB3VQSsxHuWlOROmT32b2GPC9V9NmesuwLyZXvSXaZuRwbObcuIkE/w9wGPHUUVAUtyCxFFufJXslw4bRfqmEeGd5JOMqssAnjEctZ90LhnTT7YHmGTkCepoT+sJmCZE43r6biXWC1nXbbfGxsZjjFkDeGKwQFQiOWsO9c4Q9ZqOeuGCt4k4HmyKwTso6qAtZx1d8tZdybW9Ty0sQ4hayMMWYQroFDWp45pacrqwX1kGvBcVfSJVQWsgVVqXotqluR+UItZ4zSikLWR9DpCuAo50KiiEwT2ZUtTxtBfXTwySA+5w2kf8NjRVBmwpJ+qWSeq5MPaw0auQlJUNW8rZBXV7he4VrzP5c+Ax67189lLRnuXEXydPsZJrL96o3qvh/Mnto6ZBjznXwGPHU21AWuwnHXtcta9lnt6rtYL4DGtCgxXA+u0TlTfZ/ZhOetiPi3YBzx2iTfyUG3uX/j32wBtGPQBjx1CG+i40X4+rRL9WhVsjrllWMKwevg/7LVuIbWBjx9F9QFrYAvzXsvNmdd2037ocjnrig1Xg8o6rY2kN1sLRGMJNU2+KfTnqwt03Bd9n63aFeL71xe4pi/URtFRN6C2WZMT1TGYb+WWMLRP/P+3gc/fBz5+FKMJWNI/F8An1Ru0erkRR1Z7XR2ikk7rYjnr3qS48VkIWgU4dJEvC7f1mX2AQ3/d49+ECL/7tCO1EN+Hu0DH/SUbRL1RuQPDi+cG6It1M7xwOpS7GrZokEYWsAYPgta56kjLl3IVkjZ1Q0IotNO6lhsFfkrcDt9POm0emzYoiO/vx/We4dn3IO9OBW6CaTdT3+3+krLCupx1vQ0Mz1TO/aXVbv3VqcK+k7ENeOyoRhmwBha0VrZG60Rl7muykrsoPhQ6ZbOzgjqtVq6SeJbDSMza4DNUFP3UlIXD1tPh7rTn9yPE51JwH3Ahf2umNsokaC5n3bXdX3IeyPdy/dWumx1/DNucYNP40b368eNH6jYc7NWrV96OtVX+fKuwZdBDDOXvi9A38MW6mUq6CXX85azb+8NbrJu53MU+8dWeA60kfc21irhYN1eS5gce5rzw6pWkf67zGx32qg8v+5jxuTiLdXMs95kcUh3Jem85Wxz+u8I+gberVq7St/NU6mLdvJf0OViLnNfDfa30fELAeoZ1wlO5sDVV+hv5tdzCzetYI9WcA9bA2vhOh9+k9rGRW/dynUO16lcOuJnfyd3Eq9lbzq7vb9rvZuf1Rr5YN58lvd/znxcfrgYWsq60X/Dt5d7nmWW42mavmfldbhA/iXjqYXD+5aXfJ7tebhV2erC3ip8kAlYWQgWsh+yimMptsHassC+6lNzNeyMXqtoU5f8SAtbgQfVxqnAdQav7oNsHOkcwNor+rN079mu57SX6UG1KabFuPsnd7Hb9eVnJfT+8Xo92rV1p98+ltXZkHyhewq7j93rZVNSlXEW/uClSC5VT3fdbvm3kfla6QwZIi3XzTeFndS63H9IqPZ8QsA5kneLEfv3Xfj/Sy8JXa79v5DZY2yiTx+BLClgPbXVc/5P7XKZ7HKaVG/X9KRdyWy+Ny4BNsT4VRodO+UutwWqb3dTnevom1ypSqLYA/FTVfBh0ZTsV7UtOn0lM1m8dy332w27p0x3+ab/16y+574+X+4j1FVeHHmcHPz1tXXo+IWDhWSUHrKdYB/ZstaL2mxcA7MLT2rhd/DQ9KJUfsH5L3QAgttqmVACEZSHjnVwlaXt2oupKb8RwJZW5h9uzCFgAADzCpimv9PTao2E67/1i3awU4cnuWCKHK6nMbZKeNep9sAAAeIwFjFvtvrB7Lul2sW6u7IGoYtmaq6jhqpZguo0KFgAAWw6s3swlzUusaFnF7qP23zJkX77frpAFKlgAAPzsSodXb+ZyFa0bqwhlzZ5e/a744arK6pVEBQsAgH9YGPK5x+FU0tQ2k72W9EdOG/ZmsLt8ldUriYAFAMC23wMdd9jXa75YN8OO6p0ivpljYGvEhmA1iXnuBy5rrV5JBCwAACT9EzxCv6FD2gpbkq4W62bYQLaT2xzU+1YytqfhVG7j1hhf46/cqeLqlUTAAgBgMEl03mG7h7kkLdaNdL8r+0bS31v/vYup/d7o5W8WieU8h7eVhETAAgAgPxPt/4qv3K1yWocWCk8RAgCAWDaSPvzyb1WAgAUAgNOnbkDl7jSCqcEBAQsAAEn2RNsobv6JnI3pXbAELAAA7q1SN6BS58tZ16ZuREwELAAA7n0RVSzfzpezbpW6EbERsAAAMDZNOIpF2BEMa65WqRuSAgELAIAtFgjOU7ejcHeSTsYariQCFtLqUzcAAB5jweBM9FP7aCW9HtOC9scQsPCswIsS+4DHBoCD2GaYb+SmDPu0rSnGxXLWnYxlK4bnsJM7dtErzCsk+gDHBABvLChcSrpcrJu53AuSc3z1TGqtpA9jr1pto4KFXbSBjtsFOi4AeLecdavlrHsj6URS9a962VEvt5D9hHD1MypY2MVX2UtIPboTHRSAAtnSiXaxbiZyfeM7pXtRdCq93HTgKnE7svXqx48fqdtwsFevXqVuQvUW6+ZGfl86erGcdZ88Hg8Aklmsm1NJbyWdSjpK3JyQNpK+xAhWpecTAhZ2slg3x5K+ezrcxsrsAFCdCsPWMOPwJeY0YOn5hICFndkCz6sDDzPsjcJcPYDqLdbNVK76/1ZlLY7v5UJVZ09TRld6PiFg4UUODFm9RvayTwAYLNbNkVzImkpq7M+5VLg29quT1NqO9kmVnk8IWHgxmy680stGYyu5R3hHvzcKAAxsofxELnT91/48/AphIzeTsJH0l9ySjTbQuQ5Sej4hYGFvVs0a1hk8Zpi3v8hhNAQAJdmqeA2mL/jnQ4iSFHzT6CBKzycELHhh6wy29YQqAMC+Ss8nVQQsAACAnLCTOwAAgGcELAAAAM8IWAAAAJ4RsAAAADwjYAEAAHhGwAIAAPCMgAUAAOAZAQsAAMAzAhYAAIBnBCwAAADPCFgAAACeEbAAAAA8I2ABAAB4RsACAADwjIAFAADgGQELAADAMwIWAACAZwQsAAAAzwhYAAAAnhGwAAAAPCNgAQAAeEbAAgAA8IyABQAA4BkBCwAAwDMCFgAAgGcELAAAAM8IWAAAAJ4RsAAAADwjYAEAAHhGwAIAAPCMgAUAAOAZAQsAAMAzAhYAAIBnBCwAAADPCFgAAACeEbAAAAA8I2ABAAB4RsACAADwjIAFAADgGQELAADAMwIWAACAZwQsAAAAzwhYAAAAnv0/dCKzhDawkl0AAAAASUVORK5CYII=;" parent="1" vertex="1">
                    <mxGeometry x="250" y="330" width="98.46" height="85.34" as="geometry"/>
                </mxCell>
                <mxCell id="41" value="&lt;font face=&quot;Georgia&quot; style=&quot;font-size: 26px;&quot;&gt;BackEnd (WebApi)&lt;br&gt;&lt;/font&gt;" style="text;html=1;strokeColor=none;fillColor=none;align=center;verticalAlign=middle;whiteSpace=wrap;rounded=0;" parent="1" vertex="1">
                    <mxGeometry x="360" y="355.34000000000003" width="250" height="40" as="geometry"/>
                </mxCell>
                <mxCell id="45" style="edgeStyle=none;html=1;exitX=0.447;exitY=0;exitDx=0;exitDy=0;exitPerimeter=0;fontSize=16;entryX=0.455;entryY=1.003;entryDx=0;entryDy=0;entryPerimeter=0;" parent="1" source="20" target="34" edge="1">
                    <mxGeometry relative="1" as="geometry">
                        <mxPoint x="400" y="836.44" as="sourcePoint"/>
                        <mxPoint x="401.1099999999999" y="965.34" as="targetPoint"/>
                    </mxGeometry>
                </mxCell>
            </root>
        </mxGraphModel>
    </diagram>
</mxfile>